<svg xmlns="http://www.w3.org/2000/svg" xmlns:xlink="http://www.w3.org/1999/xlink" width="500" zoomAndPan="magnify" viewBox="0 0 375 374.999991" height="500" preserveAspectRatio="xMidYMid meet" version="1.0"><defs><clipPath id="id1"><path d="M 206 17.578125 L 375 17.578125 L 375 191 L 206 191 Z M 206 17.578125 " clip-rule="nonzero"/></clipPath><clipPath id="id2"><path d="M 0 18 L 375 18 L 375 357.328125 L 0 357.328125 Z M 0 18 " clip-rule="nonzero"/></clipPath></defs><g clip-path="url(#id1)"><path fill="#5f45ff" d="M 206.019531 128.902344 L 243.730469 128.902344 L 243.730469 190.261719 L 374.914062 190.261719 L 374.914062 17.578125 Z M 206.019531 128.902344 " fill-opacity="1" fill-rule="nonzero"/></g><g clip-path="url(#id2)"><path fill="#5f45ff" d="M 167.78125 18.394531 L 0.117188 128.902344 L 38.136719 128.902344 L 38.136719 357.296875 L 167.214844 322.410156 L 167.78125 322.261719 L 167.78125 269.257812 L 243.730469 269.257812 L 243.730469 355.4375 L 374.914062 314.011719 L 374.914062 231.671875 L 167.78125 231.671875 Z M 167.78125 18.394531 " fill-opacity="1" fill-rule="nonzero"/></g></svg>