<svg width="221" height="231" viewBox="0 0 221 231" fill="none" xmlns="http://www.w3.org/2000/svg">
<path d="M192.486 227.622H152.69C148.949 227.622 145.36 226.374 142.714 224.154C140.068 221.933 138.582 218.921 138.582 215.78V162.281C138.582 161.457 138.775 160.641 139.151 159.879C139.527 159.117 140.078 158.425 140.772 157.842C141.467 157.26 142.291 156.797 143.199 156.482C144.106 156.166 145.079 156.004 146.061 156.004H203.004C203.986 156.004 204.959 155.842 205.866 155.526C206.774 155.211 207.598 154.748 208.292 154.165C208.987 153.582 209.538 152.89 209.914 152.129C210.29 151.367 210.483 150.551 210.483 149.727V138.658" stroke="#D8BAA3" stroke-width="6" stroke-miterlimit="10"/>
<path d="M212.576 227.622H190.682C186.94 227.622 183.351 226.374 180.706 224.154C178.06 221.933 176.573 218.921 176.573 215.78V162.476C176.573 160.76 177.386 159.113 178.832 157.9C180.278 156.686 182.24 156.004 184.285 156.004" stroke="#D8BAA3" stroke-width="6" stroke-miterlimit="10"/>
<path d="M211.798 91.6011C212.612 91.6015 213.417 91.7474 214.159 92.0293C214.901 92.3112 215.563 92.7225 216.1 93.2359C216.638 93.7493 217.039 94.3529 217.277 95.0066C217.515 95.6603 217.585 96.3491 217.481 97.027L211.877 133.4C210.907 139.694 207.241 145.476 201.563 149.666C195.885 153.857 188.583 156.169 181.023 156.171H118.713C117.869 156.171 117.059 155.889 116.462 155.388C115.866 154.887 115.53 154.208 115.53 153.499V153.466C115.533 152.827 115.807 152.21 116.303 151.726C116.799 151.241 117.484 150.921 118.235 150.822C131.596 148.985 151.942 143.875 153.997 128.395L159.018 95.7966C159.196 94.6376 159.872 93.573 160.918 92.8015C161.963 92.03 163.308 91.6045 164.7 91.6045L211.798 91.6011Z" fill="white" stroke="#D8BAA3" stroke-width="6" stroke-miterlimit="10"/>
<path d="M217.481 97.027L211.877 133.4C210.907 139.694 207.241 145.476 201.563 149.666C195.885 153.857 188.583 156.169 181.023 156.171H118.715C117.871 156.171 117.061 155.889 116.464 155.388C115.868 154.887 115.532 154.208 115.532 153.499V153.466C115.532 153.045 115.651 152.63 115.88 152.256C116.139 152.672 116.528 153.021 117.007 153.265C117.485 153.508 118.034 153.637 118.593 153.636H178.835C186.099 153.636 193.114 151.416 198.57 147.391C204.026 143.366 207.55 137.812 208.484 131.766L213.864 96.8133C213.965 96.1619 213.899 95.5001 213.67 94.8719C213.442 94.2437 213.056 93.6636 212.539 93.1703C212.023 92.6771 211.387 92.282 210.674 92.0114C209.96 91.7408 209.187 91.6009 208.404 91.6011H211.798C212.612 91.6012 213.417 91.747 214.159 92.0288C214.901 92.3106 215.563 92.7219 216.101 93.2353C216.639 93.7488 217.04 94.3525 217.278 95.0063C217.516 95.6602 217.585 96.349 217.481 97.027V97.027Z" fill="#F0E1D4" stroke="#D8BAA3" stroke-width="6" stroke-miterlimit="10"/>
<path d="M138.582 207.347H176.573" stroke="#D8BAA3" stroke-width="6" stroke-miterlimit="10"/>
<path d="M79.1643 212.954C79.1643 214.017 82.0953 218.371 81.9976 220.245C81.8999 222.12 71.4639 221.945 66.2978 221.969C60.1566 222 47.0947 222 47.0947 222C47.0947 222 45.8286 217.668 52.554 217.068C59.2793 216.469 67.4104 211 67.4104 211L79.1643 212.954Z" fill="#722D54"/>
<path d="M152.206 214C152.52 215.015 156 219.478 156 223.771C156 223.771 149.716 227.635 147.498 227.888C145.28 228.141 127.004 227.888 127.004 227.888C127.004 227.888 126.565 222.569 134.545 221.649C140.151 221.001 140.341 214.975 140.341 214.975L152.206 214Z" fill="#722D54"/>
<path d="M177.243 115.53C177.243 115.53 186.194 129.074 182.687 138.71C179.181 148.346 158.47 146.748 158.47 146.748C158.47 146.748 165.084 168.226 155.409 213.463C155.409 213.463 147.777 216.894 134.746 214.607C134.746 214.607 132.801 193.539 123.765 146.995L107.341 146.966C107.341 146.966 109.853 180.899 82.5212 212.494C82.5212 212.494 73.8866 214.378 64.3569 209.153C64.3569 209.153 76.4008 163.117 78.4496 134.867C79.0463 126.547 95.2672 119.218 132.047 115.545C132.047 115.543 165.279 117.225 177.243 115.53Z" fill="#3F4D90"/>
<path d="M123.363 147.668C122.677 144.403 118.987 130 141.358 125.426" stroke="white" stroke-width="5" stroke-miterlimit="10" stroke-linecap="round"/>
<path d="M156.734 141.611C156.734 141.611 158.281 143.377 159.071 146.915" stroke="white" stroke-width="5" stroke-miterlimit="10" stroke-linecap="round"/>
<path d="M119.791 104.292C111.174 115.066 72.7232 110.471 62.7161 109.07C61.8688 109.815 60.7271 110.598 59.5714 110.798C57.2044 111.202 50.0437 110.677 49.0929 111.301C49.0929 111.301 48.6792 109.657 50.9746 108.785C52.5659 108.185 55.2889 108.668 54.2884 107.806C53.6081 107.219 51.9333 107.346 48.3729 108.28C47.0342 108.633 42.1411 110.618 40.8721 107.92L45.6817 104.063C48.8801 102.573 50.5529 100.885 57.5425 102.24C58.467 102.432 59.4319 102.441 60.3611 102.265C62.6167 101.416 81.9744 94.5838 99.3908 92.2024L103.204 71.2693C109.543 76.1529 120.682 80.3657 121.448 80.6508C121.448 80.6777 123.449 99.7274 119.791 104.292Z" fill="#C36F0B"/>
<path d="M121.806 85.3199C117.965 83.881 108.407 79.9181 102.744 73.8237L103.204 71.298C109.543 76.18 120.682 80.3927 121.448 80.6778C121.448 80.6778 121.649 82.5763 121.806 85.3199Z" fill="#B65A18"/>
<path d="M166.437 33.771C167.785 34.9037 176.543 40.4753 194.926 49.6038C198.236 51.2477 207.702 58.9077 207.125 75.1514C207.125 75.1514 200.122 80.8049 182.413 83.9574C182.413 83.9574 178.455 107.986 178.166 114.291C177.878 120.597 133.036 117.8 131.111 115.384C129.185 112.968 121.587 91.1596 121.491 80.6562C121.491 80.6562 102.627 73.6996 99.355 67.1523C99.355 67.1523 107.246 51.7974 112.541 49.0491C118.846 45.7763 135.869 41.3641 146.19 34.2505L166.437 33.771Z" fill="#F0E1D4"/>
<path d="M181.848 83.6418L180.529 70.9816" stroke="white" stroke-width="6" stroke-miterlimit="10" stroke-linecap="round"/>
<path d="M121.114 80.0231C121.114 80.0231 120.205 72.5653 122.904 64.5812" stroke="white" stroke-width="6" stroke-miterlimit="10" stroke-linecap="round"/>
<path d="M149.08 67.3679C151.984 81.5551 159.314 101.783 147.061 107.965C147.061 107.965 149.885 102.463 143.158 89.5459C133.736 71.4543 143.87 49.963 146.231 45.4022L142.774 41.5931L147.815 37.3045L149.267 37.4966L153.878 42.1227L148.845 46.321C148.362 47.5523 146.426 54.4036 149.08 67.3679Z" fill="#FFB000"/>
<path d="M150.375 39.0855L144.763 43.7937L144.302 43.2925L149.842 38.6428C149.913 38.5872 150.008 38.5571 150.106 38.5588C150.203 38.5605 150.297 38.594 150.366 38.6521C150.434 38.7103 150.474 38.7886 150.476 38.8706C150.477 38.9527 150.441 39.0321 150.375 39.0922V39.0855Z" fill="white"/>
<path d="M152.258 40.9849L145.694 46.4984C145.893 46.0673 146.092 45.7031 146.241 45.4074L146.106 45.2587L151.735 40.5338C151.807 40.4813 151.901 40.4537 151.996 40.4566C152.092 40.4595 152.182 40.4927 152.25 40.5494C152.317 40.6061 152.357 40.6822 152.36 40.7624C152.364 40.8426 152.331 40.9209 152.268 40.9815L152.258 40.9849Z" fill="white"/>
<path d="M148.785 46.4896C148.694 46.7435 148.575 47.1361 148.447 47.6674L143.325 51.9646C143.5 51.5024 143.676 51.0569 143.851 50.628L148.785 46.4896Z" fill="white"/>
<path d="M147.92 50.8467C147.886 51.1508 147.857 51.4733 147.831 51.8091L141.639 56.93C141.758 56.5256 141.881 56.128 142.005 55.7387L147.92 50.8467Z" fill="white"/>
<path d="M147.717 55.7052L140.415 61.75C140.491 61.3841 140.572 61.0216 140.656 60.6623L147.711 54.8147C147.711 55.1088 147.711 55.4028 147.717 55.7052Z" fill="white"/>
<path d="M147.94 59.7949L139.586 66.6913C139.624 66.3572 139.667 66.0258 139.715 65.6973L147.87 58.9645C147.89 59.2369 147.914 59.5125 147.94 59.7949Z" fill="white"/>
<path d="M148.417 63.6739L139.238 71.252C139.238 70.9446 139.26 70.6405 139.272 70.3365L148.3 62.882C148.336 63.1443 148.376 63.3999 148.417 63.6739Z" fill="white"/>
<path d="M149.133 67.6299L139.329 75.619C139.307 75.3383 139.292 75.0593 139.278 74.7837L148.982 66.8765C149.012 67.0435 149.046 67.2106 149.08 67.3777C149.096 67.4545 149.116 67.5414 149.133 67.6299Z" fill="white"/>
<path d="M150.026 71.6395L139.882 79.9109C139.832 79.6536 139.789 79.3963 139.747 79.139L149.861 70.8977C149.911 71.1433 149.967 71.3905 150.026 71.6395Z" fill="white"/>
<path d="M150.987 75.726L140.865 83.974C140.789 83.7384 140.719 83.5012 140.652 83.2656L150.81 74.9892C150.876 75.2331 150.933 75.4804 150.987 75.726Z" fill="white"/>
<path d="M151.94 79.8427L142.275 87.7181C142.178 87.501 142.076 87.2838 141.993 87.0666L151.783 79.1042C151.829 79.3465 151.886 79.5954 151.94 79.8427Z" fill="white"/>
<path d="M152.853 84.2951L144.101 91.4305C144.002 91.2216 143.902 91.0128 143.795 90.799L152.716 83.5316C152.759 83.7822 152.805 84.0412 152.853 84.2951Z" fill="white"/>
<path d="M153.531 88.6067L145.645 95.0337C145.561 94.8131 145.474 94.5893 145.384 94.3654L153.428 87.8131C153.466 88.0771 153.499 88.3427 153.531 88.6067Z" fill="white"/>
<path d="M153.903 93.2082L146.892 98.9205C146.83 98.6849 146.766 98.4443 146.693 98.1987L153.867 92.3511C153.883 92.6368 153.895 92.9258 153.903 93.2082Z" fill="white"/>
<path d="M153.772 97.0204C153.738 97.3546 153.696 97.6787 153.651 98.0029L147.586 102.943C147.564 102.683 147.538 102.414 147.502 102.131L153.772 97.0204Z" fill="white"/>
<path d="M136.244 39.4378C138.753 41.0935 141.647 42.791 141.647 42.791L148.511 37.0302L155.61 43.7984C167.208 42.9497 172.623 37.478 172.623 37.478" stroke="white" stroke-width="6" stroke-miterlimit="10" stroke-linecap="round"/>
<path d="M126.492 95.4699H127.914C128.887 95.4704 129.82 95.7943 130.507 96.3707C131.195 96.947 131.582 97.7286 131.582 98.5437V103.254C131.582 104.07 131.196 104.851 130.508 105.428C129.82 106.004 128.887 106.328 127.914 106.328H126.502" stroke="#722D54" stroke-width="5" stroke-miterlimit="10"/>
<path d="M123.003 93.1297H115.823C113.797 93.1297 112.155 94.5059 112.155 96.2035V105.793C112.155 107.491 113.797 108.867 115.823 108.867H123.003C125.029 108.867 126.671 107.491 126.671 105.793V96.2035C126.671 94.5059 125.029 93.1297 123.003 93.1297Z" fill="white" stroke="#722D54" stroke-width="5" stroke-miterlimit="10"/>
<path d="M203.581 77.2225C203.581 77.2225 204.83 100.072 201.182 103.8C189.92 115.301 141.72 108.197 141.72 108.197L141.531 102.221C141.531 102.221 162.254 95.9969 180.78 93.4832L182.037 84.1035C182.037 84.1035 195.442 81.8731 203.581 77.2225Z" fill="#C36F0B"/>
<path d="M203.764 82.96C196.84 85.9304 185.958 86.1438 181.898 86.0521L182.037 84.1035C182.037 84.1035 195.442 81.8732 203.581 77.2225C203.581 77.2225 203.71 79.6028 203.764 82.96Z" fill="#B65A18"/>
<path d="M142.245 101.676C142.245 101.676 135.827 97.3884 132.831 98.1368C129.836 98.8853 129.45 102.079 129.09 102.894C128.73 103.709 128.413 106.628 128.421 107.522C128.429 108.415 131.435 108.855 132.632 108.855C133.83 108.855 141.677 108.933 143.188 108.585C144.7 108.237 142.245 101.676 142.245 101.676Z" fill="#C36F0B"/>
<path d="M132.632 108.857C131.439 108.857 129.285 108.92 128.622 108.252C127.309 106.918 127.713 104.561 127.996 103.661C128.236 102.887 129.838 98.8869 132.831 98.1368C132.831 98.1368 129.177 103.728 132.632 108.857Z" fill="#B65A18"/>
<path d="M143.783 101.161H142.964C142.267 101.161 141.703 101.634 141.703 102.218V107.789C141.703 108.372 142.267 108.846 142.964 108.846H143.783C144.48 108.846 145.044 108.372 145.044 107.789V102.218C145.044 101.634 144.48 101.161 143.783 101.161Z" fill="#FFB000"/>
<path d="M145.36 102.343H141.35C140.7 102.343 140.173 102.785 140.173 103.33V106.69C140.173 107.235 140.7 107.677 141.35 107.677H145.36C146.011 107.677 146.538 107.235 146.538 106.69V103.33C146.538 102.785 146.011 102.343 145.36 102.343Z" fill="#3F4D79" stroke="white" stroke-width="2" stroke-miterlimit="10"/>
<path opacity="0.2" d="M140.173 106.692V103.327C140.173 103.066 140.297 102.815 140.518 102.631C140.738 102.447 141.037 102.343 141.348 102.343H145.362L140.173 106.692Z" fill="white"/>
<path d="M166.97 25C166.97 25 164.057 29.7313 166.97 34.1397C167.936 35.5994 145 34.7596 145 34.7596L147.94 25H166.97Z" fill="#C36F0B"/>
<path d="M146.359 10.8169C146.024 13.277 145.793 19.0598 142.523 25.307C139.252 31.5541 152.264 31.4038 155.63 30.612C159.056 29.8066 161.182 27.5205 161.182 27.5205C161.182 27.5205 168.004 26.0009 168 23.6371C168 21.8085 164.54 22.6899 164.54 22.6899C164.54 22.6899 166.459 10.4252 163 9.79038C159.54 9.15553 146.744 7.97701 146.359 10.8169Z" fill="#C36F0B"/>
<path d="M164.231 22.9468C163.027 23.4195 160.066 20.6673 161.6 17.6377C163.434 14.0224 163.997 10.9363 160.738 10.3283C157.48 9.72036 154.314 12.9794 147.631 11.373C140.948 9.7666 141.964 2.61989 147.707 2.05816C153.451 1.49642 154.204 5.18709 155.135 5.26758C156.067 5.34807 162.395 2.93501 165.93 6.06737C168.865 8.66882 167.825 10.2547 168.626 10.4157C169.427 10.5767 172.179 11.5323 171.991 14.0224C171.802 16.5126 167.146 22.6248 167.146 22.6248C167.146 22.6248 166.064 22.2241 164.231 22.9468Z" fill="#722D54"/>
<path d="M159 9.79684C155.632 10.3377 152.363 13.0615 145.651 11.5471C138.939 10.0326 139.959 2.52958 145.726 2" stroke="#722D54" stroke-width="3" stroke-miterlimit="10"/>
<path d="M166 21.1198C164.92 22.0537 162.394 25.3549 161.921 28.88C161.448 32.4052 158.636 35.2203 151.504 34.9864C144.372 34.7525 140.403 33.1185 140.028 31.171C139.654 29.2234 143.135 24.1505 143.135 24.1505C143.135 24.1505 145.772 20.4479 149.624 21.1645C153.477 21.8812 154.232 27.1249 156.67 27.1017C161.24 27.0569 163.408 20 163.408 20L166 21.1198Z" fill="#722D54"/>
<path d="M166.813 22.6613V4.97627C166.813 4.45448 166.566 3.95406 166.128 3.58509C165.689 3.21613 165.094 3.00885 164.473 3.00885H157.838C157.531 3.00885 157.227 3.05975 156.943 3.15864C156.659 3.25754 156.402 3.40248 156.185 3.58519C155.968 3.76791 155.795 3.98481 155.678 4.2235C155.561 4.46218 155.5 4.71798 155.501 4.97627" stroke="#D8BAA3" stroke-width="5" stroke-miterlimit="10" stroke-linecap="round"/>
<path d="M166.534 24.5163V27.0258C166.534 27.7135 166.209 28.3731 165.631 28.8594C165.053 29.3457 164.269 29.6189 163.451 29.6189H148.511" stroke="#D8BAA3" stroke-width="5" stroke-miterlimit="10" stroke-linecap="round"/>
<path d="M169.5 24.5026C169.862 22.86 168.825 21.3212 167.184 21.0657C165.543 20.8102 163.92 21.9346 163.558 23.5772C163.197 25.2198 164.234 26.7585 165.874 27.0141C167.515 27.2696 169.139 26.1452 169.5 24.5026Z" fill="white" stroke="#D8BAA3" stroke-width="5" stroke-miterlimit="10" stroke-linecap="round"/>
<path d="M150.232 29.8512C150.37 29.2234 149.761 28.6023 148.872 28.4638C147.983 28.3254 147.151 28.7221 147.012 29.3499C146.874 29.9776 147.483 30.5988 148.372 30.7372C149.261 30.8757 150.094 30.479 150.232 29.8512Z" fill="white"/>
<path d="M115.439 90.0999H16.7485C15.5312 90.0999 14.5367 89.1818 14.5367 88.048L3 35.4904C3 34.3566 3.99454 33.4385 5.21583 33.4385H103.908C105.131 33.4385 106.124 34.3566 106.124 35.4904L117.66 88.048C117.657 89.1818 116.664 90.0999 115.439 90.0999Z" fill="white" stroke="#D8BAA3" stroke-width="6" stroke-miterlimit="10"/>
<path d="M113.028 90.0999H16.6035C15.4259 90.0999 14.4732 89.217 14.4732 88.1267L3.38403 37.5958C3.38403 36.5055 4.33879 35.6226 5.51633 35.6226H101.939C103.116 35.6226 104.071 36.5055 104.071 37.5958L115.158 88.1267C115.158 89.217 114.204 90.0999 113.028 90.0999Z" fill="white" stroke="#D8BAA3" stroke-width="6" stroke-miterlimit="10"/>
<path d="M66.1333 72.665L71.462 89.6151H66.1333V72.665Z" fill="#F0E1D4"/>
<path d="M96.1229 106.55V108.565L61.4791 101.486L26.8313 108.565V106.55L57.851 98.0982V73.148H65.5567V98.222L96.1229 106.55Z" fill="white" stroke="#D8BAA3" stroke-width="6" stroke-miterlimit="10"/>
<path d="M26.4473 108.725H145.03C145.529 108.726 146.024 108.809 146.485 108.97C146.946 109.13 147.365 109.366 147.717 109.663C148.07 109.96 148.35 110.313 148.54 110.701C148.731 111.089 148.828 111.505 148.827 111.925V112.761C148.827 113.607 148.427 114.419 147.715 115.018C147.003 115.617 146.037 115.953 145.03 115.953H26.5069L26.4473 108.725Z" fill="white"/>
<path d="M26.4473 108.725H145.03C145.529 108.726 146.024 108.809 146.485 108.97C146.946 109.13 147.365 109.366 147.717 109.663C148.07 109.96 148.35 110.313 148.54 110.701C148.731 111.089 148.828 111.505 148.827 111.925V112.761C148.827 113.607 148.427 114.419 147.715 115.018C147.003 115.617 146.037 115.953 145.03 115.953H26.5069" stroke="#D8BAA3" stroke-width="6" stroke-miterlimit="10"/>
<path d="M115.439 227.963V116.077H123.711V227.955L115.439 227.963Z" fill="white"/>
<path d="M115.439 118.296V116.077H123.711V123.79L115.439 118.296Z" fill="#F0E1D4"/>
<path d="M115.439 227.963V116.077H123.711V228" stroke="#D8BAA3" stroke-width="6" stroke-miterlimit="10"/>
</svg>
