<svg width="198" height="202" viewBox="0 0 198 202" fill="none" xmlns="http://www.w3.org/2000/svg">
<path d="M65.9239 34.9649C34.95 128.921 -3.11644 121.465 1.56993 170.529C5.02626 206.675 30.1053 196.294 59.2576 197.65C88.4098 199.005 175.694 197.764 175.694 197.764C175.694 197.764 164.512 146.171 187.023 94.3844C229.274 -2.85183 87.0179 -29.0216 65.9239 34.9649Z" fill="#EDE4DD"/>
<path d="M54.9202 192.478C54.9202 192.478 89.4026 169.103 96.5742 162.815C103.985 156.319 122.977 153.431 139.014 158.83C155.051 164.229 182.173 176.153 189.661 184.689C193.875 189.485 193.369 192.486 193.369 192.486L54.9202 192.478Z" fill="#565697"/>
<path d="M128.312 156.905L136.662 159.868C136.662 159.868 119.637 176.37 113.761 179.819C107.54 183.473 100.59 186.399 94.9305 182.835C88.0628 178.509 97.9247 166.472 97.9247 166.472L128.312 156.905Z" fill="#1D1E40"/>
<path d="M92.1378 148.772C92.1378 148.772 97.3798 152.709 96.7037 171.136C96.0275 189.562 131.591 159.954 131.591 159.954C131.591 159.954 123.773 157.314 121.968 132.743C120.162 108.173 118.832 117.103 118.832 117.103C118.832 117.103 89.5105 144.251 92.1378 148.772Z" fill="#EFB6AB"/>
<path opacity="0.64" d="M116.641 118.187C116.641 118.187 119.652 155.028 96.574 162.815C95.7288 157.541 95.8889 154.565 93.9036 152.01C96.3313 135.753 116.641 118.187 116.641 118.187Z" fill="#EFB6AB"/>
<path d="M119.594 114.461C119.594 114.461 117.096 136.251 123.799 135.336C130.501 134.42 136.604 97.0499 136.937 93.9009C137.27 90.752 139.544 70.0418 138.886 68.0627C138.228 66.0837 114.543 56.7995 75.5735 62.1319C55.9163 64.113 56.9197 69.8479 56.9197 69.8479C56.9197 69.8479 63.4889 98.2219 66.3788 102.53C69.2687 106.839 119.594 114.461 119.594 114.461Z" fill="#A16D4B"/>
<path d="M198 184.762H0V202H198V184.762Z" fill="#989CB7"/>
<path d="M63.5356 70.4593C63.5356 70.4593 62.9961 106.745 70.0491 128.121C77.102 149.496 84.1513 152.011 84.1513 152.011C84.1513 152.011 87.0951 153.519 93.9107 152.011C102.026 150.218 113.778 139.29 118.837 117.277C118.837 117.277 130.229 119.272 131.533 102.944C132.402 92.0787 124.086 91.3988 120.227 93.1902C117.573 94.4206 115.078 97.9866 113.638 100.009C110.667 104.18 110.252 96.7583 111.282 87.3302C112.208 78.8948 103.251 73.9961 103.251 73.9961" fill="#EFB6AB"/>
<path d="M126.014 100.366C119.36 97.6234 116.641 107.17 116.641 107.17C116.641 107.17 120.321 102.701 123.211 106.053" stroke="#4C1C17" stroke-width="3.7" stroke-linecap="round" stroke-linejoin="round"/>
<path d="M82.1249 90.4666C82.186 88.6377 85.9013 86.8525 89.1383 87.0569C92.3752 87.2613 93.8516 88.573 94.7993 89.6095C95.578 90.4666 94.9791 92.1703 93.1269 91.1255C91.084 89.9681 89.3648 89.2487 86.4732 90.0119C83.4664 90.8065 82.0691 92.1057 82.1249 90.4666Z" fill="#E69766"/>
<path d="M72.2034 97.0898C72.2034 97.0898 68.3155 121.458 68.8981 124.244C69.3567 126.45 70.8763 129.305 74.8703 128.884C78.8643 128.463 79.9667 126.642 79.9667 126.642" stroke="#4C1C17" stroke-width="3.7" stroke-linecap="round" stroke-linejoin="round"/>
<path d="M81.7092 132.946C81.7092 132.946 87.0178 135.399 89.4419 128.921L81.7092 132.946Z" fill="#EFB6AB"/>
<path d="M81.7092 132.946C81.7092 132.946 87.0178 135.399 89.4419 128.921" stroke="#3A130D" stroke-width="9.25" stroke-linecap="round" stroke-linejoin="round"/>
<path d="M85.5774 103.091C85.5774 103.091 88.363 105.894 91.2654 105.335C94.1679 104.776 95.1336 101.69 95.1336 101.69" stroke="black" stroke-width="7.4" stroke-linecap="round" stroke-linejoin="round"/>
<path d="M65.5444 102.534C65.5444 102.534 66.3069 104.889 67.7294 104.889C69.3478 104.889 70.4142 103.056 70.4142 103.056" stroke="black" stroke-width="7.4" stroke-linecap="round" stroke-linejoin="round"/>
<path d="M64.6167 89.4136C65.6184 89.4824 65.9546 88.1936 68.3823 88.9423C70.81 89.6909 71.0636 90.548 71.6193 90.3457C72.8062 89.9099 72.0347 87.8433 69.4469 86.957C67.8536 86.4085 66.2298 86.4627 65.3019 87.2927C64.8127 87.7286 63.6151 89.3447 64.6167 89.4136Z" fill="#E69766"/>
<path d="M82.1249 90.4666C82.186 88.6377 85.9013 86.8525 89.1383 87.0569C92.3752 87.2613 93.8516 88.573 94.7993 89.6095C95.578 90.4666 94.9791 92.1703 93.1269 91.1255C91.084 89.9681 89.3648 89.2487 86.4732 90.0119C83.4664 90.8065 82.0691 92.1057 82.1249 90.4666Z" fill="#A16D4B"/>
<path d="M64.6167 89.4136C65.6184 89.4824 65.9546 88.1936 68.3823 88.9423C70.81 89.6909 71.0636 90.548 71.6193 90.3457C72.8062 89.9099 72.0347 87.8433 69.4469 86.957C67.8536 86.4085 66.2298 86.4627 65.3019 87.2927C64.8127 87.7286 63.6151 89.3447 64.6167 89.4136Z" fill="#A16D4B"/>
<path d="M97.9785 75.9042C120.573 75.9042 138.89 72.276 138.89 67.8004C138.89 63.3247 120.573 59.6965 97.9785 59.6965C75.3838 59.6965 57.0671 63.3247 57.0671 67.8004C57.0671 72.276 75.3838 75.9042 97.9785 75.9042Z" fill="#A16D4B"/>
<path opacity="0.62" d="M139.285 67.9859C139.285 72.4653 121.007 75.9104 98.4135 75.9104C75.8197 75.9104 57.5022 72.2818 57.5022 67.8065C57.5022 63.3313 75.8197 59.7006 98.4135 59.7006C121.007 59.7006 139.285 63.5085 139.285 67.9859Z" fill="#A16D4B"/>
<path d="M116.375 125.779C116.375 125.779 111.137 147.869 92.1343 152.343" stroke="#4C1C17" stroke-width="3.7" stroke-linecap="round" stroke-linejoin="round"/>
<path d="M147.953 95.0871L177.706 196.863" stroke="black" stroke-width="5.55" stroke-linecap="round" stroke-linejoin="round"/>
<path d="M140.417 108.729H152.098" stroke="black" stroke-width="5.55" stroke-miterlimit="10"/>
<path d="M143.589 119.804H154.843" stroke="black" stroke-width="5.55" stroke-miterlimit="10"/>
<path d="M147.169 132.358H159.149" stroke="black" stroke-width="5.55" stroke-miterlimit="10"/>
<path d="M150.655 144.818H162.635" stroke="black" stroke-width="5.55" stroke-miterlimit="10"/>
<path d="M154.429 156.882H166.411" stroke="black" stroke-width="5.55" stroke-miterlimit="10"/>
<path d="M157.921 169.288H169.903" stroke="black" stroke-width="5.55" stroke-miterlimit="10"/>
<path d="M143.589 119.804L140.417 188.37" stroke="black" stroke-width="5.55" stroke-linecap="round" stroke-linejoin="round"/>
<path d="M76.7064 197.318V197.429C76.705 197.52 76.6881 197.61 76.6566 197.694C76.6251 197.778 76.5797 197.854 76.5229 197.918C76.4661 197.981 76.3991 198.031 76.3257 198.064C76.2523 198.098 76.1739 198.114 76.095 198.113L36.1854 200.223L10.5002 185.834V179.732L59.1227 185.323L75.9548 190.136C76.0513 190.133 76.1474 190.153 76.2375 190.194C76.3275 190.234 76.4098 190.295 76.4796 190.372C76.5494 190.45 76.6054 190.543 76.6443 190.645C76.6832 190.748 76.7043 190.858 76.7064 190.97C76.705 191.059 76.6885 191.147 76.6578 191.228C76.6271 191.31 76.5829 191.383 76.5276 191.445C76.4723 191.507 76.407 191.555 76.3356 191.587C76.2641 191.62 76.1879 191.635 76.1112 191.633H74.8812V196.68H76.1292C76.2033 196.678 76.277 196.693 76.3461 196.723C76.4153 196.754 76.4785 196.801 76.5321 196.86C76.5857 196.919 76.6287 196.99 76.6587 197.069C76.6886 197.148 76.7048 197.232 76.7064 197.318Z" fill="#E69766"/>
<path d="M74.8812 196.678L36.5073 198.916V193.187L74.8812 191.581V196.678Z" fill="white"/>
<path d="M44.623 194.954L74.7158 193.584" stroke="#5B5B5B" stroke-width="1.85" stroke-linecap="round" stroke-linejoin="round"/>
<path d="M43.8872 197.068L74.6885 195.597" stroke="#5B5B5B" stroke-width="1.85" stroke-linecap="round" stroke-linejoin="round"/>
<path d="M11.0828 185.325L36.5071 198.915V193.187L11.0828 180.947V185.325Z" fill="white"/>
<path d="M12.446 182.472L36.5073 194.428" stroke="#5B5B5B" stroke-width="1.85" stroke-linecap="round" stroke-linejoin="round"/>
<path d="M19.8657 187.34L36.5072 196.098" stroke="#5B5B5B" stroke-width="1.85" stroke-linecap="round" stroke-linejoin="round"/>
<path d="M22.4536 189.832L36.5073 197.65" stroke="#5B5B5B" stroke-width="1.85" stroke-linecap="round" stroke-linejoin="round"/>
<path d="M73.9965 188.103V188.27C73.9965 188.837 73.6602 189.298 73.2412 189.298L28.0787 192.176L11.9336 180.316V169.472L52.3792 169.993L73.0686 177.261C73.5811 177.261 73.9929 177.828 73.9929 178.512C73.9929 179.063 73.6638 179.511 73.261 179.511H71.7432V187.125H73.2754C73.6746 187.119 73.9965 187.563 73.9965 188.103Z" fill="#E55558"/>
<path d="M71.7487 187.139L28.6543 189.623V180.702L71.7487 179.45V187.139Z" fill="white"/>
<path d="M34.5654 184.535L71.5457 182.473" stroke="#5B5B5B" stroke-width="1.85" stroke-linecap="round" stroke-linejoin="round"/>
<path d="M33.6641 187.721L71.5111 185.506" stroke="#5B5B5B" stroke-width="1.85" stroke-linecap="round" stroke-linejoin="round"/>
<path d="M12.5667 169.997L27.6004 179.73" stroke="#93242A" stroke-width="1.39" stroke-linecap="round" stroke-linejoin="round"/>
<path d="M12.446 179.952L27.2874 190.699" stroke="#93242A" stroke-width="1.39" stroke-linecap="round" stroke-linejoin="round"/>
<path d="M77.782 176.404V176.527C77.7668 176.743 77.6794 176.944 77.5383 177.087C77.3973 177.23 77.2137 177.304 77.0267 177.292L31.7275 178.487L15.7227 170.642L15.8431 163.987L49.5523 166.143L76.8577 168.377C77.3702 168.377 77.782 168.794 77.782 169.315C77.7686 169.526 77.6842 169.721 77.5472 169.86C77.4102 169.998 77.2316 170.069 77.0501 170.056H75.5377V175.686H77.0699C77.2463 175.672 77.4205 175.739 77.554 175.874C77.6875 176.008 77.7695 176.199 77.782 176.404Z" fill="#1D1E40"/>
<path d="M75.5341 175.69L31.7275 176.585V171.236L75.5341 169.997V175.69Z" fill="white"/>
<path d="M38.6528 172.766L75.5342 171.678" stroke="#5B5B5B" stroke-width="1.85" stroke-linecap="round" stroke-linejoin="round"/>
<path d="M37.5054 174.646L75.3542 173.53" stroke="#5B5B5B" stroke-width="1.85" stroke-linecap="round" stroke-linejoin="round"/>
<path d="M16.3574 165.084V169.793L31.7275 176.585V171.236L16.3574 165.084Z" fill="white"/>
<path d="M18.5566 169.476L31.7274 175.536" stroke="#5B5B5B" stroke-width="1.85" stroke-linecap="round" stroke-linejoin="round"/>
<path d="M21.4109 169.476L31.7277 174.086" stroke="#5B5B5B" stroke-width="1.85" stroke-linecap="round" stroke-linejoin="round"/>
<path d="M19.8535 166.942L31.7277 172.223" stroke="#5B5B5B" stroke-width="1.85" stroke-linecap="round" stroke-linejoin="round"/>
<path d="M72.9426 168.316L27.3342 168.748L11.3203 162.112V151.424H45.1913L72.4967 154.892C73.0092 154.892 73.421 155.545 73.421 156.352C73.421 156.978 73.0919 157.501 72.6891 157.501H71.1767V166.26H72.7089C74.027 166.514 73.9641 168.141 72.9426 168.316Z" fill="#FCCA5F"/>
<path d="M71.1767 157.412H27.8862V166.26H71.1767V157.412Z" fill="white"/>
<path d="M49.9153 159.674L70.9932 160.027" stroke="#5B5B5B" stroke-width="1.85" stroke-linecap="round" stroke-linejoin="round"/>
<path d="M33.1443 162.901H70.9931" stroke="#5B5B5B" stroke-width="1.85" stroke-linecap="round" stroke-linejoin="round"/>
<path d="M11.9966 152.004L26.9351 157.086" stroke="#93242A" stroke-width="1.39" stroke-linecap="round" stroke-linejoin="round"/>
<path d="M11.9966 161.511L26.2769 167.367" stroke="#93242A" stroke-width="1.39" stroke-linecap="round" stroke-linejoin="round"/>
<path d="M47.8257 164.731H71.173" stroke="#5B5B5B" stroke-width="1.85" stroke-linecap="round" stroke-linejoin="round"/>
<path d="M68.3712 153.863V154.006C68.3689 154.244 68.2855 154.471 68.1393 154.638C67.9931 154.805 67.7959 154.898 67.5908 154.897H20.5976L3.9939 149.913V141.886H39.1057L67.4073 144.491C67.6593 144.488 67.902 144.601 68.082 144.806C68.2621 145.01 68.3648 145.289 68.3676 145.581C68.3679 145.697 68.3483 145.811 68.3101 145.918C68.2718 146.024 68.2156 146.121 68.1448 146.202C68.074 146.283 67.99 146.347 67.8977 146.39C67.8053 146.433 67.7065 146.455 67.607 146.453H66.037V153.035H67.6231C67.8166 153.031 68.0034 153.116 68.1433 153.271C68.2833 153.426 68.3651 153.638 68.3712 153.863Z" fill="#565697"/>
<path d="M66.0424 146.384H21.1694V153.03H66.0424V146.384Z" fill="white"/>
<path d="M41.0283 148.347H66.147" stroke="#5B5B5B" stroke-width="1.85" stroke-linecap="round" stroke-linejoin="round"/>
<path d="M26.6257 150.507H65.8574" stroke="#5B5B5B" stroke-width="1.85" stroke-linecap="round" stroke-linejoin="round"/>
<path d="M4.70264 142.318L20.1896 146.141" stroke="#1D1E40" stroke-width="1.85" stroke-linecap="round" stroke-linejoin="round"/>
<path d="M4.70264 149.462L19.5044 153.858" stroke="#1D1E40" stroke-width="1.85" stroke-linecap="round" stroke-linejoin="round"/>
<path d="M32.6694 139.367V144.491H36.9494V141.928L40.4543 144.491H49.9151L41.3067 139.313L32.6694 139.367Z" fill="#9D4E49"/>
<path d="M32.6694 139.353V144.474H36.9494V141.913L40.4543 144.474H49.9151L41.3067 139.298L32.6694 139.353Z" fill="#9D4E49"/>
<path d="M46.7288 140.15V144.49H50.4548V141.843L54.8409 144.49H64.1309L56.2544 140.15H46.7288Z" fill="#9D4E49"/>
<path d="M32.6694 143.502H36.8271" stroke="#4C1C17" stroke-width="1.85" stroke-linecap="round" stroke-linejoin="round"/>
<path d="M39.2012 143.502H46.7289" stroke="#4C1C17" stroke-width="1.85" stroke-linecap="round" stroke-linejoin="round"/>
<path d="M50.453 143.502H46.7288" stroke="#4C1C17" stroke-width="1.85" stroke-linecap="round" stroke-linejoin="round"/>
<path d="M62.1492 143.502H53.3843" stroke="#4C1C17" stroke-width="1.85" stroke-linecap="round" stroke-linejoin="round"/>
<path d="M29.5748 84.37C29.5748 84.37 30.8623 127.638 30.1142 132.347C29.3661 137.056 28.3843 139.934 28.3843 139.934L44.1913 140.196L39.2118 112.285L35.4894 92.5135C34.2897 91.6513 33.2001 90.5984 32.2524 89.3854C31.0808 87.9316 30.1683 86.2236 29.5676 84.3596" fill="#55957C"/>
<path d="M29.5748 84.3239C29.5748 84.3239 30.8623 127.59 30.1142 132.301C29.3661 137.012 28.3843 139.887 28.3843 139.887L44.1949 140.15L39.2118 112.239L35.4894 92.4674C34.2902 91.6084 33.2007 90.559 32.2524 89.3497C31.0808 87.8959 30.1683 86.1879 29.5676 84.3239" fill="#E59666"/>
<path d="M31.391 90.3758C31.391 90.3758 40.3825 138.28 44.1931 140.196H58.6892C58.6892 140.196 50.9889 127.907 47.6998 111.305C46.7287 106.4 44.1931 92.9534 44.1931 92.9534L30.3462 82.7078L31.391 90.3758Z" fill="#FCC95F"/>
<path d="M39.8359 94.3837C39.8359 94.3837 42.3643 107.478 43.4595 112.285C45.6337 121.844 50.2373 137.314 54.4795 140.196" stroke="white" stroke-width="1.39" stroke-linecap="round" stroke-linejoin="round"/>
<path d="M49.1997 55.737C49.1997 55.737 47.9265 57.6701 48.3778 59.1132C48.9173 60.8149 42.9542 57.5659 44.5097 56.6858C45.5135 56.1012 46.4529 55.3786 47.3078 54.5337L49.1997 55.737Z" fill="#EFB6AB"/>
<path opacity="0.64" d="M47.4336 52.6757L48.4748 57.2281L50.2605 53.2387L47.4336 52.6757Z" fill="#EFB6AB"/>
<path d="M56.8462 66.9212C57.0638 66.1767 58.56 65.3509 59.6749 67.7429C60.7899 70.1348 60.2288 70.9857 59.6102 70.8043C58.9916 70.6228 58.5528 70.2641 58.2705 69.382C58.0916 68.7967 57.7737 68.2819 57.3533 67.8972C57.3533 67.8972 56.6376 67.6615 56.8462 66.9212Z" fill="#EFB6AB"/>
<path d="M48.2949 59.4908C48.2949 59.4908 54.4685 57.4742 56.3243 55.7725C58.1802 54.0708 62.2587 45.5832 63.7981 44.626C65.3374 43.6688 66.5297 43.7314 68.4377 45.0431C70.3457 46.3548 71.119 50.1232 68.747 53.2888C66.375 56.4545 61.2733 60.9506 61.2733 60.9506L50.2605 69.3777C50.2605 69.3777 51.005 64.4165 48.2949 59.4908Z" fill="#E55558"/>
<path d="M40.7115 58.8484C40.7115 58.8484 38.2532 61.2779 37.5753 68.0409C36.9117 74.7559 30.0026 80.2217 29.3031 80.0361C28.6035 79.8505 29.1826 95.1636 42.2886 93.4015C49.9745 92.3588 47.6997 84.3675 47.6997 84.3675C47.6997 84.3675 51.9275 84.9389 55.1662 78.4095C57.9572 72.7789 58.3834 71.9176 58.6801 70.4558C59.0092 68.8229 57.6155 66.139 54.4181 67.1024C53.2834 67.4465 50.8071 70.6289 50.8071 70.6289C50.9618 70.193 50.9492 61.9932 48.2895 59.4928C46.9264 59.4928 46.7196 59.1195 45.1461 58.1936C43.3424 57.13 40.7115 58.8484 40.7115 58.8484Z" fill="#E55558"/>
<path d="M46.9262 53.9373C46.9262 53.9373 48.1994 56.6984 50.9832 55.4534C53.2383 53.9498 53.0764 52.0813 53.4325 51.0219C53.7981 50.8236 54.1493 50.5914 54.4827 50.3275C54.5537 50.2708 54.6069 50.1889 54.6345 50.0942C54.662 49.9995 54.6624 49.8969 54.6355 49.8019C54.542 49.462 54.1896 48.9073 53.7274 48.3422C53.6285 45.8918 52.8498 44.8595 52.8498 44.8595C52.8498 44.8595 50.5552 42.2861 48.5339 45.4539C46.5126 48.6216 46.9262 53.9373 46.9262 53.9373Z" fill="#EFB6AB"/>
<path d="M52.9366 49.394C53.0328 49.0855 52.9943 48.7865 52.8505 48.7261C52.7068 48.6658 52.5122 48.8671 52.416 49.1756C52.3197 49.4842 52.3582 49.7832 52.502 49.8435C52.6458 49.9038 52.8404 49.7026 52.9366 49.394Z" fill="black"/>
<path d="M51.9006 48.4087C51.9006 48.4087 52.2225 47.3806 52.9419 47.366" stroke="#91461C" stroke-width="1.85" stroke-linecap="round" stroke-linejoin="round"/>
<path d="M52.217 51.453C52.217 51.453 52.422 52.1787 52.8518 52.0307" stroke="#4C1C17" stroke-width="1.85" stroke-linecap="round" stroke-linejoin="round"/>
<path d="M50.1815 46.2461C50.1815 46.2461 51.782 53.0257 46.5058 57.2591C41.2296 61.4925 38.4404 57.3821 38.1868 56.0579C37.9333 54.7337 37.7211 52.9486 39.1507 51.7495C40.5804 50.5504 42.1143 47.612 42.1143 45.6246C42.1143 43.6372 47.4445 42.2567 48.5109 41.5101C49.5773 40.7635 54.3392 37.1433 55.6429 40.7802C57.1859 45.0845 53.7637 46.0521 52.3197 46.0521C50.8756 46.0521 50.6167 45.5746 50.1815 46.2461Z" fill="#9D4E49"/>
<path d="M51.0517 40.0964C51.0517 40.0964 52.7817 39.3478 53.4075 40.9306C54.0926 42.6531 53.1737 44.8303 50.1112 45.7583C50.1112 45.7583 52.8194 43.969 51.6775 42.0046C50.7784 40.4655 48.0593 41.9399 48.0593 41.9399" stroke="#772220" stroke-width="1.39" stroke-linecap="round" stroke-linejoin="round"/>
<path d="M39.0676 57.4237C39.0676 57.4237 46.5755 59.8803 49.9743 46.052C49.9743 46.052 46.6816 56.6876 38.3896 56.1704" stroke="#772220" stroke-width="1.39" stroke-linecap="round" stroke-linejoin="round"/>
<path d="M42.3839 66.9209C42.3839 66.9209 43.3316 69.8717 42.3839 74.956C41.4362 80.0402 44.7091 84.3903 47.6997 84.3737" stroke="#93242A" stroke-width="1.39" stroke-linecap="round" stroke-linejoin="round"/>
<path d="M46.4951 59.2343C48.122 61.7693 48.9308 64.8857 48.7808 68.0409C48.6009 71.8551 48.6009 73.4442 48.6009 73.4442L50.6564 70.8145" stroke="#93242A" stroke-width="1.39" stroke-linecap="round" stroke-linejoin="round"/>
<path d="M46.9355 78.259C47.0108 76.4881 47.5988 74.7982 48.6044 73.4626" stroke="#93242A" stroke-width="1.39" stroke-linecap="round" stroke-linejoin="round"/>
<path d="M52.9417 61.1732C52.9417 61.1732 54.4109 60.7686 58.493 52.9796" stroke="#93242A" stroke-width="1.39" stroke-linecap="round" stroke-linejoin="round"/>
<path d="M49.613 61.1731C50.4702 63.5436 50.8892 66.0961 50.8431 68.666" stroke="#93242A" stroke-width="1.39" stroke-linecap="round" stroke-linejoin="round"/>
<path d="M130.501 65.8455C130.501 65.8455 138.953 50.6221 140.714 44.101C142.474 37.58 144.438 33.3049 144.438 33.3049C144.438 33.3049 146.846 34.3476 147.878 41.8154C148.91 49.2833 145.432 59.8855 145.432 59.8855L142.086 69.8558C142.086 69.8558 131.659 67.9852 130.501 65.8455Z" fill="white"/>
<path d="M135.687 71.0904C135.687 71.0904 135.52 68.3293 136.373 68.5566C137.225 68.7839 138.831 68.7381 138.099 69.5368C137.202 70.5086 135.687 71.0904 135.687 71.0904Z" fill="#EFB6AB"/>
<path d="M146.873 29.5869L144.442 33.3052C144.442 33.3052 146.048 57.1518 146.355 63.9607C146.663 70.7695 146.29 86.6582 146.29 86.6582C146.29 86.6582 155.118 82.0015 157.094 82.4332C159.071 82.8649 150.441 30.2376 150.441 30.2376L146.873 29.5869Z" fill="white"/>
<path d="M144.442 36.8812C144.442 36.8812 146.49 47.8171 146.012 57.7353" stroke="#1D1E40" stroke-width="1.39" stroke-linecap="round" stroke-linejoin="round"/>
<path d="M148.173 126.314L140.899 131.893L143.855 132.124L152.036 129.219L151.297 125.778L148.173 126.314Z" fill="#1D1E40"/>
<path opacity="0.76" d="M148.247 126.314L140.973 131.893L143.929 132.124L152.108 129.219L151.37 125.778L148.247 126.314Z" fill="#1D1E40"/>
<path d="M142.237 132.124L149.43 126.91C149.43 126.91 155.463 127.342 156.084 126.91C156.704 126.479 155.145 131.778 155.145 131.778L153.55 131.765L153.174 129.838L151.496 132.132H142.237V132.124Z" fill="#1D1E40"/>
<path d="M146.873 125.868C146.873 125.868 154.221 88.4783 151.408 64.2522C149.941 51.5959 157.386 67.4303 157.386 67.4303L158.952 96.7094L154.316 125.87C154.316 125.87 148.991 127.094 146.873 125.868Z" fill="#565697"/>
<path d="M148.392 31.561L156.922 42.23C156.922 42.23 155.352 64.6105 153.865 64.7961C152.377 64.9817 149.189 66.3623 149.515 62.1831C149.84 58.004 146.93 40.6638 146.229 36.4868C145.528 32.3097 145.916 32.658 146.229 31.5652C146.218 31.561 146.341 33.2148 148.392 31.561Z" fill="#1D1E40"/>
<path d="M143.37 26.3979C143.37 26.3979 146.218 31.8367 146.75 32.3226C147.283 32.8085 149.291 30.8336 149.737 30.0891C150.183 29.3446 150.435 27.8202 150.435 27.8202C150.435 27.8202 147.142 25.4991 146.912 22.9654C146.682 20.4316 142.805 25.3323 143.37 26.3979Z" fill="#EFB6AB"/>
<path d="M138.874 16.9823C138.874 16.9823 138.525 24.0393 141.201 26.2081C143.877 28.377 145.898 24.9924 145.898 24.9924C145.898 24.9924 147.108 23.1614 147.516 21.908C148.079 20.1688 145.864 14.4673 145.164 13.7916C144.465 13.116 139.027 14.9991 138.874 16.9823Z" fill="#EFB6AB"/>
<path d="M139.1 20.2857C139.1 20.2857 137.649 22.636 138.527 23.3325C139.172 23.8455 139.739 23.1239 139.739 23.1239" fill="#EFB6AB"/>
<path d="M140.19 24.0951C140.19 24.0951 141.125 24.5872 141.204 23.2755L140.19 24.0951Z" fill="#EFB6AB"/>
<path d="M140.19 24.0951C140.19 24.0951 141.125 24.5872 141.204 23.2755" stroke="#3A130D" stroke-width="1.85" stroke-linecap="round" stroke-linejoin="round"/>
<path d="M139.482 19.0928C139.482 19.0928 139.994 18.4671 140.507 19.2387" stroke="#1D1E40" stroke-width="1.85" stroke-linecap="round" stroke-linejoin="round"/>
<path d="M140.101 20.56C140.257 20.5074 140.324 20.2309 140.251 19.9423C140.179 19.6537 139.994 19.4624 139.839 19.5149C139.683 19.5675 139.616 19.844 139.689 20.1326C139.761 20.4212 139.946 20.6125 140.101 20.56Z" fill="black"/>
<path d="M144.923 19.4701C144.923 19.4701 145.083 18.027 146.085 18.3273C147.087 18.6276 147.175 20.5837 146.085 21.1635C145.35 23.0403 147.428 23.9245 148.047 23.6326C148.631 23.3531 148.845 22.7984 148.61 21.9038C148.374 21.0091 147.73 18.4983 148.696 16.4254C149.662 14.3525 148.326 12.2546 148.326 12.2546C148.326 12.2546 145.4 12.7092 142.598 11.3641C139.796 10.0191 136.96 12.8948 136.901 14.7008C136.844 16.4776 137.509 17.489 139.313 17.5849C140.789 17.6662 141.708 16.6486 142.089 16.3003C142.35 16.0647 143.616 15.6747 143.87 17.2492C144.123 18.8236 144.096 20.0519 144.923 19.4701Z" fill="#1D1E40"/>
<path d="M146.193 19.9643C146.126 19.9026 146.048 19.859 145.965 19.8366C145.881 19.8143 145.795 19.8138 145.711 19.8352C145.628 19.8566 145.549 19.8993 145.482 19.9602C145.414 20.0211 145.359 20.0988 145.321 20.1874C145.321 20.1874 145.395 19.0676 145.893 19.0446" fill="#EFB6AB"/>
<path d="M146.193 19.9643C146.126 19.9026 146.048 19.859 145.965 19.8366C145.881 19.8143 145.795 19.8138 145.711 19.8352C145.628 19.8566 145.549 19.8993 145.482 19.9602C145.414 20.0211 145.359 20.0988 145.321 20.1874C145.321 20.1874 145.395 19.0676 145.893 19.0446" stroke="#3A130D" stroke-width="1.39" stroke-linecap="round" stroke-linejoin="round"/>
<path opacity="0.64" d="M146.081 22.3211C146.081 22.3211 146.195 26.2438 145.067 27.3261C144.79 27.5931 144.442 27.7405 144.082 27.7432C143.968 27.5346 143.611 26.8527 143.611 26.8527C143.611 26.8527 145.452 25.9685 146.081 22.3211Z" fill="#EFB6AB"/>
<path d="M154.949 90.052C154.949 90.052 152.503 110.823 150.913 118.295C149.324 125.767 148.768 127.053 148.768 127.053C148.768 127.053 153.478 128.198 156.918 127.053C158.957 126.374 166.411 87.8164 166.411 87.8164L154.949 90.052Z" fill="#565697"/>
<path d="M155.364 83.6145C155.364 83.6145 155.517 96.1123 148.761 127.043" stroke="white" stroke-width="1.39" stroke-linecap="round" stroke-linejoin="round"/>
<path d="M150.047 27.5278L148.392 28.654L147.112 33.5213C147.112 33.5213 150.491 46.8825 151.669 51.7498C152.847 56.6172 153.153 72.9501 153.153 72.9501V90.8241C153.153 90.8241 160.218 94.2066 164.98 93.7311C169.742 93.2557 171.893 90.9388 171.893 90.9388C171.893 90.9388 168.296 65.4363 167.641 61.9641C166.987 58.4919 162.47 40.5866 160.22 36.4909C157.97 32.3952 155.3 29.4673 152.18 28.0596C151.492 27.7761 150.775 27.5973 150.047 27.5278Z" fill="white"/>
<path d="M154.949 64.2516L156.014 74.2407C156.014 74.2407 158.191 76.9517 162.399 73.8236C161.637 68.8291 160.979 65.8323 160.979 65.8323C160.979 65.8323 158.344 67.484 154.949 64.2516Z" stroke="#1D1E40" stroke-width="1.39" stroke-linecap="round" stroke-linejoin="round"/>
<path d="M136.658 95.8694L166.411 197.65" stroke="black" stroke-width="5.55" stroke-linecap="round" stroke-linejoin="round"/>
<path d="M133.797 35.8705L134.971 37.6681L134.743 39.8599L132.664 40.5543L131.463 39.0299L131.686 36.5774C131.686 36.5774 129.708 38.2791 130.711 40.8504C131.573 43.0651 133.831 42.8608 134.579 42.4708C135.327 42.0808 136.662 41.205 136.518 39.0549C136.388 37.0675 135.135 36.1729 133.797 35.8705Z" fill="#75778C"/>
<path d="M134.669 48.0636L133.04 41.92C133.04 41.92 134.333 42.2662 135.315 41.2714C135.826 43.2275 136.737 45.997 136.737 45.997C136.737 45.997 138.248 49.0667 134.669 48.0636Z" fill="#75778E"/>
<path d="M138.725 52.6117L139.744 56.3633L141.485 57.2329L142.285 59.0055L140.942 61.6957L140.832 59.4122L139.768 58.1192L138.248 58.7991L137.998 60.4382L139.208 62.2462L136.721 61.4288L136.405 59.1494L137.27 56.9743L135.687 51.5815" fill="#75778E"/>
<path d="M140.798 45.8966C140.798 45.8966 149.343 47.4378 150.075 47.1875C150.807 46.9373 150.922 47.4357 150.922 47.4357C150.922 47.4357 149.192 37.3715 149.818 33.7992C150.444 30.2269 154.134 31.0652 156.641 35.3424C157.9 37.4945 158.916 46.1865 158.916 46.1865C158.916 46.1865 159.401 54.4948 157.398 56.038C155.395 57.5812 144.321 58.676 142.371 57.5311C140.422 56.3862 140.114 51.5669 140.114 51.5669C140.114 51.5669 139.755 46.393 140.798 45.8966Z" fill="white"/>
<path d="M154.663 49.0645C154.663 49.0645 152.161 46.3994 150.886 47.2586" stroke="#1D1E40" stroke-width="1.39" stroke-linecap="round" stroke-linejoin="round"/>
<path d="M141.739 57.0702C142.297 56.9915 142.491 54.4596 142.172 51.4149C141.853 48.3703 141.142 45.9658 140.584 46.0445C140.026 46.1231 139.832 48.6551 140.151 51.6998C140.47 54.7444 141.181 57.1489 141.739 57.0702Z" fill="#565697"/>
<path d="M136.737 45.997C136.737 45.997 137.892 47.999 135.89 48.0824C133.889 48.1658 133.821 47.6945 133.957 48.708C134.094 49.7216 134.565 49.2982 134.838 49.7299C135.112 50.1616 135.245 51.1501 135.687 51.5817C136.107 52.0106 136.571 52.3796 137.066 52.6807C137.446 52.8768 139.212 52.5223 139.552 52.4847C139.892 52.4472 140.127 51.9738 140.127 51.9738L142.256 52.4013C142.256 52.4013 141.96 49.7132 141.823 49.0647C141.686 48.4161 141.104 49.0334 140.053 47.4359C139.003 45.8385 136.737 45.997 136.737 45.997Z" fill="#EFB6AB"/>
<path d="M157.972 38.3575C157.972 38.3575 159.934 47.2914 158.61 53.1785C157.769 56.9114 152.428 57.4703 152.428 57.4703C152.428 57.4703 147.659 58.4775 141.737 57.0803" stroke="#1D1E40" stroke-width="1.39" stroke-linecap="round" stroke-linejoin="round"/>
<path d="M140.581 46.0532C140.581 46.0532 150.043 46.8018 150.914 47.4358C151.925 48.184 152.763 49.2069 153.356 50.4158" stroke="#1D1E40" stroke-width="1.39" stroke-linecap="round" stroke-linejoin="round"/>
<path d="M150.431 39.2928C150.431 39.2928 150.534 45.2049 150.913 47.4363" stroke="#1D1E40" stroke-width="1.39" stroke-linecap="round" stroke-linejoin="round"/>
<path d="M76.4513 42.2204V40.8274L75.1602 40.1329L75.0037 38.9964L76.0827 37.7451L75.6835 36.6086L74.2448 36.8651L73.4823 35.983L73.9913 34.1895L73.04 33.4012L71.8729 34.4815L70.9216 33.9685L70.6698 32.5379L69.375 32.3189L68.8355 33.9685H67.7871L66.9941 32.761L65.7946 33.274L65.9169 34.9611L65.1976 35.6597L63.9046 35.1467L63.1115 36.2499L63.9639 37.7493L63.6187 38.7753L62.1351 38.9568L62.011 40.3873L63.4748 41.1214V42.2976L62.3958 43.359L62.9047 44.7166L64.3578 44.4956L65.0231 45.4486L64.5484 46.9084L65.5896 47.7926L66.7081 46.7291L67.6271 47.388L67.7835 48.8895H69.2366L69.7455 47.388H70.6932L71.6121 48.5267L72.7486 47.8677L72.5256 46.4079L73.254 45.7135L74.7376 46.0826L75.4029 44.8772L74.5811 43.6656L74.9911 42.4915L76.4513 42.2204ZM69.2258 43.7365C68.6923 43.7365 68.1707 43.553 67.7271 43.2093C67.2835 42.8656 66.9378 42.3771 66.7336 41.8055C66.5295 41.2339 66.4761 40.6049 66.5801 39.9981C66.6842 39.3913 66.9411 38.834 67.3184 38.3965C67.6956 37.959 68.1763 37.6611 68.6995 37.5404C69.2228 37.4197 69.7651 37.4816 70.258 37.7184C70.7509 37.9552 71.1722 38.3561 71.4686 38.8705C71.765 39.3849 71.9232 39.9897 71.9232 40.6084C71.9232 41.438 71.639 42.2337 71.1332 42.8203C70.6273 43.4069 69.9412 43.7365 69.2258 43.7365Z" fill="#565697"/>
<path d="M67.0281 41.6759C67.0281 41.6759 65.9797 43.8238 67.1108 44.7164C68.2419 45.6089 69.2939 44.585 69.7561 44.0324C70.2183 43.4797 70.0816 42.802 69.5619 42.3057C69.0422 41.8093 67.3248 40.8584 67.0281 41.6759Z" fill="#EFB6AB"/>
<path d="M94.1592 59.4394C92.4644 59.4394 90.8076 60.0222 89.3984 61.1142C87.9892 62.2062 86.8909 63.7583 86.2424 65.5741C85.5939 67.39 85.4243 69.3881 85.7551 71.3157C86.0859 73.2434 86.9022 75.014 88.1007 76.4036C89.2993 77.7932 90.8263 78.7394 92.4886 79.1226C94.151 79.5058 95.8739 79.3087 97.4397 78.5563C99.0054 77.8039 100.344 76.5299 101.285 74.8955C102.226 73.2611 102.728 71.3397 102.728 69.3743C102.728 68.0694 102.507 66.7772 102.076 65.5715C101.646 64.3659 101.015 63.2705 100.219 62.3479C99.423 61.4253 98.4783 60.6935 97.4386 60.1945C96.3988 59.6954 95.2845 59.4388 94.1592 59.4394ZM94.2689 74.4856C93.3972 74.4856 92.545 74.1858 91.8202 73.6242C91.0953 73.0625 90.5304 72.2643 90.1968 71.3303C89.8632 70.3963 89.7759 69.3686 89.946 68.3771C90.1161 67.3856 90.5358 66.4748 91.1523 65.76C91.7687 65.0452 92.554 64.5584 93.409 64.3611C94.264 64.1639 95.1503 64.2652 95.9557 64.652C96.7611 65.0389 97.4494 65.694 97.9337 66.5346C98.4181 67.3751 98.6766 68.3633 98.6766 69.3743C98.6768 70.0456 98.563 70.7104 98.3415 71.3306C98.1201 71.9509 97.7955 72.5144 97.3861 72.9891C96.9768 73.4638 96.4908 73.8403 95.9559 74.0971C95.4211 74.3538 94.8478 74.4859 94.2689 74.4856Z" fill="#A3A3A3"/>
<path d="M108.445 68.8761V66.6865L106.231 65.8523L105.838 64.3591L107.17 62.1111L106.271 60.3677L104.216 60.693L102.935 59.1456L103.494 57.1478L101.955 55.4691L99.7863 56.8246L98.2902 55.7089V53.538L96.3894 53.0271L95.1108 55.2167H93.5444L92.1058 52.7872L90.3453 53.3274L89.946 56.1197L88.7232 56.7599L86.6659 55.1479L85.1068 56.3095L85.7165 59.0831L84.4954 60.6284L82.5497 60.1779L81.379 62.0443L82.8751 64.2882L82.2655 66.1651L80.0968 66.5467L79.8738 68.8031L81.9292 70.0064V72.0918L80.4259 73.3848L80.8197 75.5745L83.2672 75.7684L84.098 77.2532L83.0442 79.5117L84.2113 81.5742L86.4897 80.3459L87.8834 82.0246L87.4914 84.1496L89.4929 85.1173L91.1599 83.3092L92.8269 83.7638L93.3844 85.9535H95.2744L96.1628 83.3739L97.7812 83.1153L99.4375 85.2507L101.072 84.3478L100.772 81.5095L102.117 80.3459L104.228 81.5074L105.528 79.764L104.449 77.5076L105.528 75.3826L107.958 75.758L108.445 73.5662L106.393 72.0814L106.674 69.996L108.445 68.8761ZM94.2692 80.4918C92.3722 80.4927 90.5177 79.8411 88.9401 78.6196C87.3625 77.398 86.1327 75.6614 85.4063 73.6293C84.6799 71.5972 84.4894 69.3609 84.8591 67.2032C85.2287 65.0456 86.1418 63.0636 87.4829 61.5078C88.824 59.952 90.5328 58.8924 92.3933 58.4629C94.2537 58.0334 96.1822 58.2534 97.9348 59.0951C99.6874 59.9367 101.185 61.3622 102.239 63.1912C103.293 65.0202 103.856 67.1706 103.856 69.3704C103.856 70.8309 103.609 72.2772 103.127 73.6267C102.646 74.9762 101.94 76.2026 101.05 77.2357C100.159 78.2688 99.1023 79.0884 97.939 79.6478C96.7756 80.2073 95.5286 80.4955 94.2692 80.496V80.4918Z" fill="#565697"/>
<path d="M94.1592 59.4394C92.4644 59.4394 90.8076 60.0222 89.3984 61.1142C87.9892 62.2062 86.8909 63.7583 86.2424 65.5741C85.5939 67.39 85.4243 69.3881 85.7551 71.3157C86.0859 73.2434 86.9022 75.014 88.1007 76.4036C89.2993 77.7932 90.8263 78.7394 92.4886 79.1226C94.151 79.5058 95.8739 79.3087 97.4397 78.5563C99.0054 77.8039 100.344 76.5299 101.285 74.8955C102.226 73.2611 102.728 71.3397 102.728 69.3743C102.728 68.0694 102.507 66.7772 102.076 65.5715C101.646 64.3659 101.015 63.2705 100.219 62.3479C99.423 61.4253 98.4783 60.6935 97.4386 60.1945C96.3988 59.6954 95.2845 59.4388 94.1592 59.4394ZM94.2689 74.4856C93.3972 74.4856 92.545 74.1858 91.8202 73.6242C91.0953 73.0625 90.5304 72.2643 90.1968 71.3303C89.8632 70.3963 89.7759 69.3686 89.946 68.3771C90.1161 67.3856 90.5358 66.4748 91.1523 65.76C91.7687 65.0452 92.554 64.5584 93.409 64.3611C94.264 64.1639 95.1503 64.2652 95.9557 64.652C96.7611 65.0389 97.4494 65.694 97.9337 66.5346C98.4181 67.3751 98.6766 68.3633 98.6766 69.3743C98.6768 70.0456 98.563 70.7104 98.3415 71.3306C98.1201 71.9509 97.7955 72.5144 97.3861 72.9891C96.9768 73.4638 96.4908 73.8403 95.9559 74.0971C95.4211 74.3538 94.8478 74.4859 94.2689 74.4856Z" fill="#A3A3A3"/>
<path d="M94.1592 59.4394C92.4644 59.4394 90.8076 60.0222 89.3984 61.1142C87.9892 62.2062 86.8909 63.7583 86.2424 65.5741C85.5939 67.39 85.4243 69.3881 85.7551 71.3157C86.0859 73.2434 86.9022 75.014 88.1007 76.4036C89.2993 77.7932 90.8263 78.7394 92.4886 79.1226C94.151 79.5058 95.8739 79.3087 97.4397 78.5563C99.0054 77.8039 100.344 76.5299 101.285 74.8955C102.226 73.2611 102.728 71.3397 102.728 69.3743C102.728 68.0694 102.507 66.7772 102.076 65.5715C101.646 64.3659 101.015 63.2705 100.219 62.3479C99.423 61.4253 98.4783 60.6935 97.4386 60.1945C96.3988 59.6954 95.2845 59.4388 94.1592 59.4394ZM94.2689 74.4856C93.3972 74.4856 92.545 74.1858 91.8202 73.6242C91.0953 73.0625 90.5304 72.2643 90.1968 71.3303C89.8632 70.3963 89.7759 69.3686 89.946 68.3771C90.1161 67.3856 90.5358 66.4748 91.1523 65.76C91.7687 65.0452 92.554 64.5584 93.409 64.3611C94.264 64.1639 95.1503 64.2652 95.9557 64.652C96.7611 65.0389 97.4494 65.694 97.9337 66.5346C98.4181 67.3751 98.6766 68.3633 98.6766 69.3743C98.6768 70.0456 98.563 70.7104 98.3415 71.3306C98.1201 71.9509 97.7955 72.5144 97.3861 72.9891C96.9768 73.4638 96.4908 73.8403 95.9559 74.0971C95.4211 74.3538 94.8478 74.4859 94.2689 74.4856Z" fill="#565697"/>
<path d="M85.2955 74.0578L85.0995 72.3436L86.6496 70.8838L85.9483 69.007L83.9881 69.5012L82.875 68.3521L83.0728 66.0269L81.4993 65.493L80.4077 67.5159H79.0086L77.7498 65.8288L76.1997 66.6129L76.6618 68.8881L75.6908 70.0955L73.6083 69.8682L73.0688 71.889L74.9589 72.988L74.9355 74.6125L73.317 75.9576L74.1892 77.9533L76.1008 77.3673L77.1654 78.458L76.8758 80.7019L78.6184 81.4089L79.6362 79.4152L81.0137 79.4423L82.3481 81.1544L83.8712 80.2285L83.4576 78.0096L84.4305 76.8564L86.3655 77.0274L86.8744 75.1714L85.2955 74.0578ZM79.9635 75.9931C79.53 75.9931 79.1061 75.844 78.7457 75.5646C78.3852 75.2853 78.1042 74.8883 77.9383 74.4238C77.7724 73.9593 77.7289 73.4481 77.8135 72.955C77.8981 72.4619 78.1069 72.0089 78.4135 71.6534C78.72 71.2979 79.1106 71.0558 79.5359 70.9577C79.9611 70.8596 80.4019 70.9099 80.8024 71.1023C81.203 71.2948 81.5453 71.6206 81.7862 72.0386C82.0271 72.4567 82.1557 72.9482 82.1557 73.451C82.1557 73.7848 82.099 74.1154 81.9888 74.4238C81.8786 74.7322 81.7172 75.0124 81.5136 75.2485C81.31 75.4846 81.0684 75.6718 80.8024 75.7996C80.5365 75.9273 80.2514 75.9931 79.9635 75.9931Z" fill="#75778C"/>
<path d="M118.337 73.5282V71.9433L116.857 71.1487L116.678 69.8516L117.906 68.4294L117.449 67.1343L115.816 67.4263L114.948 66.419L115.527 64.3753L114.448 63.4765L113.104 64.7048L112.025 64.1188L111.738 62.4901L110.259 62.2399L109.648 64.1167H108.461L107.562 62.7404L106.195 63.3264L106.339 65.247L105.51 66.0457L104.034 65.4576L103.135 66.7089L104.106 68.421L103.71 69.5888L102.016 69.7974L101.874 71.4303L103.539 72.2644V73.6032L102.302 74.8128L102.881 76.3602L104.537 76.1099L105.296 77.1985L104.757 78.8668L105.944 79.8741L107.24 78.6604L108.289 79.4153L108.468 81.1274H110.125L110.704 79.4153H111.783L112.829 80.7124L114.128 79.9554L113.874 78.2871L114.703 77.4925L116.395 77.9096L117.154 76.5332L116.215 75.1506L116.681 73.816L118.337 73.5282ZM110.105 75.2611C109.496 75.2611 108.901 75.0519 108.395 74.6598C107.889 74.2677 107.495 73.7105 107.262 73.0585C107.029 72.4065 106.968 71.6891 107.087 70.9969C107.206 70.3048 107.499 69.669 107.929 69.17C108.359 68.671 108.908 68.3311 109.505 68.1934C110.101 68.0558 110.72 68.1264 111.282 68.3965C111.845 68.6666 112.325 69.1239 112.663 69.7107C113.001 70.2974 113.182 70.9873 113.182 71.693C113.182 72.1617 113.103 72.6258 112.948 73.0588C112.793 73.4918 112.567 73.8853 112.281 74.2167C111.995 74.5481 111.656 74.8109 111.283 74.9901C110.909 75.1693 110.509 75.2614 110.105 75.2611Z" fill="#EDE4DD"/>
</svg>
