<svg width="906" height="655" viewBox="0 0 906 655" fill="none" xmlns="http://www.w3.org/2000/svg">
<path d="M709.19 647.593C697.335 635.741 690.134 617.018 692.023 598.791C693.911 580.565 705.608 563.809 720.78 559.938C735.952 556.067 753.248 566.782 757.856 584.317C760.392 550.51 763.315 515.286 778.507 486.496C792.263 460.428 816.088 441.775 841.91 438.438C867.731 435.101 894.918 447.704 911.022 471.817C927.126 495.93 931.069 530.985 919.79 558.668C911.481 579.062 896.174 594.239 880.135 606.586C828.309 646.149 766.151 662.237 705.096 651.892L709.19 647.593Z" fill="#F2F2F2"/>
<path d="M885.487 448.403C864.181 468.935 844.635 491.898 827.132 516.961C799.739 556.05 777.573 599.875 761.405 646.911C760.221 650.342 764.931 651.836 766.101 648.443C792.555 572 834.786 504.624 888.931 452.477C891.362 450.135 887.899 446.08 885.487 448.403Z" fill="white"/>
<path d="M298.318 644.373C314.601 628.094 324.491 602.378 321.898 577.344C319.304 552.309 303.238 529.295 282.399 523.978C261.56 518.662 237.805 533.378 231.475 557.463C227.992 511.029 223.978 462.649 203.112 423.106C184.218 387.301 151.494 361.681 116.028 357.098C80.5617 352.514 43.2207 369.825 21.1019 402.944C-1.01695 436.063 -6.43264 484.212 9.05879 522.235C20.4708 550.245 41.4957 571.091 63.5246 588.05C133.804 642.155 220.986 664.721 303.941 650.277" fill="#F2F2F2"/>
<path d="M56.1734 370.785C85.4372 398.986 112.284 430.526 136.324 464.949C160.369 499.338 181.538 536.404 199.533 575.628C209.592 597.631 218.628 620.268 226.6 643.436C228.226 648.149 221.757 650.2 220.15 645.54C206.028 604.694 188.557 565.584 167.986 528.771C147.516 492.091 124.086 457.846 98.0268 426.519C83.2874 408.809 67.7361 392.071 51.4434 376.381C48.1038 373.164 52.8614 367.594 56.1734 370.785L56.1734 370.785Z" fill="white"/>
<path d="M664.921 653.566H276.426V181.966C276.426 81.6294 345.421 0 430.227 0H511.12C595.926 0 664.921 81.6294 664.921 181.966V653.566Z" fill="#F2F2F2"/>
<path d="M584.029 653.566H276.426V181.966C276.341 143.519 286.631 106.044 305.798 74.9971C306.505 73.8577 307.21 72.7331 307.936 71.6208C317.207 57.2348 328.24 44.5654 340.67 34.0305C341.372 33.4261 342.077 32.8321 342.793 32.2382C353.194 23.7222 364.445 16.7605 376.291 11.5117C376.994 11.1962 377.71 10.8802 378.426 10.577C389.139 6.0538 400.245 2.9554 411.537 1.33906C412.237 1.22591 412.956 1.13737 413.675 1.04883C424.679 -0.343263 435.778 -0.343263 446.782 1.04883C447.499 1.13737 448.218 1.2259 448.926 1.34027C460.216 2.95672 471.318 6.05474 482.028 10.5771C482.745 10.8802 483.461 11.1963 484.166 11.5123C495.866 16.695 506.985 23.5527 517.275 31.9326C517.99 32.5137 518.706 33.1076 519.411 33.7016C526.378 39.5859 532.923 46.1413 538.977 53.301C543.833 59.0439 548.358 65.1654 552.521 71.6245C553.245 72.7332 553.95 73.8578 554.655 74.9953C573.823 106.043 584.113 143.518 584.029 181.966V653.566Z" fill="#CCCCCC"/>
<path d="M559.016 442.637C568.422 442.637 576.046 433.616 576.046 422.488C576.046 411.361 568.422 402.34 559.016 402.34C549.611 402.34 541.986 411.361 541.986 422.488C541.986 433.616 549.611 442.637 559.016 442.637Z" fill="#6C63FF"/>
<path d="M633.095 639.441H620.046L613.837 579.892L633.097 579.893L633.095 639.441Z" fill="#FFB8B8"/>
<path d="M610.725 635.029H635.891V653.776H594.88C594.88 651.314 595.29 648.876 596.086 646.602C596.882 644.328 598.049 642.261 599.521 640.52C600.992 638.779 602.739 637.398 604.661 636.456C606.584 635.514 608.644 635.029 610.725 635.029V635.029Z" fill="#2F2E41"/>
<path d="M698.021 639.441H684.972L678.764 579.892L698.023 579.893L698.021 639.441Z" fill="#FFB8B8"/>
<path d="M675.651 635.029H700.817V653.776H659.806C659.806 651.314 660.216 648.876 661.012 646.602C661.809 644.328 662.976 642.261 664.447 640.52C665.918 638.779 667.665 637.398 669.588 636.456C671.51 635.514 673.57 635.029 675.651 635.029V635.029Z" fill="#2F2E41"/>
<path d="M567.635 426.48C566.696 424.843 566.072 422.983 565.807 421.031C565.541 419.078 565.641 417.08 566.099 415.178C566.556 413.276 567.361 411.516 568.456 410.021C569.551 408.527 570.909 407.335 572.436 406.529L616.794 261.88L638.621 275.973L587.974 414.205C588.948 417.329 588.92 420.767 587.895 423.868C586.87 426.969 584.92 429.517 582.413 431.03C579.906 432.543 577.017 432.916 574.293 432.077C571.569 431.238 569.2 429.247 567.635 426.48V426.48Z" fill="#FFB8B8"/>
<path d="M691.356 453.66C689.906 452.676 688.655 451.328 687.693 449.711C686.731 448.094 686.08 446.247 685.786 444.3C685.493 442.353 685.564 440.354 685.994 438.442C686.424 436.531 687.203 434.755 688.276 433.239L674.535 280.224L699.375 281.567L705.086 432.077C707.119 434.379 708.368 437.483 708.596 440.802C708.825 444.121 708.016 447.423 706.323 450.084C704.631 452.744 702.173 454.578 699.414 455.237C696.655 455.896 693.788 455.335 691.356 453.66V453.66Z" fill="#FFB8B8"/>
<path d="M651.729 235.087C666.167 235.087 677.871 221.239 677.871 204.158C677.871 187.076 666.167 173.228 651.729 173.228C637.291 173.228 625.587 187.076 625.587 204.158C625.587 221.239 637.291 235.087 651.729 235.087Z" fill="#FFB8B8"/>
<path d="M691.189 418.86H612.376L612.471 418.134C612.612 417.05 626.517 309.284 616.262 274.027C615.233 270.563 615.323 266.77 616.516 263.38C617.709 259.989 619.919 257.241 622.722 255.663H622.722C637.38 247.496 665.518 237.44 689.266 261.845C692.761 265.495 695.49 270.058 697.238 275.171C698.985 280.284 699.703 285.809 699.335 291.307L691.189 418.86Z" fill="#6C63FF"/>
<path d="M627.513 325.21L592.03 316.693L608.662 270.062C609.658 265.546 612.126 261.681 615.527 259.315C618.928 256.949 622.983 256.276 626.803 257.442C630.622 258.609 633.895 261.52 635.903 265.538C637.911 269.556 638.49 274.352 637.513 278.874L627.513 325.21Z" fill="#6C63FF"/>
<path d="M672.958 341.023L670.824 283.17C669.207 272.295 674.469 262.014 682.562 260.333C690.657 258.659 698.561 266.202 700.186 277.157L708.204 331.215L672.958 341.023Z" fill="#6C63FF"/>
<path d="M688.567 411.934C701.249 469.076 702.632 541.727 699.211 620.974L682.181 618.456L651.314 467.342L634.284 620.974L615.126 619.715C609.402 536.565 603.829 465.182 612.997 418.23L688.567 411.934Z" fill="#2F2E41"/>
<path d="M668.953 228.061C664.076 234.207 655.019 230.907 654.384 222.511C654.334 221.859 654.338 221.203 654.395 220.552C654.723 216.832 656.539 213.456 656.104 209.528C656.005 208.551 655.698 207.62 655.21 206.822C651.323 200.665 642.201 209.576 638.533 204.003C636.284 200.585 638.928 195.204 637.202 191.384C634.924 186.342 628.177 188.829 623.946 186.068C619.239 182.996 619.521 174.451 622.619 169.253C626.398 162.915 633.024 159.532 639.568 159.045C646.111 158.557 652.609 160.65 658.718 163.467C665.659 166.667 672.542 171.09 676.813 178.311C682.007 187.092 682.507 198.897 679.909 209.165C678.329 215.411 672.936 223.042 668.953 228.061Z" fill="#2F2E41"/>
<path d="M894.272 654.376H108.456C108.121 654.375 107.799 654.217 107.562 653.936C107.325 653.655 107.192 653.274 107.192 652.877C107.192 652.48 107.325 652.099 107.562 651.818C107.799 651.537 108.121 651.379 108.456 651.378H894.272C894.608 651.379 894.929 651.537 895.166 651.818C895.403 652.099 895.536 652.48 895.536 652.877C895.536 653.274 895.403 653.655 895.166 653.936C894.929 654.217 894.608 654.375 894.272 654.376V654.376Z" fill="#3F3D56"/>
<path d="M499.412 516.934H361.044C359.222 516.946 357.47 516.102 356.173 514.587C354.876 513.073 354.14 511.012 354.125 508.856V143.451C354.14 141.295 354.876 139.234 356.173 137.719C357.47 136.205 359.222 135.361 361.044 135.373H499.412C501.234 135.361 502.986 136.205 504.283 137.719C505.58 139.234 506.316 141.295 506.33 143.451V508.856C506.316 511.012 505.58 513.073 504.283 514.587C502.986 516.102 501.234 516.946 499.412 516.934V516.934Z" fill="white"/>
<path d="M506.33 253.606H354.125V256.125H506.33V253.606Z" fill="#CCCCCC"/>
<path d="M506.862 397.303H354.657V399.821H506.862V397.303Z" fill="#CCCCCC"/>
<path d="M404.151 135.373H402.022V518.194H404.151V135.373Z" fill="#CCCCCC"/>
<path d="M457.369 135.373H455.24V518.194H457.369V135.373Z" fill="#CCCCCC"/>
</svg>
