<svg width="1068" height="924" viewBox="0 0 1068 924" fill="none" xmlns="http://www.w3.org/2000/svg">
<path d="M554.14 923.029C837.921 923.029 1067.97 883.518 1067.97 834.779C1067.97 786.04 837.921 746.529 554.14 746.529C270.36 746.529 40.3101 786.04 40.3101 834.779C40.3101 883.518 270.36 923.029 554.14 923.029Z" fill="#EDE3DC"/>
<path d="M628.83 67.2301C628.83 67.2301 625.69 292.3 616.6 349.59C607.51 406.88 743.92 318.07 754.83 378.16C765.74 438.25 727.55 615 748 639.16C768.45 663.32 595.68 715.05 587.27 716.46C578.86 717.87 180.74 660.46 180.74 660.46C180.74 660.46 136.74 489.46 83.6402 622.78C27.3002 561.64 37.3402 488.69 37.3402 488.69L291.56 333L346.56 169.5L486.56 67.2001L573.56 19.8301L628.83 67.2301Z" fill="#EDE3DC"/>
<path d="M628.83 68.62C628.83 68.62 625.69 293.69 616.6 351C607.51 408.31 743.92 319.49 754.83 379.57C765.74 439.65 727.55 616.42 748.01 640.57C768.47 664.72 595.69 716.47 587.28 717.88C578.87 719.29 180.75 661.88 180.75 661.88C180.75 661.88 136.75 490.93 83.6499 624.19C27.3099 563.06 37.3499 490.1 37.3499 490.1L291.56 334.43L346.56 170.93L486.56 68.62L573.56 21.25L628.83 68.62Z" fill="#E69766"/>
<g style="mix-blend-mode:multiply" opacity="0.59">
<path d="M628.83 68.62C628.83 68.62 625.69 293.69 616.6 351C607.51 408.31 743.92 319.49 754.83 379.57C765.74 439.65 727.55 616.42 748.01 640.57C768.47 664.72 595.69 716.47 587.28 717.88C578.87 719.29 180.75 661.88 180.75 661.88C180.75 661.88 136.75 490.93 83.6499 624.19C27.3099 563.06 37.3499 490.1 37.3499 490.1L291.56 334.43L346.56 170.93L486.56 68.62L573.56 21.25L628.83 68.62Z" fill="#E69766"/>
</g>
<path d="M585.42 179.87C585.42 179.87 577.89 229.69 601.77 249.67C613.97 259.89 580.48 291.15 548.93 289.04C517.22 286.92 486.47 249.3 499.2 247.86C524.2 245.04 523.4 185.68 523.4 185.68C523.4 185.68 555.91 137.84 585.42 179.87Z" fill="#EEB5AA"/>
<g style="mix-blend-mode:multiply">
<path d="M587.28 182C587.28 182 573.35 240.63 519.19 222.4C522.19 212.88 523.72 190.95 523.72 190.95L587.28 182Z" fill="#EEB5AA"/>
</g>
<path d="M608.23 149.91C608.23 149.91 598.23 203.82 549.48 203.3C507.89 202.85 492.63 149.91 492.63 149.91C492.63 149.91 475.29 152 472.3 132C469.21 111.44 488.4 115.91 488.4 115.91C488.4 115.91 474.12 36.7104 512.54 13.0704C546.43 -7.78963 599.8 2.78036 613.21 42.1304C626.62 81.4804 614.58 114.57 614.58 114.57C614.58 114.57 632.51 113.57 628.15 133.76C624.89 148.83 616.09 149.52 608.23 149.91Z" fill="#EEB5AA"/>
<path d="M550.19 107.66C550.19 107.66 532.33 137.96 557.44 133.29" stroke="#511918" stroke-width="1.93" stroke-linecap="round" stroke-linejoin="round"/>
<path d="M591 93.1395C593.21 96.2595 598.55 93.5995 595.71 88.8995C591.65 82.1595 579.56 78.6495 570.55 83.0595C562.7 86.8995 567.38 91.6895 570.86 89.5395C577.12 85.6395 586.8 87.2695 591 93.1395Z" fill="#A95E32"/>
<path d="M512 93.1395C509.79 96.2595 504.45 93.5995 507.29 88.8995C511.35 82.1595 523.44 78.6495 532.45 83.0595C540.3 86.8995 535.62 91.6895 532.14 89.5395C525.86 85.6395 516.18 87.2695 512 93.1395Z" fill="#A95E32"/>
<path d="M570 107.66C570 107.66 572.74 115.6 581.36 115.31C589.98 115.02 590.85 107.66 590.85 107.66" stroke="black" stroke-width="3.87" stroke-linecap="round" stroke-linejoin="round"/>
<path d="M509.43 107.66C509.43 107.66 512.16 115.6 520.78 115.31C529.4 115.02 530.28 107.66 530.28 107.66" stroke="black" stroke-width="3.87" stroke-linecap="round" stroke-linejoin="round"/>
<path d="M539.57 150.26C540.58 152.684 542.305 154.743 544.515 156.162C546.725 157.581 549.316 158.292 551.94 158.2C554.556 158.255 557.13 157.529 559.331 156.115C561.533 154.701 563.263 152.662 564.3 150.26" fill="#CB4746"/>
<path d="M479.43 127.241C479.43 127.241 483.43 122.511 489.43 128.981C489.43 128.981 483.92 115.591 477.98 122.261" stroke="#511918" stroke-width="1.93" stroke-linecap="round" stroke-linejoin="round"/>
<path d="M582.92 31.0004C582.92 31.0004 580.43 63.0004 485.86 87.8004C403.18 109.5 372.71 207.5 370.13 276.8C365.54 400.15 226.66 428.8 163.66 444.08C100.66 459.36 29.2401 532.33 83.6601 622.81C83.6601 622.81 -102.29 501.63 80.9801 425.27C264.25 348.91 238.59 301.9 276.65 175.18C304.91 81.1004 381 116.84 429.07 81.1004C477.14 45.3604 493.31 -10.5496 536.75 2.61038C580.19 15.7704 582.92 31.0004 582.92 31.0004Z" fill="#E69766"/>
<path d="M582.92 31.0002C582.92 31.0002 610 67.1002 610.35 115.31C610.7 163.52 566.68 221.22 608.25 252C649.82 282.78 720.31 399.75 706.07 502.84C691.83 605.93 730 657.74 753.35 665.14C776.7 672.54 906 642.42 906 642.42C906 642.42 792 583.7 805.41 471.5C818.82 359.3 801.19 301.77 756.76 261.9C712.33 222.03 629 236.21 638.65 158.2C648.3 80.1901 633.13 43.5902 600.79 17.0002C570.45 -7.94984 536.79 2.62016 536.79 2.62016C536.79 2.62016 580.43 16.9302 582.92 31.0002Z" fill="#E69766"/>
<path d="M561.37 12.7507C561.37 12.7507 530.28 8.39074 515.23 50.2407C505.36 77.6907 432.43 76.9807 373.6 115.311C301.06 162.581 375 330.001 295.89 351.571C151.55 391.001 21.0001 445.591 32.3002 538.141C40.4702 605.201 83.6501 622.811 83.6501 622.811C43.8701 597.741 43.4402 520.301 75.7002 470.121C129.53 386.401 264.62 376.121 315.42 351.591C366.22 327.061 341.59 243.871 377.57 158.201C413.09 73.6007 493.8 89.3607 523.15 57.0007C556.03 20.7807 573.56 24.3707 573.56 24.3707" stroke="#A95E32" stroke-width="1.93" stroke-linecap="round" stroke-linejoin="round"/>
<path d="M541.51 5.75004C541.51 5.75004 501.28 2.61004 489.39 41.54C477.28 81.17 379.64 99.54 379.64 99.54C379.64 99.54 277 115 291.56 203.3C308.45 305.74 265.12 352.3 214.45 369.57C156.6 389.35 -15.0698 454.44 10.8902 542.09C22.5902 581.6 83.6502 622.81 83.6502 622.81" stroke="#A95E32" stroke-width="1.93" stroke-miterlimit="10"/>
<path d="M792.85 604.439C792.85 604.439 915 570.999 944.29 599.649C973.58 628.299 936.29 697.229 936.29 697.229L736.29 716.459L792.85 604.439Z" fill="#EEB5AA"/>
<path d="M180.75 599.65C180.75 599.65 192.75 577.7 276.34 591.65C359.93 605.6 416.34 622.83 416.34 622.83L429.07 689.21L280 673.88L180.77 599.65" fill="#EEB5AA"/>
<path d="M425 609.179L441.8 554.919C441.8 554.919 619.18 542.819 669.63 560.409L692.54 622.809C692.54 622.809 743.8 596.969 789.08 595.809C805.4 595.389 805.4 618.119 805.4 637.489C805.4 656.859 783.4 746.339 783.4 746.339L577 810.459L285.5 702.619C285.5 702.619 300.96 600.619 324.42 591.619C354.67 579.999 425 609.179 425 609.179Z" fill="#76DF80"/>
<path d="M673.22 641.839L692.55 622.809" stroke="white" stroke-width="1.93" stroke-linecap="round" stroke-linejoin="round"/>
<path d="M449.6 626.46L425.63 610.27" stroke="white" stroke-width="1.93" stroke-linecap="round" stroke-linejoin="round"/>
<path d="M560.41 588.049C560.41 588.049 560.26 589.799 559.99 592.859" stroke="white" stroke-width="1.93" stroke-linecap="round" stroke-linejoin="round"/>
<path d="M559.16 602C558.02 614.49 556.16 633.64 554.16 652.23C548.69 701.8 545.9 742.23 557.43 780.23" stroke="white" stroke-width="1.93" stroke-linecap="round" stroke-linejoin="round" stroke-dasharray="9.2 9.2"/>
<path d="M558.81 784.67C559.32 786.19 559.86 787.67 560.41 789.23" stroke="white" stroke-width="1.93" stroke-linecap="round" stroke-linejoin="round"/>
<path d="M532.4 585.439C532.4 585.439 522.4 654.699 524.4 669.299C526.3 683.299 549.4 681.299 549.4 681.299" stroke="white" stroke-width="1.93" stroke-linecap="round" stroke-linejoin="round" stroke-dasharray="9.66 9.66"/>
<path d="M424.16 417.659C424.16 417.659 412.08 465.369 432.47 495.549C454.62 528.299 405.91 527.399 443.28 558.549C468.28 579.409 589.08 601.159 653.21 576.809C706.51 556.569 669.78 533.199 681.21 504.809C685.33 494.529 695.52 462.489 689.45 424.019C727.91 559.019 764.78 564.319 805.45 562.379C865.33 559.519 915.62 450.089 940.97 437.689C973.18 421.939 947.77 348.309 926.77 330.499C894.24 302.889 861.83 346.149 842.16 378.149L809.67 430.999C809.67 430.999 749.67 299.659 682.88 273.299C657 262.999 603.11 249.999 603.11 249.999C603.11 249.999 590.89 290.839 554.11 289.089C517.33 287.339 499.17 247.859 499.17 247.859C499.17 247.859 430.17 260.619 390.93 294.059C356.1 323.719 292.46 431.549 292.46 431.549C292.46 431.549 252.09 402.709 236.63 378.159C219.3 350.649 174.36 333.159 152.18 350.379C124.34 371.929 123.18 413.439 130.7 431.929C140.01 454.929 196.06 492.739 233.14 523.509C291.03 571.509 339.25 550.859 358.3 531.509C391.77 497.409 424.16 417.659 424.16 417.659Z" fill="#385748"/>
<path d="M676.46 477.898C676.46 477.898 610.58 582.318 489.38 541.578" stroke="#565797" stroke-width="1.93" stroke-linecap="round" stroke-linejoin="round"/>
<path d="M446.47 496.719C446.47 496.719 494.58 523.529 550.1 524.229" stroke="#565797" stroke-width="1.93" stroke-linecap="round" stroke-linejoin="round"/>
<path d="M809.67 431C809.67 431 789.09 451.31 795.81 477.93" stroke="#565797" stroke-width="1.93" stroke-linecap="round" stroke-linejoin="round"/>
<path d="M292.49 431.549C292.49 431.549 321.59 447.159 324.42 477.899" stroke="#565797" stroke-width="1.93" stroke-linecap="round" stroke-linejoin="round"/>
<path d="M480.55 252.229C480.55 252.229 495.65 306.929 555.37 305.719C608.8 304.629 619.37 254.099 619.37 254.099L603.11 249.999C603.11 249.999 588.46 289.149 552.4 288.729C518.84 288.339 499.2 247.859 499.2 247.859L480.55 252.229Z" fill="#565797"/>
<g style="mix-blend-mode:multiply">
<path d="M166.344 386.883C174.303 367.876 174.919 350.025 167.721 347.01C160.523 343.996 148.236 356.961 140.277 375.968C132.319 394.975 131.703 412.826 138.901 415.84C146.099 418.854 158.386 405.89 166.344 386.883Z" fill="#FDCA5D"/>
</g>
<g style="mix-blend-mode:multiply">
<path d="M939.05 396.386C946.246 393.367 945.617 375.516 937.646 356.515C929.674 337.514 917.378 324.557 910.182 327.576C902.985 330.596 903.614 348.447 911.586 367.448C919.558 386.449 931.854 399.405 939.05 396.386Z" fill="#FDCA5D"/>
</g>
<path d="M429.07 381.41L424.16 417.66C413.16 407.45 413.33 390.33 413.33 390.33" stroke="#565797" stroke-width="1.93" stroke-linecap="round" stroke-linejoin="round"/>
<path d="M707.29 389.689C707.29 389.689 698.14 417.739 689.23 424.869L689.521 398.609" stroke="#565797" stroke-width="1.93" stroke-linecap="round" stroke-linejoin="round"/>
<path d="M947.24 365.819C960.114 364.703 972.874 362.525 985.39 359.309C995.046 356.635 1004.32 352.747 1013 347.739C1025.07 340.349 1021 334.999 1021 334.999C1021 334.999 1017.23 333.459 1020.51 329.519C1024.2 325.089 1018.78 323.249 1018.78 323.249C1019.4 320.374 1020.2 317.539 1021.16 314.759C1022.65 310.759 1017.7 312.929 1017.7 312.929C1017.7 312.929 1012.02 312.709 1012.53 307.929C1013.04 303.149 1013.84 282.929 1008.88 280.009C1003.92 277.089 980.55 276.929 976.34 276.789C969.45 276.549 964.94 284.159 974.51 286.789C985.78 289.909 996.72 292.059 996.72 292.059L991.87 301.989L971.81 313.869C971.81 313.869 964.09 318.319 959.21 314.639C957.08 313.039 955.49 309.879 955.32 304.139C963.55 294.209 967.55 288.579 964.78 283.849C961.16 277.679 954.54 280.489 944.09 294.259C933.64 308.029 927.35 309.769 925.09 322.819C924.31 327.359 921.68 350.999 947.24 365.819Z" fill="#EEB5AA"/>
<path d="M941.43 337.448C941.43 337.448 957.55 332.528 956.16 312.928" stroke="#511918" stroke-width="1.93" stroke-linecap="round" stroke-linejoin="round"/>
<path d="M930.75 327.889L907.84 356.829C907.84 356.829 914.4 381.059 926.92 391.489C935.34 384.599 952.12 363.429 952.12 363.429" fill="#EEB5AA"/>
<path d="M151.52 347.438L172.1 368.128C172.1 368.128 168.97 390.127 154.39 407.277C146.94 400.147 122.74 372.668 122.74 372.668" fill="#EEB5AA"/>
<path d="M911.55 592.607C870.65 601.127 825.15 624.347 767.41 642.417C709.67 660.487 546.85 796.997 546.85 796.997L639.76 824.347C639.76 824.347 837.54 772.107 909.14 719.997C922.07 710.597 970.22 681.387 970.22 655.647C970.22 632.717 952.45 584.097 911.55 592.607Z" fill="#EEB5AA"/>
<path d="M213.51 592.607C254.4 601.127 299.91 624.347 357.65 642.417C415.39 660.487 578.21 796.997 578.21 796.997L485.3 824.327C485.3 824.327 287.52 772.107 215.92 719.997C202.99 710.597 154.84 681.387 154.84 655.647C154.84 632.717 172.61 584.097 213.51 592.607Z" fill="#EEB5AA"/>
<path d="M805.41 629.368C805.41 629.368 852.3 612.598 886.89 601.928" stroke="#511918" stroke-width="1.93" stroke-linecap="round" stroke-linejoin="round"/>
<path d="M304.22 623.556C304.22 623.556 284.72 615.466 224.17 600.066" stroke="#511918" stroke-width="1.93" stroke-linecap="round" stroke-linejoin="round"/>
<path d="M620.16 738.207C620.16 738.207 665.65 806.157 678.69 813.337C662.29 821.557 540.82 841.027 487.38 863.747C475.01 868.287 450.28 881.897 432.16 884.147C419.03 885.777 369.09 878.507 350.61 844.707C320.39 789.457 435.39 828.707 456.83 804.227C489.38 766.987 527.58 790.957 554.14 777.227C580.7 763.497 620.16 738.207 620.16 738.207Z" fill="white"/>
<path d="M583.9 746.666C583.9 746.666 595.48 817.446 635.84 834.776C676.2 852.106 673.22 829.996 673.22 829.996C673.22 829.996 606.68 746.996 607.99 731.346C609.3 715.696 583.9 746.666 583.9 746.666Z" fill="#76DF80"/>
<path d="M582.92 717.877C582.92 717.877 621.24 811.677 653.55 824.327" stroke="white" stroke-width="9.66" stroke-linecap="round" stroke-linejoin="round"/>
<path d="M509.051 740.678C509.051 740.678 455.101 805.858 441.811 812.548C457.881 821.368 653.191 902.078 653.191 902.078C653.191 902.078 721.671 918.158 750.981 908.228C763.511 903.988 791.181 883.418 787.671 864.888C776.001 802.998 749.391 800.628 701.361 796.138C652.111 791.538 598.361 798.518 572.361 783.798C546.361 769.078 509.051 740.678 509.051 740.678Z" fill="white"/>
<path d="M528.55 733.338C528.55 733.338 491.61 800.678 449.25 824.338C404.13 849.538 496.47 841.888 496.47 841.888C496.47 841.888 535.47 795.108 548.24 759.988C552 749.528 528.55 733.338 528.55 733.338Z" fill="#76DF80"/>
<path d="M548.241 726.457C548.241 726.457 514.241 816.077 441.811 855.697" stroke="white" stroke-width="9.66" stroke-linecap="round" stroke-linejoin="round"/>
<path d="M558.311 775.736C558.311 775.736 586.241 791.186 596.311 796.136C633.491 814.466 672.931 814.466 672.931 814.466" stroke="#511918" stroke-width="1.93" stroke-linecap="round" stroke-linejoin="round"/>
<path d="M441.811 812.547L538.531 844.707" stroke="#511918" stroke-width="1.93" stroke-linecap="round" stroke-linejoin="round"/>
<path d="M1018.63 266.098C1023.8 264.198 1029.96 278.428 1029.96 278.428C1029.96 278.428 1033.14 295.658 1032.38 300.428C1031.62 305.198 1018.08 325.208 1018.08 325.208L998.811 315.688C998.811 315.688 1017.27 299.868 1018.64 297.358C1020.01 294.848 1019.01 290.438 1018.64 283.358C1013.4 272.208 1014.84 267.488 1018.63 266.098Z" fill="#EEB5AA"/>
<path d="M1046 289.239C1051.27 291.349 1050.32 301.459 1048.46 306.239C1046.6 311.019 1042.98 320.719 1040.11 323.589C1037.24 326.459 1011.25 333.079 1011.25 333.079L1000.92 317.809C1000.92 317.809 1031.29 313.089 1032.52 311.069C1033.75 309.049 1040.7 287.129 1046 289.239Z" fill="#EEB5AA"/>
<path d="M1027.78 309.379C1033.06 311.489 1032.11 321.599 1030.25 326.379C1028.39 331.159 1024.77 340.859 1021.9 343.729C1019.03 346.599 993.03 353.219 993.03 353.219L982.71 337.999C982.71 337.999 1014.79 333.348 1016.02 331.328C1017.25 329.308 1022.51 307.269 1027.78 309.379Z" fill="#EEB5AA"/>
<path d="M1001.61 336.688C1001.61 336.688 1014.79 331.998 1016 329.998C1017.21 327.998 1022.49 305.998 1027.76 308.058C1033.03 310.118 1032.09 321.578 1030.23 326.398" stroke="#511918" stroke-width="1.93" stroke-linecap="round" stroke-linejoin="round"/>
<path d="M998.811 312.929L1012.78 303.139" stroke="#511918" stroke-width="1.93" stroke-linecap="round" stroke-linejoin="round"/>
<path d="M1007.22 321.308L1020.64 316.078" stroke="#511918" stroke-width="1.93" stroke-linecap="round" stroke-linejoin="round"/>
<path d="M137.91 384.389C125.098 386.053 112.171 386.655 99.2602 386.189C89.2681 385.632 79.3865 383.814 69.8502 380.779C56.4802 376.139 59.3302 369.999 59.3302 369.999C59.3302 369.999 62.6902 367.689 58.6402 364.549C54.0902 361.009 58.9902 358.049 58.9902 358.049C57.7633 355.374 56.381 352.773 54.8502 350.259C52.5402 346.649 57.8502 347.739 57.8502 347.739C57.8502 347.739 63.3502 346.309 61.8502 341.739C60.3502 337.169 55.2402 317.629 59.4602 313.689C63.6802 309.749 86.4602 304.629 90.5502 303.589C97.2302 301.879 103.27 308.349 94.4802 312.989C84.1402 318.459 73.9102 322.889 73.9102 322.889L80.7702 331.559L102.91 338.869C102.91 338.869 111.41 341.569 115.39 336.929C117.12 334.929 118 331.489 116.94 325.839C106.77 317.899 101.66 313.249 103.36 308.049C105.58 301.239 112.65 302.579 125.8 313.789C138.95 324.999 145.47 325.369 150.42 337.639C150.39 337.699 166.45 371.999 137.91 384.389Z" fill="#EEB5AA"/>
<path d="M137.53 355.439C137.53 355.439 120.73 354.069 117.9 334.629" stroke="#511918" stroke-width="1.93" stroke-linecap="round" stroke-linejoin="round"/>
<path d="M609.76 588.049C609.92 588.559 612.52 598.379 618.91 603.319C630.45 612.239 655.71 603.039 655.71 603.039" stroke="white" stroke-width="1.93" stroke-linecap="round" stroke-linejoin="round"/>
<path d="M502.27 580C502.27 580 494.78 600.37 480.89 601.84C471.12 602.84 456 596.31 456 596.31" stroke="white" stroke-width="1.93" stroke-linecap="round" stroke-linejoin="round"/>
<path d="M425.63 610.27L432.16 635.34" stroke="white" stroke-width="1.93" stroke-linecap="round" stroke-linejoin="round"/>
<path d="M692.55 622.809L664.82 632.319" stroke="white" stroke-width="1.93" stroke-linecap="round" stroke-linejoin="round"/>
</svg>
    