<svg width="40" height="40" viewBox="0 0 40 40" fill="none" xmlns="http://www.w3.org/2000/svg">
<path d="M18.75 2.5C9.79018 2.5 2.5 9.79018 2.5 18.75C2.5 27.7098 9.79018 35 18.75 35C27.7098 35 35 27.7098 35 18.75C35 9.79018 27.7098 2.5 18.75 2.5ZM18.75 5C26.3587 5 32.5 11.1413 32.5 18.75C32.5 25.6658 27.4189 31.3526 20.7812 32.334V22.7246H24.6631L25.2734 18.7842H20.7812V16.626C20.7812 14.9885 21.3142 13.5352 22.8467 13.5352H25.3076V10.0928C24.8751 10.0353 23.9614 9.90723 22.2314 9.90723C18.6214 9.90723 16.5039 11.8147 16.5039 16.1572V18.7793H12.793V22.7246H16.5088V32.2998C9.97447 31.2303 5 25.5927 5 18.75C5 11.1413 11.1413 5 18.75 5Z" fill="white"/>
</svg>
