<svg width="766" height="619" viewBox="0 0 766 619" fill="none" xmlns="http://www.w3.org/2000/svg">
<path opacity="0.34" d="M686.5 618.919H67.3C59.4 618.919 53 612.519 53 604.619C53 596.719 59.4 590.319 67.3 590.319H686.5C694.4 590.319 700.8 596.719 700.8 604.619C700.8 612.519 694.4 618.919 686.5 618.919Z" fill="#0E3700"/>
<path d="M732 430.519H606.1C593.3 430.519 582.9 420.119 582.9 407.319C582.9 394.519 593.3 384.119 606.1 384.119H676.4C691.6 384.119 703.9 371.819 703.9 356.619C703.9 341.419 691.6 329.119 676.4 329.119H613.9C596.8 329.119 582.9 315.219 582.9 298.119C582.9 281.019 596.8 267.119 613.9 267.119H683.4C698.6 267.119 711 254.719 711 239.519C711 224.319 698.6 211.919 683.4 211.919H583H559C543.8 211.919 531.4 199.519 531.4 184.319C531.4 169.119 543.8 156.719 559 156.719H586.2C601.4 156.719 613.8 144.319 613.8 129.119C613.8 113.919 601.4 101.519 586.2 101.519H570.7H568.1H403.8H398.2H226.6H187.3C172.1 101.519 159.7 113.919 159.7 129.119C159.7 144.319 172.1 156.719 187.3 156.719H199C214.2 156.719 226.6 169.119 226.6 184.319C226.6 199.519 214.2 211.919 199 211.919H93.7C82 211.919 72.5 221.419 72.5 233.119C72.5 244.819 82 254.319 93.7 254.319H204.6C216.8 254.319 226.7 264.219 226.7 276.419C226.7 288.619 216.8 298.519 204.6 298.519H27.6C12.4 298.519 0 310.919 0 326.119C0 341.319 12.4 353.719 27.6 353.719H199C214.2 353.719 226.6 366.119 226.6 381.319C226.6 396.519 214.2 408.919 199 408.919H95.5C71.1 408.919 51.3 428.719 51.3 453.119C51.3 477.519 71.1 497.319 95.5 497.319H226.6H284.8H317.5H583H732C750.4 497.319 765.3 482.419 765.3 464.019C765.3 445.419 750.4 430.519 732 430.519Z" fill="url(#paint0_linear_0_1)" fill-opacity="0.68"/>
<path d="M498.408 604.644H516.408V333.844H498.408L498.408 604.644Z" fill="#2F262D"/>
<path d="M429.9 388.419C427 381.919 429.9 374.219 436.5 371.219C438.2 370.519 440 370.119 441.8 370.119C446.9 370.119 451.6 373.119 453.7 377.819L517.7 522.019L493.9 532.619L429.9 388.419Z" fill="#FC9F6F"/>
<path d="M322.905 604.644H340.905L340.905 333.844H322.905L322.905 604.644Z" fill="#2F262D"/>
<path d="M406.2 351.519C344.3 351.519 294.2 304.319 294.2 246.219C294.2 231.219 297.6 216.919 303.6 203.919C264.2 220.219 236.7 257.319 236.7 300.319C236.7 358.519 286.8 405.619 348.7 405.619C394.6 405.619 434 379.719 451.3 342.619C437.4 348.319 422.2 351.519 406.2 351.519Z" fill="#F2F2F2"/>
<path d="M344.2 380.019C378.055 380.019 405.5 354.813 405.5 323.719C405.5 292.626 378.055 267.419 344.2 267.419C310.345 267.419 282.9 292.626 282.9 323.719C282.9 354.813 310.345 380.019 344.2 380.019Z" fill="#3B323A"/>
<path d="M233.8 333.819H96.7C91.5 333.819 87.2 329.519 87.2 324.319V315.319C87.2 310.119 91.5 305.819 96.7 305.819H233.8C239 305.819 243.3 310.119 243.3 315.319V324.319C243.3 329.519 239 333.819 233.8 333.819Z" fill="#AFAFAF"/>
<path d="M397.3 280.819C378.1 280.819 362.5 265.219 362.5 246.019V211.219C362.5 197.919 351.8 187.219 338.5 187.219V246.019C338.5 278.519 364.8 304.819 397.3 304.819H446V280.819H397.3Z" fill="#EF9067"/>
<path d="M405.2 97.1193C401.6 142.619 361.6 193.019 324.2 186.619C288.4 180.519 263.8 124.019 275.9 84.4192C283.4 60.0192 304 44.7192 320.6 32.4192C337.8 19.6192 349.4 11.0193 362.6 13.1193C388.8 17.1193 408.1 60.9193 405.2 97.1193Z" fill="#603936"/>
<path d="M354.7 226.619C354 225.819 348.4 219.319 347.4 218.419C344.8 207.719 339.5 195.919 340.6 182.119C333.1 176.619 320.7 169.619 306.6 170.619C302.4 170.919 298 171.919 295.8 172.419C283.6 175.219 275.9 179.719 273.4 181.219C270 183.319 268.3 184.319 266.3 186.319C260.9 191.919 259.6 198.719 258.9 202.719C252.9 237.519 257.6 270.919 258.2 273.819C259.3 279.119 260.8 283.819 260.8 283.819C263.3 291.719 266.3 296.619 267.1 298.819C271.1 309.619 280.2 332.319 289.8 349.619C296.8 350.719 312.7 357.719 323.2 354.119C339.2 348.619 372.2 336.319 384 333.819C369.3 317.319 355.8 298.919 352.3 276.519C351.4 270.719 350.6 265.019 350 259.419C351.4 258.719 359.9 254.419 361.6 245.819C363.4 236.519 356.1 228.219 354.7 226.619Z" fill="#461414"/>
<path d="M318.588 205.511C327.312 203.078 332.087 192.87 329.254 182.709C326.421 172.549 317.051 166.284 308.327 168.717C299.603 171.15 294.828 181.359 297.661 191.519C300.494 201.68 309.864 207.944 318.588 205.511Z" fill="#EF9067"/>
<path d="M310.9 164.419C316.4 177.419 325.5 181.919 331.3 185.319C342.6 191.919 363.8 191.319 363.8 191.319C364.5 186.719 365.2 182.719 368.8 175.119C374 163.819 378.8 161.119 385.5 150.919C395.5 135.519 400.5 116.919 397.3 115.119C395 113.719 388.7 120.919 384.6 125.119C372.9 137.119 346.7 154.919 310.9 164.419Z" fill="#603936"/>
<path d="M310.5 193.019H306.3C297.1 193.019 289.7 185.619 289.7 176.419V113.319H322.9V180.519C322.9 187.419 317.3 193.019 310.5 193.019Z" fill="#EF9067"/>
<path d="M123.583 604.644H141.583L141.583 333.844H123.583L123.583 604.644Z" fill="#2F262D"/>
<path d="M234.294 604.644H252.294L252.294 333.844H234.294L234.294 604.644Z" fill="#494149"/>
<path d="M606.75 604.644H624.75V333.844H606.75V604.644Z" fill="#494149"/>
<path opacity="0.71" d="M289.7 120.019C291.9 139.119 305.1 154.919 322.9 160.919V109.519H289.7V120.019Z" fill="#D36B46"/>
<path d="M338.5 158.419C314.1 158.419 294.4 138.719 294.4 114.319V60.5194C294.4 58.2194 296.2 56.4194 298.5 56.4194H361.2C373 56.4194 382.6 66.0194 382.6 77.8194V114.319C382.6 138.719 362.9 158.419 338.5 158.419Z" fill="#FC9F6F"/>
<path d="M382.6 108.019C382.1 109.219 380.9 110.019 379.6 110.019H360.2C358.4 110.019 356.9 108.519 356.9 106.719V95.8193C356.9 94.0193 358.4 92.5193 360.2 92.5193H379.6C380.9 92.5193 382.1 93.3193 382.6 94.5193V90.3193C381.7 89.8193 380.7 89.5193 379.6 89.5193H360.2C356.7 89.5193 353.9 92.3193 353.9 95.8193V106.719C353.9 110.219 356.7 113.019 360.2 113.019H379.6C380.7 113.019 381.7 112.719 382.6 112.219V108.019Z" fill="#DD9883"/>
<path d="M343.6 111.419H324.2C321.5 111.419 319.4 109.219 319.4 106.619V95.7195C319.4 93.0195 321.6 90.9194 324.2 90.9194H343.6C346.3 90.9194 348.4 93.1195 348.4 95.7195V106.619C348.4 109.319 346.2 111.419 343.6 111.419Z" stroke="#DD9883" stroke-width="3" stroke-miterlimit="10" stroke-linecap="round" stroke-linejoin="round"/>
<path opacity="0.6" d="M321.8 122.719V68.9194C321.8 66.6194 323.6 64.8194 325.9 64.8194L362.1 52.1194C358.2 47.0194 368.1 56.5194 361.2 56.5194H298.5C296.2 56.5194 294.4 58.3194 294.4 60.6194V114.419C294.4 138.819 314.1 158.519 338.5 158.519C339 158.519 339.5 158.519 340.1 158.519C329 150.419 321.8 137.419 321.8 122.719Z" fill="#EF9067"/>
<path d="M379.6 109.419H360.2C357.5 109.419 355.4 107.219 355.4 104.619V93.7195C355.4 91.0195 357.6 88.9194 360.2 88.9194H379.6C382.3 88.9194 384.4 91.1195 384.4 93.7195V104.619C384.4 107.319 382.2 109.419 379.6 109.419Z" stroke="#F6CDF7" stroke-width="3" stroke-miterlimit="10" stroke-linecap="round" stroke-linejoin="round"/>
<path d="M350 136.219C344.4 136.219 339.9 131.719 339.9 126.219V121.519H359.9V126.219C359.9 131.719 355.5 136.219 350 136.219Z" fill="#FCFAFA"/>
<path d="M331.9 97.9194H340.9" stroke="#161515" stroke-width="3" stroke-miterlimit="10" stroke-linecap="round" stroke-linejoin="round"/>
<path d="M365.9 97.9194H374.9" stroke="#161515" stroke-width="3" stroke-miterlimit="10" stroke-linecap="round" stroke-linejoin="round"/>
<path d="M343.6 109.419H324.2C321.5 109.419 319.4 107.219 319.4 104.619V93.7195C319.4 91.0195 321.6 88.9194 324.2 88.9194H343.6C346.3 88.9194 348.4 91.1195 348.4 93.7195V104.619C348.4 107.319 346.2 109.419 343.6 109.419Z" stroke="#F6CDF7" stroke-width="3" stroke-miterlimit="10" stroke-linecap="round" stroke-linejoin="round"/>
<path d="M357 15.9193C344.9 0.319302 324.3 0.619305 320.5 0.219305C317.1 -0.480695 298.4 0.419308 284.7 4.01931C253.1 12.4193 231.1 41.0193 231.1 73.8193V115.819C231.1 144.019 251.9 178.219 278.6 187.119C293.4 192.119 309.8 195.919 313.7 195.319C293.9 158.619 296.6 136.919 302.2 124.219C315.6 93.2193 354.9 94.3193 364.6 59.8193C364.8 58.8193 370.9 33.9193 357 15.9193Z" fill="#754743"/>
<path d="M480.4 304.519C481.4 301.919 481.9 299.119 481.9 296.219C481.9 282.919 471.2 272.219 457.9 272.219C444.6 272.219 433.9 282.919 433.9 296.219C433.9 299.119 434.4 301.919 435.4 304.519H480.4Z" fill="#EF9067"/>
<path d="M403.4 305.819C401.4 296.619 390.3 289.619 376.8 289.619C363.4 289.619 352.2 296.619 350.2 305.819H403.4Z" fill="#F4EFF0"/>
<path d="M271.7 235.819C279.763 235.819 286.3 225.567 286.3 212.919C286.3 200.272 279.763 190.019 271.7 190.019C263.637 190.019 257.1 200.272 257.1 212.919C257.1 225.567 263.637 235.819 271.7 235.819Z" fill="#EF9067"/>
<path d="M315.9 281.619C296.7 281.619 281.1 266.019 281.1 246.819V204.319C281.1 197.719 275.7 192.319 269.1 192.319C262.5 192.319 257.1 197.719 257.1 204.319V246.819C257.1 279.319 283.4 305.619 315.9 305.619H364.6V281.619H340.2H315.9Z" fill="#FC9F6F"/>
<path d="M518.1 305.819H406.1C404.7 305.819 403.5 304.619 403.5 303.219C403.5 301.819 404.7 300.619 406.1 300.619H518.2C519.6 300.619 520.8 301.819 520.8 303.219C520.8 304.619 519.6 305.819 518.1 305.819Z" fill="white"/>
<path d="M518.1 303.219H406.1C405.1 303.219 404.3 302.719 403.8 301.919C403.6 302.319 403.4 302.719 403.4 303.219C403.4 304.619 404.6 305.819 406 305.819H518.1C519.5 305.819 520.7 304.619 520.7 303.219C520.7 302.719 520.6 302.319 520.3 301.919C519.9 302.619 519.1 303.219 518.1 303.219Z" fill="#F4EFF0"/>
<path d="M427.8 305.819H406.1C404.7 305.819 403.5 304.619 403.5 303.219C403.5 301.819 404.7 300.619 406.1 300.619H427.8C429.2 300.619 430.4 301.819 430.4 303.219C430.4 304.619 429.3 305.819 427.8 305.819Z" fill="#F4EFF0"/>
<path d="M510.2 300.619H502V298.719C502 297.719 502.8 296.819 503.9 296.819H508.3C509.3 296.819 510.2 297.619 510.2 298.719V300.619V300.619Z" fill="#F4EFF0"/>
<path d="M500.2 300.619H492V298.719C492 297.719 492.8 296.819 493.9 296.819H498.3C499.3 296.819 500.2 297.619 500.2 298.719V300.619V300.619Z" fill="#F4EFF0"/>
<path d="M490.2 300.619H482V298.719C482 297.719 482.8 296.819 483.9 296.819H488.3C489.3 296.819 490.2 297.619 490.2 298.719V300.619V300.619Z" fill="#F4EFF0"/>
<path d="M480.2 300.619H472V298.719C472 297.719 472.8 296.819 473.9 296.819H478.3C479.3 296.819 480.2 297.619 480.2 298.719V300.619V300.619Z" fill="#F4EFF0"/>
<path d="M470.2 300.619H462V298.719C462 297.719 462.8 296.819 463.9 296.819H468.3C469.3 296.819 470.2 297.619 470.2 298.719V300.619V300.619Z" fill="#F4EFF0"/>
<path d="M460.2 300.619H452V298.719C452 297.719 452.8 296.819 453.9 296.819H458.3C459.3 296.819 460.2 297.619 460.2 298.719V300.619V300.619Z" fill="#F4EFF0"/>
<path d="M450.2 300.619H442V298.719C442 297.719 442.8 296.819 443.9 296.819H448.3C449.3 296.819 450.2 297.619 450.2 298.719V300.619V300.619Z" fill="#F4EFF0"/>
<path d="M440.2 300.619H432V298.719C432 297.719 432.8 296.819 433.9 296.819H438.3C439.3 296.819 440.2 297.619 440.2 298.719V300.619V300.619Z" fill="#F4EFF0"/>
<path d="M430.2 300.619H422V298.719C422 297.719 422.8 296.819 423.9 296.819H428.3C429.3 296.819 430.2 297.619 430.2 298.719V300.619V300.619Z" fill="#F4EFF0"/>
<path d="M420.2 300.619H412V298.719C412 297.719 412.8 296.819 413.9 296.819H418.3C419.3 296.819 420.2 297.619 420.2 298.719V300.619V300.619Z" fill="#F4EFF0"/>
<path d="M406.1 305.819H427.8C429.2 305.819 430.4 304.619 430.4 303.219H403.4C403.4 304.619 404.6 305.819 406.1 305.819Z" fill="#E2E2E2"/>
<path d="M415.8 387.019H336.7L336.1 345.019H434.1C440.7 345.019 446 350.319 446 356.919C445.9 373.619 432.4 387.019 415.8 387.019Z" fill="#352934"/>
<path d="M352.2 539.319L400.7 375.319C402.3 369.819 407.4 366.019 413.2 366.019C414.4 366.019 415.7 366.219 416.9 366.519C423.8 368.519 427.7 375.819 425.7 382.719L377.2 546.719L352.2 539.319Z" fill="#EF9067"/>
<path d="M392.5 525.919L352.2 514.019L403 342.319C406.3 331.219 418 324.819 429.1 328.119C440.2 331.419 446.6 343.119 443.3 354.219L392.5 525.919Z" fill="#352934"/>
<path d="M592.7 257.219H424.7C421.4 257.219 418.7 254.519 418.7 251.219L439.5 131.219C439.5 127.919 442.2 125.219 445.5 125.219H613.5C616.8 125.219 619.5 127.919 619.5 131.219L598.7 251.219C598.7 254.519 596.1 257.219 592.7 257.219Z" fill="#CECECE"/>
<path d="M602.7 257.219H434.7C431.4 257.219 428.7 254.519 428.7 251.219L449.5 131.219C449.5 127.919 452.2 125.219 455.5 125.219H623.5C626.8 125.219 629.5 127.919 629.5 131.219L608.7 251.219C608.7 254.519 606.1 257.219 602.7 257.219Z" fill="#F4EFF0"/>
<path d="M551.4 299.319L537.6 229.419H513C510 229.419 507.7 232.219 508.3 235.119L520.5 296.819C521 299.119 519.2 301.219 516.9 301.219H501.9C499.2 301.219 497.1 303.419 497.1 306.019H522.3H545.7C549.4 306.119 552.1 302.819 551.4 299.319Z" fill="#CECECE"/>
<path d="M552.7 306.119H527.2L512.4 231.119C512.2 230.219 512.9 229.519 513.8 229.519H542.5L556.7 301.419C557.1 303.819 555.2 306.119 552.7 306.119Z" fill="#F4EFF0"/>
<path d="M522.4 306.119H527.2L525.9 299.319H521L522.4 306.119Z" fill="#F4EFF0"/>
<path d="M522.4 306.119C524.9 306.119 526.8 303.819 526.3 301.319L525.9 299.319H520.5L522.4 306.119Z" fill="#CECECE"/>
<path d="M544.4 193.619C539 193.619 534.6 189.219 534.6 183.819C534.6 182.019 535.1 180.419 535.9 179.019C534.5 178.619 533 178.319 531.4 178.319C522.9 178.319 516.1 185.219 516.1 193.619C516.1 202.019 523 208.919 531.4 208.919C539.9 208.919 546.7 202.019 546.7 193.619C546.7 193.519 546.7 193.419 546.7 193.319C545.9 193.519 545.2 193.619 544.4 193.619Z" fill="#CECECE"/>
<path d="M428.1 364.119L345.7 385.819C323.3 391.719 300.6 375.819 289.7 349.519L417.4 323.419C428.6 320.519 440.1 327.219 443 338.419C446 349.719 439.3 361.219 428.1 364.119Z" fill="#3B323A"/>
<path d="M511 489.119L472.6 506.219L405.3 354.819C400.6 344.219 405.4 331.819 416 327.119C426.6 322.419 439 327.219 443.7 337.819L511 489.119Z" fill="#3B323A"/>
<path d="M225.5 333.819H653.7C658.9 333.819 663.2 329.519 663.2 324.319V315.319C663.2 310.119 658.9 305.819 653.7 305.819H225.5C220.3 305.819 216 310.119 216 315.319V324.319C216 329.519 220.2 333.819 225.5 333.819Z" fill="#F2F2F2"/>
<path d="M573.6 537.819L488.5 553.319C485.2 553.919 482.1 551.819 481.4 548.719L480.8 546.019C479.1 538.219 484.1 530.319 492.3 528.219L554.3 512.519C566.3 509.519 578.4 515.019 580.6 525.119L581.4 528.719C582.3 532.819 578.8 536.919 573.6 537.819Z" fill="#535452"/>
<path d="M576.9 530.119L481.8 547.419C481.6 547.419 481.4 547.519 481.2 547.519L481.5 548.719C482.2 551.919 485.3 553.919 488.6 553.319L573.7 537.819C578.9 536.919 582.5 532.819 581.6 528.719L581.5 528.419C580.1 529.219 578.6 529.819 576.9 530.119Z" fill="#FFFDFD"/>
<path d="M397.9 591.319L326.8 542.119C324.1 540.219 323.3 536.519 325.1 533.819L326.6 531.419C330.9 524.719 340.1 522.619 347.3 527.019L402.2 559.819C412.9 566.219 417.5 578.719 411.9 587.319L409.9 590.419C407.7 593.919 402.2 594.319 397.9 591.319Z" fill="#424441"/>
<path d="M405.7 588.219L326.2 533.219C326 533.119 325.9 532.919 325.7 532.819L325.1 533.819C323.4 536.519 324.1 540.219 326.8 542.119L397.9 591.319C402.2 594.319 407.7 593.919 409.9 590.419L410.1 590.119C408.6 589.819 407.1 589.119 405.7 588.219Z" fill="#CECECE"/>
<path d="M201 305.819H184.8C176.6 305.819 169.9 299.119 169.9 290.919V246.819H215.9V290.919C216 299.119 209.3 305.819 201 305.819Z" fill="#FF6161"/>
<path d="M175.1 252.819C164.4 252.819 155.8 261.519 155.8 272.119C155.8 282.719 164.5 291.419 175.1 291.419C185.7 291.419 194.4 282.719 194.4 272.119C194.4 261.519 185.7 252.819 175.1 252.819ZM175.1 287.219C166.8 287.219 160 280.419 160 272.119C160 263.819 166.8 257.019 175.1 257.019C183.4 257.019 190.2 263.819 190.2 272.119C190.1 280.519 183.4 287.219 175.1 287.219Z" fill="#F4A36C"/>
<path d="M201 305.819H184.8C176.6 305.819 169.9 299.119 169.9 290.919V246.819H215.9V290.919C216 299.119 209.3 305.819 201 305.819Z" fill="#F7BC8B"/>
<path d="M191.7 291.819C187.1 291.819 183.4 288.119 183.4 283.519V246.819H169.9V290.919C169.9 299.119 176.6 305.819 184.8 305.819H201C208.9 305.819 215.4 299.619 215.9 291.819H191.7Z" fill="#EFA573"/>
<path d="M382.4 305.819C383.4 303.219 383.9 300.419 383.9 297.519C383.9 284.219 373.2 273.519 359.9 273.519C346.6 273.519 335.9 284.219 335.9 297.519C335.9 300.419 336.4 303.219 337.4 305.819H382.4Z" fill="#FC9F6F"/>
<path opacity="0.77" d="M187.9 238.819C191.49 238.819 194.4 235.909 194.4 232.319C194.4 228.729 191.49 225.819 187.9 225.819C184.31 225.819 181.4 228.729 181.4 232.319C181.4 235.909 184.31 238.819 187.9 238.819Z" fill="#F2F2F2"/>
<path opacity="0.77" d="M199.9 219.319C205.257 219.319 209.6 214.977 209.6 209.619C209.6 204.262 205.257 199.919 199.9 199.919C194.543 199.919 190.2 204.262 190.2 209.619C190.2 214.977 194.543 219.319 199.9 219.319Z" fill="#F2F2F2"/>
<path d="M105 156.719C120.243 156.719 132.6 144.362 132.6 129.119C132.6 113.876 120.243 101.519 105 101.519C89.7568 101.519 77.3999 113.876 77.3999 129.119C77.3999 144.362 89.7568 156.719 105 156.719Z" fill="#005536"/>
<defs>
<linearGradient id="paint0_linear_0_1" x1="127.5" y1="119.5" x2="740.5" y2="517" gradientUnits="userSpaceOnUse">
<stop stop-color="#000100"/>
<stop offset="1" stop-color="#048E3B"/>
</linearGradient>
</defs>
</svg>
