<svg width="905" height="634" viewBox="0 0 905 634" fill="none" xmlns="http://www.w3.org/2000/svg">
<g clip-path="url(#clip0_17_59)">
<path d="M903.692 629.138H1.3078C0.960952 629.138 0.628307 629.004 0.383046 628.766C0.137785 628.528 0 628.206 0 627.869C0 627.533 0.137785 627.211 0.383046 626.973C0.628307 626.735 0.960952 626.601 1.3078 626.601H903.692C904.039 626.601 904.372 626.735 904.617 626.973C904.862 627.211 905 627.533 905 627.869C905 628.206 904.862 628.528 904.617 628.766C904.372 629.004 904.039 629.138 903.692 629.138Z" fill="#CCCCCC"/>
<path d="M814.375 407.942H283.407C281.152 407.942 278.99 408.81 277.396 410.357C275.802 411.903 274.906 413.999 274.906 416.186C274.906 418.372 275.802 420.469 277.396 422.015C278.99 423.561 281.152 424.43 283.407 424.43H298.446V621.653C298.446 623.839 299.342 625.936 300.936 627.482C302.53 629.028 304.693 629.897 306.947 629.897C309.202 629.897 311.364 629.028 312.958 627.482C314.552 625.936 315.448 623.839 315.448 621.653L315.577 424.43H781.026V621.653C781.026 623.839 781.921 625.936 783.516 627.482C785.11 629.028 787.272 629.897 789.527 629.897C791.781 629.897 793.943 629.028 795.538 627.482C797.132 625.936 798.027 623.839 798.027 621.653V428.777L800.501 424.43H814.375C816.629 424.43 818.792 423.561 820.386 422.015C821.98 420.469 822.876 418.372 822.876 416.186C822.876 413.999 821.98 411.903 820.386 410.357C818.792 408.81 816.629 407.942 814.375 407.942Z" fill="#CCCCCC"/>
<path d="M577.78 412.256H416.944C413.829 412.253 410.844 411.052 408.642 408.916C406.439 406.78 405.201 403.885 405.197 400.865V314.988C405.201 311.968 406.439 309.072 408.642 306.937C410.844 304.801 413.829 303.6 416.944 303.596H577.78C580.894 303.6 583.88 304.801 586.082 306.937C588.284 309.072 589.523 311.968 589.526 314.988V400.865C589.523 403.885 588.284 406.78 586.082 408.916C583.88 411.052 580.894 412.253 577.78 412.256Z" fill="#3F3D56"/>
<path d="M577.779 312.364H416.945C416.227 312.365 415.54 312.643 415.032 313.135C414.525 313.627 414.239 314.294 414.238 314.989V400.867C414.239 401.563 414.525 402.23 415.032 402.722C415.54 403.214 416.227 403.491 416.945 403.492H577.779C578.496 403.491 579.184 403.214 579.691 402.722C580.199 402.23 580.484 401.563 580.486 400.867V314.989C580.484 314.294 580.199 313.627 579.691 313.135C579.184 312.643 578.497 312.365 577.779 312.364Z" fill="white"/>
<path d="M511.079 373.164C511.079 373.164 491.825 368.862 481.236 376.75C470.646 384.638 494.713 402.566 494.713 402.566L511.079 373.164Z" fill="#2F2E41"/>
<path d="M498.305 365.035C508.335 365.035 516.466 357.149 516.466 347.422C516.466 337.694 508.335 329.808 498.305 329.808C488.275 329.808 480.143 337.694 480.143 347.422C480.143 357.149 488.275 365.035 498.305 365.035Z" fill="#A0616A"/>
<path d="M484.261 322.697C485.472 320.703 487.228 319.073 489.334 317.986C491.44 316.9 493.815 316.398 496.197 316.538C498.688 316.841 501.119 317.501 503.41 318.497L515.282 322.988C518.355 324.15 521.719 325.574 523.052 328.499C524.29 331.214 523.367 334.349 522.432 337.176L517.99 350.611C517.498 347.57 516.654 344.593 515.473 341.736C514.273 338.86 512.104 336.462 509.32 334.933C506.237 333.399 502.602 333.43 499.14 333.592C494.237 333.821 488.905 334.426 485.422 337.78C483.572 339.684 482.319 342.059 481.806 344.628C481.302 347.183 481.048 349.778 481.048 352.379C479.037 349.027 477.344 345.506 475.988 341.858C474.872 339.142 474.237 336.263 474.107 333.342C473.991 330.395 474.999 327.511 476.938 325.241C477.923 324.131 479.207 323.311 480.647 322.871C482.087 322.432 483.624 322.391 485.087 322.754L484.261 322.697Z" fill="#2F2E41"/>
<path d="M541.67 388.437C541.499 387.842 541.152 387.31 540.67 386.906C540.188 386.502 539.595 386.245 538.963 386.167C538.921 386.139 538.877 386.113 538.832 386.091L511.719 371.355C510.945 370.935 510.034 370.82 509.174 371.034C508.315 371.249 507.574 371.776 507.105 372.507L499.69 384.15L488.521 373.319L488.344 373.147C487.771 372.591 487.014 372.249 486.206 372.18C485.399 372.112 484.592 372.321 483.928 372.772L461.646 387.905C461.607 387.905 461.567 387.917 461.528 387.917C460.462 388.09 459.488 388.61 458.767 389.391C458.047 390.173 457.623 391.17 457.565 392.217L456.99 403.492H545.973L541.67 388.437Z" fill="#6C63FF"/>
<path d="M591.333 401.741H574.165C574.165 401.276 573.975 400.83 573.636 400.502C573.297 400.173 572.838 399.988 572.358 399.988H566.937C566.458 399.988 565.998 400.173 565.659 400.502C565.32 400.83 565.13 401.276 565.13 401.741H559.708C559.708 401.276 559.518 400.83 559.179 400.502C558.84 400.173 558.38 399.988 557.901 399.988H552.48C552 399.988 551.541 400.173 551.202 400.502C550.863 400.83 550.673 401.276 550.673 401.741H545.251C545.251 401.276 545.061 400.83 544.722 400.502C544.383 400.173 543.923 399.988 543.444 399.988H538.023C537.543 399.988 537.084 400.173 536.745 400.502C536.406 400.83 536.215 401.276 536.215 401.741H530.794C530.794 401.276 530.604 400.83 530.265 400.502C529.926 400.173 529.466 399.988 528.987 399.988H523.565C523.086 399.988 522.626 400.173 522.288 400.502C521.949 400.83 521.758 401.276 521.758 401.741H516.337C516.337 401.276 516.146 400.83 515.807 400.502C515.469 400.173 515.009 399.988 514.53 399.988H509.108C508.629 399.988 508.169 400.173 507.83 400.502C507.491 400.83 507.301 401.276 507.301 401.741H501.88C501.88 401.276 501.689 400.83 501.35 400.502C501.011 400.173 500.552 399.988 500.072 399.988H494.651C494.172 399.988 493.712 400.173 493.373 400.502C493.034 400.83 492.844 401.276 492.844 401.741H487.422C487.422 401.276 487.232 400.83 486.893 400.502C486.554 400.173 486.095 399.988 485.615 399.988H480.194C479.715 399.988 479.255 400.173 478.916 400.502C478.577 400.83 478.387 401.276 478.387 401.741H472.965C472.965 401.276 472.775 400.83 472.436 400.502C472.097 400.173 471.637 399.988 471.158 399.988H465.737C465.257 399.988 464.798 400.173 464.459 400.502C464.12 400.83 463.93 401.276 463.929 401.741H458.508C458.508 401.276 458.318 400.83 457.979 400.502C457.64 400.173 457.18 399.988 456.701 399.988H451.279C450.8 399.988 450.341 400.173 450.002 400.502C449.663 400.83 449.472 401.276 449.472 401.741H444.051C444.051 401.276 443.86 400.83 443.522 400.502C443.183 400.173 442.723 399.988 442.244 399.988H436.822C436.343 399.988 435.883 400.173 435.544 400.502C435.206 400.83 435.015 401.276 435.015 401.741H429.594C429.594 401.276 429.403 400.83 429.064 400.502C428.726 400.173 428.266 399.988 427.787 399.988H422.365C421.886 399.988 421.426 400.173 421.087 400.502C420.748 400.83 420.558 401.276 420.558 401.741H403.39C401.954 401.743 400.577 402.298 399.562 403.284C398.547 404.269 397.977 405.606 397.977 406.999C397.977 408.392 398.547 409.728 399.562 410.714C400.577 411.699 401.954 412.254 403.39 412.256H591.333C592.771 412.256 594.15 411.702 595.167 410.716C596.184 409.73 596.755 408.393 596.755 406.999C596.755 405.604 596.184 404.267 595.167 403.281C594.15 402.295 592.771 401.741 591.333 401.741Z" fill="#3F3D56"/>
<path d="M375.443 371.208V406.119H285.254C282.838 406.2 280.429 405.809 278.172 404.969C275.915 404.128 273.855 402.856 272.116 401.227C270.377 399.598 268.994 397.646 268.049 395.487C267.105 393.329 266.618 391.008 266.618 388.663C266.618 386.318 267.105 383.998 268.049 381.839C268.994 379.681 270.377 377.729 272.116 376.1C273.855 374.471 275.915 373.198 278.172 372.358C280.429 371.517 282.838 371.126 285.254 371.208H375.443Z" fill="#F2F2F2"/>
<path d="M377.658 405.85C377.658 406.206 377.512 406.548 377.253 406.8C376.993 407.051 376.641 407.193 376.274 407.193H283.648C278.617 407.193 273.792 405.255 270.235 401.805C266.678 398.355 264.679 393.676 264.679 388.798C264.679 383.919 266.678 379.24 270.235 375.79C273.792 372.34 278.617 370.402 283.648 370.402H376.274C376.641 370.402 376.993 370.543 377.253 370.795C377.512 371.047 377.658 371.389 377.658 371.745C377.658 372.101 377.512 372.442 377.253 372.694C376.993 372.946 376.641 373.087 376.274 373.087H283.648C279.354 373.091 275.237 374.748 272.202 377.694C269.168 380.64 267.463 384.633 267.463 388.798C267.463 392.962 269.168 396.955 272.202 399.901C275.237 402.847 279.354 404.504 283.648 404.508H376.274C376.641 404.508 376.993 404.649 377.253 404.901C377.512 405.153 377.658 405.494 377.658 405.85Z" fill="#6C63FF"/>
<path d="M375.443 379.264H278.525C278.488 379.264 278.452 379.258 278.418 379.244C278.384 379.231 278.354 379.211 278.328 379.186C278.302 379.161 278.281 379.131 278.267 379.099C278.253 379.066 278.246 379.031 278.246 378.996C278.246 378.96 278.253 378.925 278.267 378.892C278.281 378.86 278.302 378.83 278.328 378.805C278.354 378.78 278.384 378.76 278.418 378.747C278.452 378.733 278.488 378.727 278.525 378.727H375.443C375.516 378.727 375.586 378.756 375.637 378.806C375.689 378.857 375.718 378.925 375.718 378.996C375.718 379.066 375.689 379.134 375.637 379.185C375.586 379.235 375.516 379.264 375.443 379.264Z" fill="#CCCCCC"/>
<path d="M375.443 385.709H278.525C278.488 385.709 278.452 385.703 278.418 385.689C278.384 385.676 278.354 385.656 278.328 385.631C278.302 385.606 278.281 385.577 278.267 385.544C278.253 385.511 278.246 385.476 278.246 385.441C278.246 385.405 278.253 385.37 278.267 385.337C278.281 385.305 278.302 385.275 278.328 385.25C278.354 385.225 278.384 385.205 278.418 385.192C278.452 385.179 278.488 385.172 278.525 385.172H375.443C375.516 385.173 375.586 385.201 375.637 385.251C375.689 385.302 375.718 385.37 375.718 385.441C375.718 385.512 375.689 385.58 375.637 385.63C375.586 385.68 375.516 385.709 375.443 385.709Z" fill="#CCCCCC"/>
<path d="M375.443 392.154H278.525C278.488 392.155 278.452 392.148 278.418 392.134C278.384 392.121 278.354 392.101 278.328 392.076C278.302 392.051 278.281 392.022 278.267 391.989C278.253 391.956 278.246 391.921 278.246 391.886C278.246 391.85 278.253 391.815 278.267 391.783C278.281 391.75 278.302 391.72 278.328 391.695C278.354 391.67 278.384 391.65 278.418 391.637C278.452 391.624 278.488 391.617 278.525 391.617H375.443C375.516 391.618 375.586 391.646 375.637 391.697C375.689 391.747 375.718 391.815 375.718 391.886C375.718 391.957 375.689 392.025 375.637 392.075C375.586 392.125 375.516 392.154 375.443 392.154Z" fill="#CCCCCC"/>
<path d="M375.443 398.599H278.525C278.488 398.6 278.452 398.593 278.418 398.58C278.384 398.566 278.354 398.546 278.328 398.521C278.302 398.497 278.281 398.467 278.267 398.434C278.253 398.401 278.246 398.366 278.246 398.331C278.246 398.295 278.253 398.26 278.267 398.228C278.281 398.195 278.302 398.165 278.328 398.14C278.354 398.115 278.384 398.096 278.418 398.082C278.452 398.069 278.488 398.062 278.525 398.062H375.443C375.516 398.063 375.586 398.091 375.637 398.142C375.689 398.192 375.718 398.26 375.718 398.331C375.718 398.402 375.689 398.47 375.637 398.52C375.586 398.57 375.516 398.599 375.443 398.599Z" fill="#CCCCCC"/>
<path d="M358.442 334.427V369.338H268.253C265.836 369.419 263.428 369.028 261.17 368.188C258.913 367.347 256.854 366.075 255.115 364.446C253.375 362.817 251.992 360.865 251.048 358.706C250.103 356.548 249.616 354.227 249.616 351.882C249.616 349.537 250.103 347.217 251.048 345.058C251.992 342.9 253.375 340.948 255.115 339.319C256.854 337.69 258.913 336.417 261.17 335.577C263.428 334.736 265.836 334.345 268.253 334.427H358.442Z" fill="#F2F2F2"/>
<path d="M360.657 369.069C360.657 369.425 360.511 369.767 360.251 370.018C359.992 370.27 359.639 370.412 359.272 370.412H266.646C264.155 370.412 261.689 369.936 259.387 369.012C257.086 368.087 254.995 366.732 253.233 365.024C251.472 363.316 250.075 361.288 249.122 359.056C248.168 356.824 247.678 354.432 247.678 352.016C247.678 349.601 248.168 347.209 249.122 344.977C250.075 342.745 251.472 340.717 253.233 339.009C254.995 337.301 257.086 335.946 259.387 335.021C261.689 334.097 264.155 333.621 266.646 333.621H359.272C359.639 333.621 359.992 333.762 360.251 334.014C360.511 334.266 360.657 334.607 360.657 334.964C360.657 335.32 360.511 335.661 360.251 335.913C359.992 336.165 359.639 336.306 359.272 336.306H266.646C262.352 336.31 258.236 337.967 255.201 340.913C252.166 343.858 250.461 347.852 250.461 352.016C250.461 356.181 252.166 360.174 255.201 363.12C258.236 366.066 262.352 367.723 266.646 367.726H359.272C359.639 367.727 359.991 367.868 360.251 368.12C360.511 368.372 360.657 368.713 360.657 369.069Z" fill="#3F3D56"/>
<path d="M358.442 342.483H261.523C261.487 342.483 261.45 342.476 261.417 342.463C261.383 342.45 261.352 342.43 261.326 342.405C261.3 342.38 261.28 342.35 261.266 342.318C261.252 342.285 261.244 342.25 261.244 342.214C261.244 342.179 261.252 342.144 261.266 342.111C261.28 342.078 261.3 342.049 261.326 342.024C261.352 341.999 261.383 341.979 261.417 341.966C261.45 341.952 261.487 341.946 261.523 341.946H358.442C358.515 341.946 358.585 341.975 358.636 342.025C358.688 342.075 358.717 342.143 358.717 342.214C358.717 342.285 358.688 342.353 358.636 342.404C358.585 342.454 358.515 342.482 358.442 342.483Z" fill="#CCCCCC"/>
<path d="M358.442 348.928H261.523C261.487 348.928 261.45 348.922 261.417 348.908C261.383 348.895 261.352 348.875 261.326 348.85C261.3 348.825 261.28 348.796 261.266 348.763C261.252 348.73 261.244 348.695 261.244 348.66C261.244 348.624 261.252 348.589 261.266 348.556C261.28 348.524 261.3 348.494 261.326 348.469C261.352 348.444 261.383 348.424 261.417 348.411C261.45 348.398 261.487 348.391 261.523 348.391H358.442C358.515 348.392 358.585 348.42 358.636 348.47C358.688 348.521 358.717 348.589 358.717 348.66C358.717 348.731 358.688 348.799 358.636 348.849C358.585 348.899 358.515 348.928 358.442 348.928Z" fill="#CCCCCC"/>
<path d="M358.442 355.373H261.523C261.487 355.373 261.45 355.367 261.417 355.353C261.383 355.34 261.352 355.32 261.326 355.295C261.3 355.27 261.28 355.241 261.266 355.208C261.252 355.175 261.244 355.14 261.244 355.105C261.244 355.069 261.252 355.034 261.266 355.002C261.28 354.969 261.3 354.939 261.326 354.914C261.352 354.889 261.383 354.869 261.417 354.856C261.45 354.843 261.487 354.836 261.523 354.836H358.442C358.515 354.837 358.585 354.865 358.636 354.915C358.688 354.966 358.717 355.034 358.717 355.105C358.717 355.176 358.688 355.244 358.636 355.294C358.585 355.344 358.515 355.373 358.442 355.373Z" fill="#CCCCCC"/>
<path d="M358.442 361.818H261.523C261.487 361.819 261.45 361.812 261.417 361.798C261.383 361.785 261.352 361.765 261.326 361.74C261.3 361.715 261.28 361.686 261.266 361.653C261.252 361.62 261.244 361.585 261.244 361.55C261.244 361.514 261.252 361.479 261.266 361.447C261.28 361.414 261.3 361.384 261.326 361.359C261.352 361.334 261.383 361.315 261.417 361.301C261.45 361.288 261.487 361.281 261.523 361.281H358.442C358.515 361.282 358.585 361.31 358.636 361.361C358.688 361.411 358.717 361.479 358.717 361.55C358.717 361.621 358.688 361.689 358.636 361.739C358.585 361.789 358.515 361.818 358.442 361.818Z" fill="#CCCCCC"/>
<path d="M463.359 530.209V499.77C463.359 498.424 462.808 497.134 461.827 496.182C460.846 495.231 459.515 494.697 458.128 494.697H339.118C337.73 494.697 336.4 495.231 335.419 496.182C334.438 497.134 333.887 498.424 333.886 499.77V530.209H463.359Z" fill="#CCCCCC"/>
<path d="M463.359 541.624H333.886V580.942H463.359V541.624Z" fill="#CCCCCC"/>
<path d="M333.886 592.357V622.796C333.887 624.142 334.438 625.432 335.419 626.383C336.4 627.335 337.73 627.869 339.118 627.869H458.128C459.515 627.869 460.846 627.335 461.827 626.383C462.808 625.432 463.359 624.142 463.359 622.796V592.357H333.886Z" fill="#CCCCCC"/>
<path d="M397.969 517.526C400.136 517.526 401.892 515.823 401.892 513.721C401.892 511.62 400.136 509.916 397.969 509.916C395.802 509.916 394.045 511.62 394.045 513.721C394.045 515.823 395.802 517.526 397.969 517.526Z" fill="white"/>
<path d="M397.969 568.259C400.136 568.259 401.892 566.555 401.892 564.454C401.892 562.352 400.136 560.649 397.969 560.649C395.802 560.649 394.045 562.352 394.045 564.454C394.045 566.555 395.802 568.259 397.969 568.259Z" fill="white"/>
<path d="M398.179 617.917C400.346 617.917 402.102 616.213 402.102 614.112C402.102 612.011 400.346 610.307 398.179 610.307C396.012 610.307 394.256 612.011 394.256 614.112C394.256 616.213 396.012 617.917 398.179 617.917Z" fill="white"/>
<path d="M448.68 459.99V494.901H358.491C356.074 494.982 353.666 494.591 351.409 493.751C349.152 492.91 347.092 491.638 345.353 490.009C343.614 488.38 342.231 486.428 341.286 484.269C340.341 482.111 339.854 479.79 339.854 477.445C339.854 475.1 340.341 472.78 341.286 470.621C342.231 468.463 343.614 466.511 345.353 464.882C347.092 463.253 349.152 461.98 351.409 461.14C353.666 460.299 356.074 459.908 358.491 459.99H448.68Z" fill="#F2F2F2"/>
<path d="M450.895 494.632C450.895 494.988 450.749 495.33 450.49 495.582C450.23 495.833 449.878 495.975 449.511 495.975H356.884C354.392 495.977 351.924 495.503 349.621 494.579C347.318 493.655 345.225 492.301 343.462 490.592C341.699 488.884 340.3 486.855 339.346 484.623C338.391 482.39 337.9 479.996 337.9 477.579C337.9 475.162 338.391 472.769 339.346 470.536C340.3 468.303 341.699 466.275 343.462 464.566C345.225 462.858 347.318 461.503 349.621 460.58C351.924 459.656 354.392 459.182 356.884 459.184H449.511C449.878 459.184 450.23 459.325 450.49 459.577C450.749 459.829 450.895 460.17 450.895 460.527C450.895 460.883 450.749 461.224 450.49 461.476C450.23 461.728 449.878 461.869 449.511 461.869H356.884C352.591 461.873 348.474 463.53 345.439 466.476C342.404 469.421 340.7 473.415 340.7 477.579C340.7 481.743 342.404 485.737 345.439 488.683C348.474 491.629 352.591 493.286 356.884 493.289H449.511C449.878 493.29 450.23 493.431 450.489 493.683C450.749 493.935 450.895 494.276 450.895 494.632Z" fill="#3F3D56"/>
<path d="M448.68 468.046H351.762C351.725 468.046 351.689 468.039 351.655 468.026C351.621 468.013 351.591 467.993 351.565 467.968C351.539 467.943 351.518 467.913 351.504 467.881C351.49 467.848 351.483 467.813 351.483 467.777C351.483 467.742 351.49 467.707 351.504 467.674C351.518 467.641 351.539 467.612 351.565 467.587C351.591 467.562 351.621 467.542 351.655 467.529C351.689 467.515 351.725 467.509 351.762 467.509H448.68C448.753 467.509 448.823 467.538 448.875 467.588C448.926 467.638 448.955 467.706 448.955 467.777C448.955 467.848 448.926 467.916 448.875 467.967C448.823 468.017 448.753 468.045 448.68 468.046Z" fill="#CCCCCC"/>
<path d="M448.68 474.491H351.762C351.725 474.491 351.689 474.485 351.655 474.471C351.621 474.458 351.591 474.438 351.565 474.413C351.539 474.388 351.518 474.358 351.504 474.326C351.49 474.293 351.483 474.258 351.483 474.223C351.483 474.187 351.49 474.152 351.504 474.119C351.518 474.087 351.539 474.057 351.565 474.032C351.591 474.007 351.621 473.987 351.655 473.974C351.689 473.96 351.725 473.954 351.762 473.954H448.68C448.753 473.954 448.823 473.983 448.875 474.033C448.926 474.084 448.955 474.152 448.955 474.223C448.955 474.293 448.926 474.361 448.875 474.412C448.823 474.462 448.753 474.491 448.68 474.491Z" fill="#CCCCCC"/>
<path d="M448.68 480.936H351.762C351.725 480.936 351.689 480.93 351.655 480.916C351.621 480.903 351.591 480.883 351.565 480.858C351.539 480.833 351.518 480.804 351.504 480.771C351.49 480.738 351.483 480.703 351.483 480.668C351.483 480.632 351.49 480.597 351.504 480.565C351.518 480.532 351.539 480.502 351.565 480.477C351.591 480.452 351.621 480.432 351.655 480.419C351.689 480.406 351.725 480.399 351.762 480.399H448.68C448.753 480.4 448.823 480.428 448.875 480.478C448.926 480.529 448.955 480.597 448.955 480.668C448.955 480.739 448.926 480.807 448.875 480.857C448.823 480.907 448.753 480.936 448.68 480.936Z" fill="#CCCCCC"/>
<path d="M448.68 487.381H351.762C351.725 487.382 351.689 487.375 351.655 487.361C351.621 487.348 351.591 487.328 351.565 487.303C351.539 487.278 351.518 487.249 351.504 487.216C351.49 487.183 351.483 487.148 351.483 487.113C351.483 487.077 351.49 487.042 351.504 487.01C351.518 486.977 351.539 486.947 351.565 486.922C351.591 486.897 351.621 486.878 351.655 486.864C351.689 486.851 351.725 486.844 351.762 486.844H448.68C448.753 486.845 448.823 486.873 448.875 486.924C448.926 486.974 448.955 487.042 448.955 487.113C448.955 487.184 448.926 487.252 448.875 487.302C448.823 487.352 448.753 487.381 448.68 487.381Z" fill="#CCCCCC"/>
<path d="M327.095 232.128V9.53954C327.098 7.01038 328.135 4.58564 329.98 2.79725C331.824 1.00887 334.324 0.00287683 336.932 0H518.361C520.969 0.00289358 523.47 1.00889 525.314 2.79727C527.158 4.58565 528.195 7.01039 528.198 9.53954V232.128C528.195 234.658 527.158 237.082 525.314 238.871C523.47 240.659 520.969 241.665 518.361 241.668H336.932C334.324 241.665 331.824 240.659 329.98 238.871C328.135 237.082 327.098 234.658 327.095 232.128ZM336.932 2.1199C334.903 2.1221 332.959 2.90452 331.524 4.2955C330.09 5.68647 329.283 7.5724 329.281 9.53954V232.128C329.283 234.096 330.09 235.981 331.524 237.372C332.959 238.763 334.903 239.546 336.932 239.548H518.361C520.39 239.546 522.334 238.763 523.769 237.372C525.203 235.981 526.01 234.096 526.012 232.128V9.53954C526.01 7.5724 525.203 5.68647 523.769 4.2955C522.334 2.90452 520.39 2.1221 518.361 2.1199H336.932Z" fill="#E6E6E6"/>
<path d="M437.821 102.223V56.5186C437.822 55.254 438.341 54.0416 439.263 53.1474C440.185 52.2532 441.435 51.7502 442.739 51.7488H482.675C483.979 51.7502 485.229 52.2532 486.151 53.1474C487.073 54.0416 487.592 55.254 487.594 56.5186V102.223C487.592 103.488 487.073 104.7 486.151 105.594C485.229 106.488 483.979 106.991 482.675 106.993H442.739C441.435 106.991 440.185 106.488 439.263 105.594C438.341 104.7 437.822 103.488 437.821 102.223Z" fill="#6C63FF"/>
<path d="M360.221 123.422V77.7176C360.223 76.453 360.741 75.2406 361.663 74.3464C362.585 73.4522 363.836 72.9492 365.14 72.9478H405.076C406.38 72.9492 407.63 73.4522 408.552 74.3464C409.474 75.2406 409.993 76.453 409.994 77.7176V123.422C409.993 124.687 409.474 125.899 408.552 126.793C407.63 127.687 406.38 128.19 405.076 128.192H365.14C363.836 128.19 362.585 127.687 361.663 126.793C360.741 125.899 360.223 124.687 360.221 123.422Z" fill="#CCCCCC"/>
<path d="M422.519 188.079V142.374C422.521 141.11 423.039 139.897 423.961 139.003C424.883 138.109 426.134 137.606 427.438 137.605H467.374C468.678 137.606 469.928 138.109 470.85 139.003C471.772 139.897 472.291 141.11 472.292 142.374V188.079C472.291 189.343 471.772 190.556 470.85 191.45C469.928 192.344 468.678 192.847 467.374 192.849H427.438C426.134 192.847 424.883 192.344 423.961 191.45C423.039 190.556 422.521 189.343 422.519 188.079Z" fill="#FF6584"/>
<path d="M661.177 397.037H620.086C619.696 397.036 619.311 397.123 618.961 397.29L608.59 402.325C608.249 402.466 607.958 402.701 607.753 403.001C607.549 403.301 607.439 403.653 607.439 404.012C607.439 404.372 607.549 404.724 607.753 405.024C607.958 405.324 608.249 405.558 608.59 405.699L618.961 410.734C619.311 410.902 619.696 410.988 620.086 410.988H661.177C661.743 411.02 662.299 410.834 662.725 410.471C663.151 410.108 663.413 409.596 663.453 409.047V398.977C663.413 398.428 663.151 397.917 662.725 397.554C662.299 397.191 661.743 397.005 661.177 397.037Z" fill="#3F3D56"/>
<path d="M663.453 398.977V409.047C663.413 409.596 663.152 410.107 662.726 410.471C662.3 410.834 661.743 411.02 661.177 410.988H652.99V397.036H661.177C661.743 397.005 662.3 397.191 662.726 397.554C663.152 397.917 663.413 398.428 663.453 398.977Z" fill="#6C63FF"/>
<path d="M660.868 321.698C662.729 320.919 664.739 320.531 666.766 320.558C668.793 320.584 670.791 321.026 672.63 321.854C674.468 322.682 676.106 323.878 677.435 325.362C678.764 326.847 679.754 328.587 680.342 330.468C680.524 331.065 680.664 331.673 680.76 332.288L738.223 359.923L751.521 351.376L768.067 369.849L747.762 385.843C745.32 387.751 742.309 388.845 739.175 388.962C736.042 389.079 732.953 388.213 730.366 386.493L672.066 347.393C671.632 347.572 671.189 347.729 670.738 347.863C668.798 348.432 666.755 348.597 664.744 348.347C662.733 348.097 660.8 347.438 659.07 346.413C657.34 345.388 655.853 344.02 654.706 342.399C653.559 340.777 652.779 338.939 652.415 337.005C652.308 336.444 652.237 335.876 652.203 335.306C652.041 332.451 652.785 329.617 654.334 327.184C655.883 324.751 658.163 322.837 660.868 321.698Z" fill="#FFB8B8"/>
<path d="M780.551 491.841H717.764C717.764 493.591 653.053 495.012 653.053 495.012C652.038 495.754 651.112 496.604 650.294 497.548C647.836 500.391 646.493 503.985 646.501 507.695V510.232C646.503 514.436 648.225 518.467 651.291 521.44C654.356 524.413 658.513 526.084 662.849 526.085H780.551C784.885 526.082 789.041 524.41 792.106 521.438C795.171 518.466 796.895 514.435 796.898 510.232V507.695C796.893 503.492 795.168 499.463 792.104 496.491C789.039 493.519 784.885 491.847 780.551 491.841Z" fill="#3F3D56"/>
<path d="M712.253 631.994H729.254V525.456H712.253V631.994Z" fill="#3F3D56"/>
<path d="M663.864 631.415C663.864 633.196 689.627 632.104 721.407 632.104C753.188 632.104 778.951 633.196 778.951 631.415C778.951 629.633 753.188 615.506 721.407 615.506C689.627 615.506 663.864 629.633 663.864 631.415Z" fill="#3F3D56"/>
<path d="M679.212 618.928L663.179 618.926L655.551 578.598L679.214 578.599L679.212 618.928Z" fill="#FFB8B8"/>
<path d="M683.301 634L631.603 633.998V633.364C631.603 630.801 632.123 628.264 633.134 625.896C634.146 623.528 635.628 621.377 637.497 619.565C639.365 617.753 641.583 616.315 644.025 615.335C646.466 614.354 649.083 613.849 651.725 613.849H651.727L683.302 613.851L683.301 634Z" fill="#2F2E41"/>
<path d="M655.231 593.919L623.267 524.406C620.599 518.547 620.304 511.928 622.441 505.868C624.578 499.808 628.991 494.75 634.8 491.704L704.131 455.648L735.769 453.039L764.952 450.466L765.162 450.812C765.431 451.253 771.706 461.763 767.465 473.288C764.248 482.03 755.879 488.859 742.592 493.584C711.578 504.612 675.751 514.038 661.787 517.578C661.17 517.731 660.594 518.009 660.095 518.393C659.597 518.778 659.188 519.261 658.896 519.81C658.603 520.352 658.429 520.948 658.384 521.558C658.34 522.169 658.427 522.783 658.639 523.359L688.335 588.062C688.645 588.883 688.756 589.761 688.661 590.63C688.566 591.499 688.266 592.336 687.784 593.075C687.303 593.813 686.653 594.435 685.885 594.892C685.116 595.349 684.25 595.628 683.353 595.709L661.164 597.276C660.976 597.293 660.788 597.302 660.601 597.302C659.465 597.301 658.353 596.982 657.4 596.381C656.447 595.781 655.694 594.926 655.231 593.919Z" fill="#2F2E41"/>
<path d="M687.059 618.928L671.026 618.926L663.398 578.598L687.061 578.599L687.059 618.928Z" fill="#FFB8B8"/>
<path d="M691.148 634L639.45 633.998V633.364C639.45 630.801 639.97 628.264 640.981 625.896C641.993 623.528 643.475 621.377 645.343 619.565C647.212 617.753 649.43 616.315 651.872 615.335C654.313 614.354 656.93 613.849 659.572 613.849H659.574L691.149 613.851L691.148 634Z" fill="#2F2E41"/>
<path d="M664.386 597.724L632.422 528.211C629.753 522.352 629.458 515.733 631.595 509.673C633.733 503.613 638.145 498.555 643.955 495.508L713.286 459.453L744.923 456.844L774.107 454.271L774.317 454.617C774.586 455.058 780.861 465.568 776.619 477.093C773.402 485.835 765.034 492.663 751.747 497.389C720.733 508.417 684.906 517.843 670.942 521.383C670.325 521.536 669.748 521.814 669.25 522.198C668.751 522.583 668.343 523.066 668.05 523.615C667.757 524.157 667.583 524.752 667.539 525.363C667.495 525.974 667.581 526.588 667.794 527.164L697.489 591.867C697.799 592.688 697.911 593.566 697.816 594.435C697.72 595.304 697.42 596.141 696.939 596.879C696.458 597.618 695.808 598.24 695.039 598.697C694.271 599.154 693.405 599.433 692.507 599.514L670.319 601.081C670.13 601.098 669.943 601.107 669.756 601.107C668.62 601.106 667.508 600.787 666.555 600.186C665.602 599.586 664.848 598.731 664.386 597.724Z" fill="#2F2E41"/>
<path d="M648.454 385.37C635.022 368.043 624.404 348.824 616.968 328.382C616.537 327.159 616.568 325.828 617.055 324.625C617.541 323.422 618.452 322.426 619.625 321.813L665.588 297.929C666.332 297.539 667.157 297.32 668.002 297.286C668.846 297.253 669.687 297.407 670.461 297.737C671.249 298.069 671.948 298.571 672.506 299.205C673.064 299.839 673.465 300.588 673.68 301.395C679.029 321.094 689.085 339.295 703.034 354.525C703.608 355.145 704.029 355.884 704.264 356.685C704.5 357.487 704.543 358.33 704.392 359.15C704.246 359.957 703.913 360.722 703.417 361.385C702.92 362.049 702.275 362.593 701.529 362.978L655.565 386.862C654.39 387.47 653.03 387.654 651.728 387.381C650.425 387.107 649.265 386.395 648.454 385.37Z" fill="#CCCCCC"/>
<path d="M651.591 383.084C651.838 383.383 652.185 383.589 652.572 383.667C652.96 383.744 653.363 383.689 653.712 383.509L699.676 359.624C699.899 359.511 700.092 359.35 700.24 359.152C700.388 358.955 700.487 358.727 700.529 358.486C700.577 358.232 700.563 357.971 700.49 357.722C700.416 357.474 700.284 357.246 700.104 357.056C685.744 341.376 675.392 322.639 669.885 302.36C669.821 302.109 669.698 301.876 669.526 301.679C669.354 301.482 669.138 301.327 668.893 301.224C668.663 301.125 668.412 301.078 668.16 301.088C667.908 301.098 667.662 301.165 667.441 301.283L621.479 325.167C621.131 325.349 620.859 325.644 620.711 326C620.563 326.356 620.548 326.751 620.668 327.116C627.971 347.193 638.399 366.067 651.591 383.084Z" fill="white"/>
<path d="M801.151 378.998L765.154 392.264L756.365 368.589C755.198 365.445 755.215 362.003 756.412 358.87C757.609 355.736 759.909 353.115 762.907 351.467C765.939 349.801 769.486 349.241 772.906 349.889C776.327 350.536 779.396 352.349 781.559 354.999L801.151 378.998Z" fill="#6C63FF"/>
<path d="M709.592 472.803C708.834 472.283 708.199 471.613 707.729 470.837C707.26 470.061 706.966 469.197 706.867 468.302C702.256 426.562 705.468 393.897 716.683 368.441C718.658 364.051 721.634 360.152 725.387 357.037C729.139 353.922 733.571 351.672 738.349 350.457L767.447 349.033L767.598 349.103C774.164 352.222 779.519 357.31 782.869 363.613C786.218 369.916 787.384 377.098 786.194 384.094C776.835 408.019 768.998 432.928 774.975 453.022C775.225 453.862 775.298 454.743 775.19 455.611C775.081 456.479 774.793 457.317 774.342 458.074C773.905 458.806 773.318 459.444 772.617 459.948C771.916 460.451 771.117 460.81 770.267 461.003L714.845 473.789C713.947 473.996 713.014 474.015 712.108 473.845C711.203 473.675 710.345 473.32 709.592 472.803Z" fill="#6C63FF"/>
<path d="M757.736 338.493C775.476 338.493 789.857 324.546 789.857 307.342C789.857 290.137 775.476 276.191 757.736 276.191C739.996 276.191 725.615 290.137 725.615 307.342C725.615 324.546 739.996 338.493 757.736 338.493Z" fill="#FFB8B8"/>
<path d="M668.606 332.014L643.572 342.731C642.62 343.137 641.541 343.161 640.571 342.796C639.601 342.432 638.82 341.709 638.399 340.787L637.78 339.426C637.361 338.503 637.336 337.456 637.712 336.515C638.088 335.575 638.833 334.817 639.784 334.409L664.818 323.692C665.77 323.286 666.849 323.262 667.819 323.627C668.789 323.991 669.57 324.714 669.991 325.636L670.611 326.997C671.03 327.92 671.054 328.967 670.678 329.907C670.302 330.848 669.557 331.606 668.606 332.014Z" fill="#CCCCCC"/>
<path d="M677.761 348.502L652.727 359.219C651.775 359.625 650.696 359.649 649.726 359.284C648.756 358.92 647.975 358.197 647.553 357.275L646.934 355.914C646.515 354.991 646.491 353.944 646.867 353.004C647.243 352.063 647.988 351.305 648.939 350.897L673.973 340.18C674.925 339.774 676.004 339.75 676.974 340.115C677.944 340.479 678.725 341.202 679.146 342.124L679.765 343.485C680.184 344.408 680.209 345.455 679.833 346.396C679.457 347.336 678.712 348.094 677.761 348.502Z" fill="#CCCCCC"/>
<path d="M697.066 412.903L641.256 370.204C640.812 370.356 640.359 370.485 639.901 370.592C637.931 371.039 635.887 371.079 633.9 370.709C631.913 370.34 630.029 369.569 628.369 368.447C626.699 367.324 625.295 365.868 624.251 364.177C623.208 362.485 622.549 360.597 622.319 358.638C621.944 355.508 622.672 352.346 624.383 349.667C626.095 346.987 628.689 344.947 631.747 343.878C633.655 343.214 635.686 342.949 637.707 343.099C639.728 343.25 641.694 343.813 643.475 344.751C645.256 345.689 646.813 346.982 648.043 348.545C649.273 350.107 650.149 351.904 650.613 353.818C650.757 354.424 650.857 355.04 650.913 355.66L706.47 386.743L720.296 379.023L735.612 398.469L714.145 413.307C711.632 415.03 708.613 415.921 705.537 415.848C702.46 415.776 699.489 414.743 697.066 412.903Z" fill="#FFB8B8"/>
<path d="M742.422 404.525L710.578 383.525L725.543 362.969C727.531 360.24 730.449 358.28 733.782 357.435C737.115 356.59 740.649 356.915 743.759 358.353C746.905 359.807 749.412 362.304 750.825 365.394C752.239 368.483 752.467 371.961 751.468 375.199L742.422 404.525Z" fill="#6C63FF"/>
<path d="M745.96 302.702C737.704 308.182 726.864 313.814 718.432 307.979C712.895 304.147 711.151 297.052 713.396 290.825C717.433 279.628 728.527 274.698 739.134 270.92C752.924 266.007 767.939 262.099 782.175 265.617C796.411 269.135 808.993 282.502 806.423 296.53C804.356 307.81 793.384 317.197 794.942 328.554C796.509 339.984 809.764 346.001 821.466 348.044C833.168 350.087 846.262 350.743 854.672 358.894C865.4 369.293 862.721 387.88 852.626 398.858C842.532 409.837 827.298 414.814 812.537 418.197C792.98 422.68 771.827 425.035 753.252 417.596C734.677 410.157 720.222 390.132 725.603 371.354C727.876 363.422 733.23 356.719 738.405 350.193C743.579 343.667 748.819 336.842 750.793 328.836C752.438 322.163 751.22 314.417 746.658 309.412C745.828 308.536 745.306 307.427 745.166 306.245C745.026 305.063 745.276 303.869 745.88 302.834L745.96 302.702Z" fill="#2F2E41"/>
<path d="M142.645 454.054C134.368 456.876 125.481 457.582 116.841 456.106C108.201 454.63 100.098 451.021 93.3132 445.626C76.0345 431.562 70.6171 408.391 66.2092 386.935C61.8633 365.782 57.5173 344.628 53.1714 323.474L80.4674 341.702C100.097 354.81 120.169 368.338 133.76 387.324C147.352 406.311 153.285 432.229 142.364 452.773" fill="#E6E6E6"/>
<path d="M140.312 530.886C143.074 511.37 145.915 491.604 143.977 471.878C142.256 454.36 136.745 437.25 125.526 423.22C119.57 415.788 112.324 409.419 104.112 404.402C101.971 403.091 99.9997 406.382 102.132 407.687C116.341 416.396 127.331 429.256 133.518 444.413C140.351 461.268 141.448 479.642 140.27 497.547C139.558 508.375 138.049 519.132 136.528 529.875C136.408 530.361 136.483 530.873 136.738 531.307C136.992 531.742 137.407 532.066 137.898 532.215C138.4 532.346 138.935 532.28 139.386 532.032C139.838 531.783 140.171 531.371 140.312 530.886H140.312Z" fill="#F2F2F2"/>
<path d="M113.702 496.352C110.152 501.585 105.272 505.842 99.5334 508.715C93.7944 511.587 87.3893 512.978 80.9351 512.753C64.348 511.99 50.5197 500.763 38.0717 490.104L1.25269 458.577L25.6207 457.446C43.1448 456.633 61.121 455.874 77.812 461.115C94.5031 466.356 109.896 478.969 112.949 495.724" fill="#E6E6E6"/>
<path d="M148.119 542.105C134.822 519.287 119.398 493.927 91.8385 485.821C84.1755 483.575 76.1404 482.771 68.1659 483.451C65.6525 483.661 66.2801 487.418 68.7889 487.209C82.156 486.132 95.4973 489.555 106.567 496.901C117.219 503.933 125.512 513.709 132.532 524.075C136.832 530.425 140.683 537.045 144.535 543.655C145.767 545.768 149.365 544.243 148.119 542.105Z" fill="#F2F2F2"/>
<path d="M169.426 566.123C168.978 561.089 167.114 556.27 164.037 552.191C160.96 548.113 156.788 544.932 151.976 542.993V529.802H129.161V543.409C124.586 545.442 120.648 548.616 117.75 552.606C114.851 556.596 113.096 561.261 112.662 566.123L107.297 626.601H174.79L169.426 566.123Z" fill="#F2F2F2"/>
</g>
<defs>
<clipPath id="clip0_17_59">
<rect width="905" height="634" fill="white"/>
</clipPath>
</defs>
</svg>
