<svg width="40" height="40" viewBox="0 0 40 40" fill="none" xmlns="http://www.w3.org/2000/svg">
<path d="M11.9336 2.5C6.73828 2.5 2.5 6.73828 2.5 11.9336V25.5762C2.5 30.7617 6.73828 35 11.9336 35H25.5762C30.7617 35 35 30.7617 35 25.5664V11.9336C35 6.73828 30.7617 2.5 25.5664 2.5H11.9336ZM11.9336 5H25.5664C29.4141 5 32.5 8.08594 32.5 11.9336V25.5664C32.5 29.4141 29.4141 32.5 25.5762 32.5H11.9336C8.08594 32.5 5 29.4141 5 25.5762V11.9336C5 8.08594 8.08594 5 11.9336 5ZM28.75 7.5C28.0566 7.5 27.5 8.05664 27.5 8.75C27.5 9.44336 28.0566 10 28.75 10C29.4434 10 30 9.44336 30 8.75C30 8.05664 29.4434 7.5 28.75 7.5ZM18.75 10C13.9355 10 10 13.9355 10 18.75C10 23.5645 13.9355 27.5 18.75 27.5C23.5645 27.5 27.5 23.5645 27.5 18.75C27.5 13.9355 23.5645 10 18.75 10ZM18.75 12.5C22.2168 12.5 25 15.2832 25 18.75C25 22.2168 22.2168 25 18.75 25C15.2832 25 12.5 22.2168 12.5 18.75C12.5 15.2832 15.2832 12.5 18.75 12.5Z" fill="white"/>
</svg>
