<svg width="1287" height="830" viewBox="0 0 1287 830" fill="none" xmlns="http://www.w3.org/2000/svg">
<path d="M126 765.32C126 765.32 -183 527.83 168.1 269.84C585 -36.4602 967.61 -107.66 1180.65 192.5C1361.58 447.42 1218.26 686.7 1076.38 765.32C924.25 777.29 126 765.32 126 765.32Z" fill="#EDE4DD"/>
<path d="M743.8 531.68C743.8 531.68 761.48 663.61 595.4 721.38C546.82 738.93 515.8 758.07 515.8 758.07C515.8 758.07 547.42 652.5 611.05 617.44C713.4 561 743.8 531.68 743.8 531.68Z" stroke="white" stroke-width="2.81" stroke-linecap="round" stroke-linejoin="round"/>
<path d="M558.81 348.51C558.81 348.51 658.81 468.01 517.26 747.65C504.26 773.29 492.26 758.07 492.26 758.07C492.26 758.07 471.37 488.55 558.81 348.51Z" stroke="white" stroke-width="2.81" stroke-linecap="round" stroke-linejoin="round"/>
<path d="M525 747.651C525 747.651 543 683.941 630.07 644.881C717.14 605.821 743.79 531.701 743.79 531.701" stroke="white" stroke-width="2.81" stroke-linecap="round" stroke-linejoin="round"/>
<path d="M515.82 758.07C515.82 758.07 569.55 405.35 558.82 348.49" stroke="white" stroke-width="2.81" stroke-linecap="round" stroke-linejoin="round"/>
<path d="M671.27 682.041L592.96 665.451" stroke="white" stroke-width="2.81" stroke-linecap="round" stroke-linejoin="round"/>
<path d="M701.52 653.979L625.82 648.52" stroke="white" stroke-width="2.81" stroke-linecap="round" stroke-linejoin="round"/>
<path d="M720.97 626.98H662.74" stroke="white" stroke-width="2.81" stroke-linecap="round" stroke-linejoin="round"/>
<path d="M709.58 557.74L706.85 589.11L741.2 576.41" stroke="white" stroke-width="2.81" stroke-linecap="round" stroke-linejoin="round"/>
<path d="M685.25 576.41V610.11L733.9 599.62" stroke="white" stroke-width="2.81" stroke-linecap="round" stroke-linejoin="round"/>
<path d="M663.5 588.711L661.99 625.991" stroke="white" stroke-width="2.81" stroke-linecap="round" stroke-linejoin="round"/>
<path d="M634.39 604.35L625.82 646.84" stroke="white" stroke-width="2.81" stroke-linecap="round" stroke-linejoin="round"/>
<path d="M602.15 622.93L592.96 665.45" stroke="white" stroke-width="2.81" stroke-linecap="round" stroke-linejoin="round"/>
<path d="M543.04 377.471L558.86 407.071L575.7 379.641" stroke="white" stroke-width="2.81" stroke-linecap="round" stroke-linejoin="round"/>
<path d="M529.74 409.32L555.06 445.71L586.22 413.87" stroke="white" stroke-width="2.81" stroke-linecap="round" stroke-linejoin="round"/>
<path d="M522.1 432L550.94 479.97" stroke="white" stroke-width="2.81" stroke-linecap="round" stroke-linejoin="round"/>
<path d="M552.43 479.971L591.39 450.631" stroke="white" stroke-width="2.81" stroke-linecap="round" stroke-linejoin="round"/>
<path d="M592.96 488.42L546.23 528.42" stroke="white" stroke-width="2.81" stroke-linecap="round" stroke-linejoin="round"/>
<path d="M511.53 479.971L546.23 528.421" stroke="white" stroke-width="2.81" stroke-linecap="round" stroke-linejoin="round"/>
<path d="M542.98 561.591L589.72 521.73" stroke="white" stroke-width="2.81" stroke-linecap="round" stroke-linejoin="round"/>
<path d="M309.05 605C309.05 605 341.68 708.86 445.19 743.3C548.7 777.74 419.65 619.15 309.05 605Z" stroke="white" stroke-width="2.81" stroke-linecap="round" stroke-linejoin="round"/>
<path d="M309.05 605.02L499.31 753.219" stroke="white" stroke-width="2.81" stroke-linecap="round" stroke-linejoin="round"/>
<path d="M402.24 723.061L451.15 715.721" stroke="white" stroke-width="2.81" stroke-linecap="round" stroke-linejoin="round"/>
<path d="M336.63 611.281L348.67 635.881L318.21 626.981" stroke="white" stroke-width="2.81" stroke-linecap="round" stroke-linejoin="round"/>
<path d="M366.81 623.58L376.13 657.27L333.44 653.99" stroke="white" stroke-width="2.81" stroke-linecap="round" stroke-linejoin="round"/>
<path d="M396.22 640.42L394.53 671.61H345.94" stroke="white" stroke-width="2.81" stroke-linecap="round" stroke-linejoin="round"/>
<path d="M421.23 656.02L412.31 685.45L361.75 689.93" stroke="white" stroke-width="2.81" stroke-linecap="round" stroke-linejoin="round"/>
<path d="M441.61 676.189L434.38 700.519L378.6 705.779" stroke="white" stroke-width="2.81" stroke-linecap="round" stroke-linejoin="round"/>
<path d="M456.15 690.99L453.9 714.2" stroke="white" stroke-width="2.81" stroke-linecap="round" stroke-linejoin="round"/>
<path d="M581.8 574.9L536.53 607.34" stroke="white" stroke-width="2.81" stroke-linecap="round" stroke-linejoin="round"/>
<path d="M569.6 616.09L528.88 641.52" stroke="white" stroke-width="2.81" stroke-linecap="round" stroke-linejoin="round"/>
<path d="M550.84 703.32L600.94 719.4" stroke="white" stroke-width="2.81" stroke-linecap="round" stroke-linejoin="round"/>
<path d="M575.56 646.84L567.84 685.38L638.86 702.59" stroke="white" stroke-width="2.81" stroke-linecap="round" stroke-linejoin="round"/>
<path d="M553.69 676.189L550.84 703.319" stroke="white" stroke-width="2.81" stroke-linecap="round" stroke-linejoin="round"/>
<path d="M415.68 616.509H180.4C176.626 616.499 173.009 614.996 170.339 612.328C167.669 609.66 166.164 606.044 166.15 602.269V583.099C166.164 579.325 167.669 575.709 170.339 573.041C173.009 570.373 176.626 568.87 180.4 568.859H415.69C419.465 568.87 423.082 570.373 425.751 573.041C428.421 575.709 429.927 579.325 429.94 583.099V602.269C429.922 606.044 428.413 609.658 425.742 612.325C423.071 614.992 419.455 616.496 415.68 616.509Z" fill="#E69866"/>
<path d="M126.56 356.73C126.56 356.73 167.56 574.38 166.84 578.73C172.84 566.02 176.46 568.86 219.03 568.86H290.19C290.19 568.86 264.63 364.06 261 346.41C257.37 328.76 243.09 292.86 200.28 290.59C155.38 288.06 121.47 305 126.56 356.73Z" fill="#FDCA60"/>
<path d="M172.13 292.77C146 309.9 144 320.67 147 350.7C147 350.7 187.55 564.51 186.87 568.87C186.87 568.87 175.87 568.25 172.12 571.4C169.817 573.401 168.015 575.915 166.86 578.74C166.86 578.74 132.58 382.37 126.25 352.74C123.61 315.82 146 295.08 172.13 292.77Z" fill="#E69866"/>
<path d="M169.61 594.93H421.95" stroke="#62210F" stroke-width="1.41" stroke-linecap="round" stroke-linejoin="round" stroke-dasharray="16.87 16.87"/>
<path d="M383.81 617.09L438.84 822.43H427.35L371.48 617.09H383.81Z" fill="#1D1E40"/>
<path d="M432.5 615.811L487.54 821.151H476.05L420.17 615.811H432.5Z" fill="#1D1E40"/>
<path d="M233.57 617.09L178.54 822.43H190.03L245.9 617.09H233.57Z" fill="#1D1E40"/>
<path d="M190.97 617.09L135.93 822.43H147.41L203.3 617.09H190.97Z" fill="#1D1E40"/>
<path d="M425.93 740.04L429.92 789.21H462.49L468.45 733.5L425.93 740.04Z" fill="#EEB6AB"/>
<path d="M497.41 726.489L504.88 776.709L538.52 771.799L531.04 724.619L497.41 726.489Z" fill="#EEB6AB"/>
<path d="M492.5 775.919C492.05 783.299 490.59 809.919 492.62 814.069C512.62 815.319 613.17 814.069 613.17 814.069C613.17 814.069 609.39 796.449 583.43 789.359C557.47 782.269 550.43 770.499 545.69 761.059C540.95 751.619 529.19 763.419 526.83 768.129C524.47 772.839 505.59 779.929 500.83 772.859C498.23 768.959 496 769.709 494.51 771.169C493.271 772.446 492.554 774.14 492.5 775.919Z" fill="#76778E"/>
<path d="M616.47 814.08H489.09V823.32H616.47V814.08Z" fill="#1D1E40"/>
<path d="M549.62 793.319C551.73 788.059 556.98 781.729 568.84 783.769" stroke="white" stroke-width="1.41" stroke-linecap="round" stroke-linejoin="round"/>
<path d="M558.7 796.53C561.19 792.26 565.41 787 576.98 788.06" stroke="white" stroke-width="1.41" stroke-linecap="round" stroke-linejoin="round"/>
<path d="M541.55 789.669C542.25 785.949 547.55 776.489 560.15 778.579" stroke="white" stroke-width="1.41" stroke-linecap="round" stroke-linejoin="round"/>
<path d="M422.88 777.399C422.43 784.779 420.97 811.399 422.99 815.539C442.99 816.799 543.54 815.539 543.54 815.539C543.54 815.539 539.76 797.929 513.81 790.839C487.86 783.749 480.81 771.969 476.07 762.539C471.33 753.109 459.56 764.899 457.2 769.609C454.84 774.319 435.97 781.409 431.26 774.329C428.66 770.439 426.42 771.179 424.93 772.649C423.691 773.93 422.962 775.619 422.88 777.399Z" fill="#BABABA"/>
<path d="M546.84 815.561H419.46V824.801H546.84V815.561Z" fill="#1D1E40"/>
<path d="M480 794.809C482.11 789.549 487.37 783.219 499.22 785.259" stroke="white" stroke-width="1.41" stroke-linecap="round" stroke-linejoin="round"/>
<path d="M489.09 798C491.58 793.74 495.79 788.47 507.37 789.52" stroke="white" stroke-width="1.41" stroke-linecap="round" stroke-linejoin="round"/>
<path d="M471.92 791.15C472.62 787.42 477.92 777.96 490.52 780.06" stroke="white" stroke-width="1.41" stroke-linecap="round" stroke-linejoin="round"/>
<path d="M301.92 262.84C301.92 262.84 365.92 320.46 377.66 322.34C389.4 324.22 408.02 304.82 417.89 295.53C427.76 286.24 448.12 270.19 462.33 282.59C479.26 297.34 474.4 330.59 448.74 351.46C426.11 369.85 406.74 380.33 369.66 381.85C335.4 383.27 296.25 325.85 296.9 307.05C297.55 288.25 301.92 262.84 301.92 262.84Z" fill="#565797"/>
<path d="M275.15 524.11C275.15 524.11 265 570.28 365.67 568.59C466.34 566.9 457.13 568.59 457.13 568.59L463 742.28C463 742.28 463.38 751.47 549.8 743.92C552.97 660.22 537.91 559.49 531.16 514.92C530.12 508.045 526.907 501.683 521.991 496.766C517.075 491.848 510.715 488.633 503.84 487.59L301.06 457L268.33 462.88L275.15 524.11Z" fill="#A9C8D5"/>
<path d="M275.15 524.11C275.15 524.11 265 570.28 365.67 568.59C466.34 566.9 457.13 568.59 457.13 568.59L463 742.28C463 742.28 463.38 751.47 549.8 743.92C552.97 660.22 537.91 559.49 531.16 514.92C530.12 508.045 526.907 501.683 521.991 496.766C517.075 491.848 510.715 488.633 503.84 487.59L301.06 457L268.33 462.88L275.15 524.11Z" fill="#1D1E40"/>
<path d="M216.76 510.24C216.76 510.24 208.86 576.92 309.55 575.24C410.24 573.56 401.02 575.24 401.02 575.24L406.89 748.92C406.89 748.92 405.22 756.47 491.65 748.92C495.02 659.26 479.86 551.92 473.72 512.92C473.032 508.541 470.967 504.495 467.824 501.37C464.68 498.245 460.623 496.202 456.24 495.54L244.93 463.6L212.2 469.48L216.76 510.24Z" fill="#1D1E40"/>
<path d="M230.69 518.44C267.05 512.94 281.55 469.72 321.53 475.18C386.22 484.01 357.18 411.6 336.75 357.38C323.63 322.55 321.24 295.45 314.36 277.13C309.29 263.6 301.76 254.85 285.67 251.31C237.3 240.7 205.47 248.22 186.85 290.31C168.23 332.4 199.62 384.95 186.85 421.44C174.08 457.93 194.33 523.92 230.69 518.44Z" fill="#565797"/>
<path d="M347.265 314.938L294.247 327.168L297.603 341.716L350.621 329.486L347.265 314.938Z" fill="white"/>
<path d="M394.15 450.77L312.51 469.59C311.398 469.849 310.246 469.886 309.12 469.699C307.994 469.512 306.916 469.104 305.948 468.499C304.98 467.894 304.141 467.104 303.479 466.174C302.817 465.244 302.345 464.192 302.09 463.08L275.57 348.08C275.312 346.968 275.276 345.816 275.464 344.691C275.652 343.565 276.06 342.487 276.664 341.52C277.269 340.552 278.059 339.713 278.988 339.05C279.917 338.388 280.968 337.915 282.08 337.66L363.73 318.84C364.842 318.582 365.993 318.546 367.119 318.734C368.245 318.921 369.322 319.329 370.29 319.934C371.258 320.538 372.097 321.328 372.759 322.257C373.422 323.187 373.894 324.237 374.15 325.35L400.66 440.35C400.919 441.461 400.956 442.613 400.769 443.739C400.582 444.866 400.174 445.944 399.569 446.912C398.965 447.88 398.174 448.719 397.244 449.381C396.314 450.043 395.263 450.515 394.15 450.77Z" fill="#1D1E40"/>
<path d="M180.81 321.51C180.07 339.9 180.34 381.99 176.18 396.75C162.68 444.61 189.72 475.49 227.18 478.68C264.64 481.87 290.97 456.83 317.62 446.68C343 437 339.71 416 334.47 400.24C329.6 385.64 330.08 366.53 289.1 382.89C259.26 394.79 247.1 407.38 247.1 407.38C247.1 407.38 258.15 392.94 254.16 390.53C250.17 388.12 239.1 407.38 239.1 407.38C239.1 407.38 246.33 386.88 244.75 385.19C242.03 382.28 236.3 390.91 236.3 390.91C236.3 390.91 243.4 361.91 241.8 342.79" fill="#565797"/>
<path d="M182 321.51C181.27 339.9 181.54 381.99 177.38 396.75C163.88 444.61 190.92 475.49 228.38 478.68C265.84 481.87 292.17 456.83 318.82 446.68C344.18 437 341 416 335.71 400.24C330.84 385.64 331.32 366.53 290.33 382.89C260.5 394.79 248.38 407.38 248.38 407.38C248.38 407.38 259.43 392.94 255.44 390.53C251.45 388.12 240.36 407.38 240.36 407.38C240.36 407.38 247.59 386.88 246.02 385.19C243.29 382.28 237.57 390.91 237.57 390.91C237.57 390.91 244.67 361.91 243.06 342.79" stroke="#1D1E40" stroke-width="1.41" stroke-linecap="round" stroke-linejoin="round"/>
<path d="M259.25 518.76C259.25 518.76 391 527.54 415.91 533.76C428.43 536.91 425.91 686.08 429.91 741.15" stroke="white" stroke-width="1.41" stroke-linecap="round" stroke-linejoin="round" stroke-dasharray="14.24 14.24"/>
<path d="M285.471 243.439L291.091 270.949L256.621 248.259L285.471 243.439Z" fill="#76778E"/>
<path d="M246 259.419C246 259.419 251.1 271.529 266.35 270.949C280.22 270.429 280.22 263.949 280.22 263.949L268.12 252.949L246 259.419Z" fill="#1D1E40"/>
<path d="M263.03 229.689L228.9 231.469L230.35 244.009L261.3 250.029L263.03 229.689Z" fill="#76778E"/>
<path d="M275.91 260.96L285.47 243.44L250.33 233.67L247.13 247.28L275.91 260.96Z" fill="white"/>
<path d="M236 216.48C236 216.48 241.36 234.94 236.74 247.26C232.12 259.58 256.74 267.11 275.96 260.96C278.21 237.96 280.23 216.48 280.23 216.48C280.23 216.48 238.49 205.57 236 216.48Z" fill="#EEB6AB"/>
<path d="M265.08 256.53L267.44 263.15L258.07 263.94L247.13 254.92L265.08 256.53Z" fill="#8E8D8D"/>
<path d="M228.9 231.469L225.19 257.919L258.07 281.579L265.08 256.529L228.9 231.469Z" fill="white"/>
<path d="M310.36 270.33C310.36 270.33 324.2 294.48 327.2 318.6" stroke="#1D1E40" stroke-width="1.41" stroke-linecap="round" stroke-linejoin="round"/>
<path d="M492.45 745.85C492.45 745.85 479.78 511.11 465.45 501.85C442.93 487.34 338.12 480.48 338.12 480.48" stroke="white" stroke-width="1.41" stroke-linecap="round" stroke-linejoin="round"/>
<path d="M460.35 246.7C457.765 249.791 455.933 253.44 455 257.36C453.06 265.46 452.09 278.57 463.94 283.65C479.66 290.38 502.52 264.78 507.48 258.9C508.134 258.135 508.735 257.326 509.28 256.48C511.06 253.73 513.28 250.42 512.9 247.98C512.28 244.52 496.73 262.91 494.79 262.66C493.31 262.47 517.68 240.5 512.79 235.13C510.94 233.13 501.01 248.13 491.72 253.73C492.11 252.06 511.92 231.54 510.22 225.09C508.52 218.64 496.61 239.78 485.98 245.48C493.67 235.48 504.33 224.62 502.12 220.62C499.91 216.62 478.65 243.39 474.7 244.44C470.75 245.49 483.38 226.75 477.15 224.75C475.06 224.09 467 238.74 460.35 246.7Z" fill="#EEB6AB"/>
<path d="M350.34 359.901C346.706 361.932 343.594 364.78 341.25 368.221C338.848 371.632 337.018 375.411 335.83 379.411C334.27 385.211 316.95 397.941 322.48 403.291C327.02 416.661 344.77 400.111 347.6 400.781C362.39 404.291 385.54 392.251 391.38 389.021C392.288 388.517 393.163 387.956 394 387.341C396.73 385.341 394.15 382.181 393.59 382.131C389.98 381.751 377.72 387.981 377.72 387.981C377.72 387.981 384.61 384.361 393.09 378.911C397.96 375.761 394.32 370.681 389.43 373.111C384.02 375.811 380.88 377.421 378.03 378.221C378.63 377.331 384.65 374.931 392.65 369.611C397.81 366.181 396.7 360.331 388.73 363.361C383.73 365.241 380.9 367.451 375.54 368.151C379.78 365.551 384.48 362.981 388.64 360.531C395.36 356.581 392.17 351.051 383.97 354.931C375.77 358.811 367.13 363.221 365 363.001C360.81 362.551 379.87 349.101 374.6 344.891C372.85 343.461 359.69 354.671 350.34 359.901Z" fill="#EEB6AB"/>
<path d="M344.8 413.721L333.4 418.181C333.4 418.181 325 416.431 320.28 402.001C315.56 387.571 319.28 381.921 319.28 381.921L330.68 377.471L344.8 413.721Z" fill="white"/>
<path d="M479.54 289.61L473.13 300C473.13 300 465.37 303.67 452.93 295C440.49 286.33 440 279.68 440 279.68L446.41 269.25L479.54 289.61Z" fill="white"/>
<path d="M240.91 217.469C240.91 217.469 244.54 246.289 269.23 251.279C270.923 251.684 272.707 251.42 274.21 250.542C275.713 249.665 276.82 248.242 277.3 246.569L278.17 236.079L240.91 217.469Z" fill="#EEB6AB"/>
<path d="M252.36 142.399C276.6 134.109 301.6 152.949 301.36 178.559C301.16 202.689 295.48 240.299 276.44 242.329C268.14 243.209 242.17 238.189 235.91 210.109C226.81 210.019 223.58 197.919 220.72 187.869C219.93 184.919 233.87 148.729 252.36 142.399Z" fill="#EEB6AB"/>
<path d="M271.76 194.649C273.743 194.649 275.35 192.446 275.35 189.729C275.35 187.011 273.743 184.809 271.76 184.809C269.777 184.809 268.17 187.011 268.17 189.729C268.17 192.446 269.777 194.649 271.76 194.649Z" fill="#010101"/>
<path d="M291.7 194.14C293.478 194.14 294.92 192.166 294.92 189.73C294.92 187.295 293.478 185.32 291.7 185.32C289.922 185.32 288.48 187.295 288.48 189.73C288.48 192.166 289.922 194.14 291.7 194.14Z" fill="#010101"/>
<path d="M284.58 194.648C284.58 194.648 293.58 211.238 280.18 208.238" stroke="#62210F" stroke-width="1.49" stroke-miterlimit="10" stroke-linecap="round"/>
<path d="M277.6 174.869C276.37 173.539 271.21 172.139 266.8 175.929C262.39 179.719 263.87 183.849 265.69 183.229C267.51 182.609 270.59 179.039 274.02 179.319C278.31 179.669 278.82 176.199 277.6 174.869Z" fill="#76778E"/>
<path d="M288.8 175.229C290.28 174.059 294.5 174.059 297.35 177.779C300.35 181.709 299.53 184.779 297.76 183.839C295.99 182.899 294.89 180.279 291.32 180.039C286.83 179.739 287.34 176.409 288.8 175.229Z" fill="#76778E"/>
<path d="M225.91 199.939C222.91 193.329 225.19 185.939 230.79 184.809C235.91 183.809 240.04 193.199 240.04 193.199L241.26 170.139C247.044 166.588 252.432 162.428 257.33 157.729C265.12 150.179 283.16 164.489 292.33 158.399C297.737 154.878 302.321 150.233 305.77 144.779C305.77 144.779 272.91 114.409 234.68 133.779C220.8 140.779 214.86 150.499 212.89 159.989C209.46 176.639 218.33 192.649 218.33 192.649L238 229.459C238 229.459 237.88 217.459 235.95 209.369C231.91 208.599 229 206.539 225.91 199.939Z" fill="#76778E"/>
<g style="mix-blend-mode:multiply">
<path d="M289.1 213C289.1 213 282.18 217.65 270.17 216C273.8 220.35 278.62 223.24 283.8 221.32C289.15 219.3 289.1 213 289.1 213Z" fill="#BC826C"/>
</g>
<path d="M230.69 198.079C230.69 198.079 231.15 191.769 237.3 197.619C237.3 197.619 231.76 183.789 227.61 190.219" stroke="#62210F" stroke-width="1.49" stroke-miterlimit="10" stroke-linecap="round"/>
<path d="M213.76 156.729C213.76 156.729 227.76 159.819 235.95 152.199C251.75 137.559 261.06 155.739 261.06 155.739" stroke="white" stroke-width="1.41" stroke-miterlimit="10"/>
<path d="M213.13 159.049C213.13 159.049 230.58 162.229 235.95 157.349C242.78 151.159 255.38 159.529 255.38 159.529" stroke="white" stroke-width="1.41" stroke-miterlimit="10"/>
<path d="M212.69 161.16C212.69 161.16 226.85 166.32 234.57 163.04C236.715 162.073 239.124 161.861 241.405 162.438C243.686 163.016 245.704 164.349 247.13 166.22" stroke="white" stroke-width="1.41" stroke-miterlimit="10"/>
<path d="M275.75 205.459C279.345 205.459 282.26 202.545 282.26 198.949C282.26 195.354 279.345 192.439 275.75 192.439C272.154 192.439 269.24 195.354 269.24 198.949C269.24 202.545 272.154 205.459 275.75 205.459Z" stroke="#1D1E40" stroke-width="1.41" stroke-linecap="round" stroke-linejoin="round"/>
<path d="M295.51 205.459C299.105 205.459 302.02 202.545 302.02 198.949C302.02 195.354 299.105 192.439 295.51 192.439C291.915 192.439 289 195.354 289 198.949C289 202.545 291.915 205.459 295.51 205.459Z" stroke="#1D1E40" stroke-width="1.41" stroke-linecap="round" stroke-linejoin="round"/>
<path d="M239.13 190.139L269.24 198.949" stroke="#1D1E40" stroke-width="1.41" stroke-linecap="round" stroke-linejoin="round"/>
<path d="M282.19 198.079C282.19 198.079 283.5 195.449 285.47 195.449C287.76 195.449 288.47 198.939 288.47 198.939" stroke="#1D1E40" stroke-width="1.41" stroke-linecap="round" stroke-linejoin="round"/>
<path d="M270.17 166.219C270.17 166.219 286.06 168.989 292.67 163.689C285.217 164.908 277.707 165.752 270.17 166.219Z" fill="#EEB6AB"/>
<path d="M268.18 169.14C268.18 169.14 287.52 174.99 294.93 167.51C285.47 171.21 268.18 169.14 268.18 169.14Z" fill="#EEB6AB"/>
<path d="M909.13 305.06C893.3 313.32 890.13 321.37 883.26 343.53C876.57 365.2 870.89 383.36 870.89 383.36L944.31 406.07C944.31 406.07 957.08 347.34 946.31 322.48C938.89 305.36 925 296.81 909.13 305.06Z" fill="#E65658"/>
<path d="M1073.93 617.369L1128.98 822.719H1117.49L1061.6 617.369H1073.93Z" fill="#1D1E40"/>
<path d="M1122.64 616.09L1177.68 821.44H1166.18L1110.31 616.09H1122.64Z" fill="#1D1E40"/>
<path d="M933.88 617.998L878.84 823.348H890.34L946.21 617.998H933.88Z" fill="#1D1E40"/>
<path d="M885.18 616.729L830.13 822.069H841.63L897.51 616.729H885.18Z" fill="#1D1E40"/>
<path d="M895.3 617.37H1130.6C1134.37 617.357 1137.99 615.851 1140.66 613.181C1143.33 610.511 1144.83 606.894 1144.84 603.12V584C1144.83 580.226 1143.33 576.61 1140.66 573.942C1137.99 571.274 1134.37 569.77 1130.6 569.76H895.3C891.527 569.77 887.911 571.274 885.242 573.942C882.574 576.61 881.071 580.226 881.06 584V603.16C881.081 606.927 882.589 610.534 885.256 613.195C887.923 615.856 891.533 617.357 895.3 617.37Z" fill="#E69866"/>
<path d="M1184.42 357.59C1184.42 357.59 1143.42 575.24 1144.14 579.59C1138.14 566.88 1134.52 569.72 1091.94 569.72H1020.79C1020.79 569.72 1046.35 364.91 1049.95 347.26C1053.55 329.61 1067.86 293.71 1110.67 291.44C1155.6 288.91 1189.51 305.86 1184.42 357.59Z" fill="#FDCA60"/>
<path d="M1138.85 293.619C1164.99 310.739 1166.94 321.509 1163.97 351.549C1163.97 351.549 1123.43 565.359 1124.11 569.719C1124.11 569.719 1135.11 569.099 1138.86 572.249C1141.02 574.021 1142.82 576.182 1144.18 578.619C1144.18 578.619 1178.41 383.209 1184.73 353.559C1187.37 316.659 1165 295.919 1138.85 293.619Z" fill="#E69866"/>
<path d="M888.17 702.368L881.06 790.068H848.49L841.35 693.318L888.17 702.368Z" fill="#EEB6AB"/>
<path d="M833.8 484.459L912.72 459.909L932.64 422.899L921.44 398.999L891.66 389.789L889.17 435.399L822.74 471.929" fill="#EEB6AB"/>
<path d="M819.5 687.459L806.1 777.569L772.46 772.659L777.87 687.459H819.5Z" fill="#EEB6AB"/>
<path d="M1035.83 524.999C1035.83 524.999 1046.01 571.179 945.31 569.489C844.61 567.799 853.85 569.489 853.85 569.489L848.93 714.799C848.93 714.799 837.4 717.889 750.93 710.339C761.12 626.929 773.03 560.409 779.77 515.859C780.808 508.985 784.019 502.623 788.933 497.705C793.848 492.788 800.207 489.572 807.08 488.529L1009.87 457.879L1042.61 463.759L1035.83 524.999Z" fill="#565797"/>
<path d="M1035.83 526.208C1035.83 526.208 1046.01 572.388 945.31 570.698C844.61 569.008 853.85 570.698 853.85 570.698L848.93 715.998C848.93 715.998 837.4 719.098 750.93 711.548C761.12 628.128 773.03 561.608 779.77 517.068C780.806 510.192 784.016 503.828 788.931 498.909C793.845 493.989 800.205 490.772 807.08 489.728L1009.87 459.078L1042.61 464.958L1035.83 526.208Z" fill="#565797"/>
<path d="M1094.22 511.089C1094.22 511.089 1102.12 577.759 1001.43 576.089C900.74 574.419 909.96 576.089 909.96 576.089L917.96 715.399C917.96 715.399 894 721.999 807.61 714.449C818.73 617.369 831.13 552.789 837.27 513.769C837.961 509.391 840.028 505.347 843.17 502.223C846.313 499.098 850.369 497.055 854.75 496.389L1007.43 473.319L1066.05 464.459L1088.78 471.129L1094.22 511.089Z" fill="#565797"/>
<path d="M804.09 715.308C815.21 618.218 827.61 553.648 833.76 514.628C834.448 510.25 836.514 506.204 839.657 503.079C842.8 499.953 846.858 497.911 851.24 497.248L1003.91 474.178L1062.53 465.318L1085.27 471.978" stroke="#1D1E40" stroke-width="1.41" stroke-linecap="round" stroke-linejoin="round"/>
<path d="M1097.91 519.609C1097.91 519.609 1048.01 457.829 935.26 477.919C923.26 480.059 901.96 469.999 919.17 438.749C925.23 427.749 925.23 407.689 919.17 391.799C899.36 339.919 880.44 324.019 910.75 299.799C949.43 268.869 985.33 271.089 1012.94 291.219C1050.16 318.359 1060 350.219 1073.57 386.409C1091.93 435.399 1097.91 519.609 1097.91 519.609Z" fill="#E65658"/>
<path d="M914.771 348.439C914.771 348.439 938.93 413.069 938.45 425.849C937.97 438.629 978.86 426.849 987.72 414.749C996.58 402.649 962.141 334.689 962.141 334.689L914.771 348.439Z" fill="#FDCA60"/>
<path d="M1089.43 519.609C1089.43 519.609 1086.87 519.729 1082.33 519.989" stroke="white" stroke-width="1.41" stroke-linecap="round" stroke-linejoin="round"/>
<path d="M1067.85 520.789C1021.36 523.389 914.45 529.789 895.07 534.639C883.59 537.519 884.23 615.479 881.34 670.879" stroke="white" stroke-width="1.41" stroke-linecap="round" stroke-linejoin="round" stroke-dasharray="14.51 14.51"/>
<path d="M880.93 678.119C880.78 680.549 880.62 682.909 880.45 685.219" stroke="white" stroke-width="1.41" stroke-linecap="round" stroke-linejoin="round"/>
<path d="M893.88 491.09C897.118 489.259 900.736 488.201 904.45 488C912.14 487.56 924.24 488.83 926.92 500.45C930.48 515.85 903.43 532.45 897.27 536.01C896.465 536.477 895.629 536.891 894.77 537.25C891.97 538.42 888.59 539.94 886.43 539.13C883.43 538.01 902.67 526.87 902.75 525.06C902.82 523.7 878.84 542.26 874.75 536.91C873.21 534.91 888.5 528.32 895.14 520.79C893.57 520.87 871.63 535.53 866.05 532.93C860.47 530.33 881.66 522.93 888.57 514.22C878.24 519.58 866.57 527.49 863.31 524.82C860.05 522.15 887.89 507.2 889.47 503.82C891.05 500.44 871.96 508.82 871.17 502.82C870.91 500.75 885.56 495.83 893.88 491.09Z" fill="#EEB6AB"/>
<path d="M822.74 471.93C807.58 473.22 791.37 484.03 786.56 487.93C785.87 488.48 779.7 495.72 780.23 499.54C780.6 502.24 792.59 489.21 794.33 489.54C795.66 489.78 775.48 500.25 777.94 507.99C778.61 510.1 789.19 498.99 797.37 494.38C790.07 500.94 776.53 509.56 778.99 515.38C780.32 519.01 790.41 506.03 800.07 501.75C791.79 508.95 782.2 516.05 783.7 519.31C785.2 522.57 808 503.31 811.7 502.71C815.4 502.11 801.56 515.81 806.99 517.77C808.8 518.42 817.99 507.62 825.05 501.91C827.723 499.806 829.864 497.103 831.3 494.02C832.73 490.87 834.09 486.7 833.7 482.73" fill="#EEB6AB"/>
<path d="M812.61 691.939C830.543 694.477 848.629 695.78 866.74 695.839C899.41 695.839 907.19 693.919 907.19 693.919" stroke="white" stroke-width="1.41" stroke-linecap="round" stroke-linejoin="round"/>
<path d="M756.44 690.379C756.44 690.379 771.39 696.219 800.17 692.879" stroke="white" stroke-width="1.41" stroke-linecap="round" stroke-linejoin="round"/>
<path d="M927.24 438.648C927.24 438.648 965.45 448.738 1002.4 411.818" stroke="#661715" stroke-width="1.41" stroke-miterlimit="10"/>
<path d="M785 815.68V825.68H824L823.81 808.68H815.87C815.87 808.68 817.87 784.55 812.05 771.01C806.23 757.47 813.56 736.82 813.56 736.82H769C769 736.82 769 754.53 764.9 759.82C760.8 765.11 745.49 783.36 743.12 789.25C740.75 795.14 705.46 799.84 701.34 811.61H695.45V825.7H761.45L785 815.68Z" fill="#A26E4C"/>
<path d="M785 815.68V825.68H824L823.81 808.68H815.87C815.87 808.68 817.87 784.55 812.05 771.01C806.23 757.47 813.56 736.82 813.56 736.82H769C769 736.82 769 754.53 764.9 759.82C760.8 765.11 745.49 783.36 743.12 789.25C740.75 795.14 705.46 799.84 701.34 811.61H695.45V825.7H761.45L785 815.68Z" fill="#9E4F4A"/>
<path d="M785 815.679V825.679H824L823.91 817.979L823.81 808.629H815.87C815.87 808.629 804.78 808.349 783.38 809.249C765.14 816.079 734.38 812.099 701.38 811.569H695.49V825.699H761.49L785 815.679Z" fill="#9E4F4A"/>
<path opacity="0.52" d="M783.52 815.679V825.679H822.52L822.44 817.979L822.34 808.629H814.4C814.4 808.629 803.3 808.349 781.9 809.249C763.67 816.079 732.9 812.099 699.9 811.569H694.01V825.699H760.01L783.52 815.679Z" fill="#9E4F4A"/>
<path d="M787.891 744.469L768.05 746.659L783.771 763.309L763.081 762.129L773.19 778.609L751.13 777.219L759.75 795.179L738.73 792.469" stroke="#431616" stroke-width="1.41" stroke-linecap="round" stroke-linejoin="round"/>
<path d="M812.61 779.199C812.61 779.199 796.461 783.999 793.271 796.999" stroke="#431616" stroke-width="1.41" stroke-linecap="round" stroke-linejoin="round"/>
<path d="M786.771 818.359H823.901" stroke="black" stroke-width="1.19" stroke-miterlimit="10"/>
<path d="M774.38 818.359H695.51" stroke="#431616" stroke-width="1.41" stroke-linecap="round" stroke-linejoin="round"/>
<path d="M860.37 815.68V825.68H899.37L899.18 808.68H891.24C891.24 808.68 893.29 784.55 887.41 771.01C881.53 757.47 889 736.77 889 736.77H844.46C844.46 736.77 844.46 754.48 840.37 759.77C836.28 765.06 821 783.32 818.59 789.21C816.18 795.1 780.92 799.8 776.8 811.57H770.91V825.7H836.91L860.37 815.68Z" fill="#9E4F4A"/>
<path opacity="0.52" d="M860.37 815.679V825.679H899.37L899.28 817.979L899.18 808.629H891.24C891.24 808.629 880.15 808.349 858.75 809.249C840.51 816.079 809.75 812.099 776.75 811.569H770.86V825.699H836.86L860.37 815.679Z" fill="#9E4F4A"/>
<path d="M888 779.199C888 779.199 867.4 782.729 867.4 806.259" stroke="#431616" stroke-width="1.41" stroke-linecap="round" stroke-linejoin="round"/>
<path d="M862.19 818.359H899.32" stroke="#431616" stroke-width="1.41" stroke-linecap="round" stroke-linejoin="round"/>
<path d="M849.8 818.359H770.92" stroke="#431616" stroke-width="1.41" stroke-linecap="round" stroke-linejoin="round"/>
<path d="M776.81 811.57C776.81 811.57 782.05 794.29 817.9 790.57L835.16 795.211L826.56 777.211L848.61 778.6L838.5 762.13L859.19 763.31L843.47 746.68L863.31 744.48" stroke="#431616" stroke-width="1.41" stroke-linecap="round" stroke-linejoin="round"/>
<path d="M770.39 821.88L770.92 811.57H776.82" stroke="#431616" stroke-width="1.41" stroke-linecap="round" stroke-linejoin="round"/>
<path d="M848 211.859C848 211.859 835.21 255.039 855.6 261.209C875.99 267.379 885 246.909 885 246.909C885 246.909 868.77 198.999 859.32 200.569C849.87 202.139 848 211.859 848 211.859Z" fill="#9E4F4A"/>
<path d="M940.31 350.51C940.31 350.51 928.73 426.64 967.88 411.81C1000.26 399.53 940.31 350.51 940.31 350.51Z" stroke="white" stroke-width="1.41" stroke-miterlimit="10"/>
<path d="M940.311 350.51L966.25 412.38" stroke="white" stroke-width="1.41" stroke-miterlimit="10"/>
<path d="M938.72 368.699L950.61 375.099L953.27 362.299" stroke="white" stroke-width="1.41" stroke-miterlimit="10"/>
<path d="M939 382.11L955.79 387.43L961.28 370.68" stroke="white" stroke-width="1.41" stroke-miterlimit="10"/>
<path d="M940.311 392.829L960.19 397.939L968.22 379.129" stroke="white" stroke-width="1.41" stroke-miterlimit="10"/>
<path d="M943.29 402.398L965.31 410.128L974.13 388.408" stroke="white" stroke-width="1.41" stroke-miterlimit="10"/>
<path d="M927.09 505.251C949.88 499.251 1022.36 472.601 1026.51 464.461C1030.51 456.601 1034.59 375.311 1034.59 375.311L993.13 378.931L996.39 445.641L916.91 489.521" fill="#EEB6AB"/>
<path d="M982.82 293.391C971.28 307.021 971.371 315.681 973.391 338.791C975.391 361.371 976.96 380.341 976.96 380.341L1053.52 373.651C1053.52 373.651 1048.68 346.011 1039.44 322.461" fill="#E65658"/>
<path d="M982.82 293.391C971.28 307.021 971.371 315.681 973.391 338.791C975.391 361.371 976.96 380.341 976.96 380.341L1053.52 373.651C1053.52 373.651 1048.68 346.011 1039.44 322.461" stroke="#661715" stroke-width="1.41" stroke-linecap="round" stroke-linejoin="round"/>
<path d="M894.88 320.23C894.88 320.23 888.75 339.23 905 363.02C918 382.02 921.45 399.02 921.45 399.02" stroke="#661715" stroke-width="1.41" stroke-linecap="round" stroke-linejoin="round"/>
<path d="M925.4 239.509C925.4 239.509 939.65 263.319 953.4 278.689C967.65 294.619 933.4 316.249 923.26 303.449C913.01 274.449 893.7 266.129 893.7 266.129C893.7 266.129 918.29 230.849 925.4 239.509Z" fill="#EEB6AB"/>
<path d="M923.7 236C923.7 236 942.88 282.45 919.38 293.35C914.77 286.05 914.77 283.66 914.77 283.66L921.58 237.87L923.7 236Z" fill="#EEB6AB"/>
<path d="M874.17 192.301C849.39 198.851 841.24 228.511 855.64 249.691C869.19 269.691 892.64 297.691 909.57 288.801C916.98 284.911 934.25 268.631 923.1 241.021C930.6 235.891 928.89 222.521 925.68 212.581C924.74 209.661 893.06 187.291 874.17 192.301Z" fill="#EEB6AB"/>
<path d="M887.466 247.652C889.248 246.462 889.373 243.521 887.745 241.081C886.117 238.642 883.352 237.629 881.57 238.819C879.788 240.008 879.663 242.95 881.291 245.389C882.919 247.829 885.683 248.842 887.466 247.652Z" fill="#010101"/>
<path d="M870.04 258.844C871.643 257.774 871.754 255.127 870.289 252.931C868.823 250.735 866.336 249.823 864.732 250.893C863.129 251.963 863.018 254.61 864.483 256.806C865.949 259.002 868.436 259.914 870.04 258.844Z" fill="#010101"/>
<path d="M872.48 246.91C872.48 246.91 873.3 274.13 886.32 261.49" stroke="#62210F" stroke-width="1.49" stroke-miterlimit="10" stroke-linecap="round"/>
<path d="M885 231.809C884.66 233.579 881.13 236.739 875.38 235.889C869.63 235.039 868.6 231.529 870.46 231.079C872.32 230.629 876.85 232.019 879.6 229.949C883 227.369 885.3 229.999 885 231.809Z" fill="#9E4F4A"/>
<path d="M858.2 249.999C860.08 249.999 862.99 247.419 862.98 243.769C862.98 238.769 860.78 236.769 859.84 238.559C858.9 240.349 860.71 242.889 857.91 245.139C854.41 247.919 856.73 249.999 858.2 249.999Z" fill="#9E4F4A"/>
<g style="mix-blend-mode:multiply">
<path d="M884.49 275.58C884.942 273.922 885.738 272.377 886.827 271.047C887.916 269.716 889.273 268.631 890.81 267.86C893.43 266.66 898.67 265.38 902.88 266.64C900.73 271.32 897.2 274.1 891.81 275.37C886.25 276.69 884.49 275.58 884.49 275.58Z" fill="#BC826C"/>
</g>
<path d="M921.59 225C921.59 225 918.74 220.58 916.94 227.35C916.94 227.35 915.49 215.04 921.3 218.35" stroke="#62210F" stroke-width="1.49" stroke-miterlimit="10" stroke-linecap="round"/>
<path d="M854.26 217.78C854.26 217.78 867.18 228.9 888.48 226.58C909.78 224.26 911.05 221.08 911.05 221.08C911.05 221.08 916.77 204.73 925.25 215.57C932.01 224.22 925.4 239.51 925.4 239.51L930.01 246.91C930.01 246.91 928.01 226.66 930.01 217.91C932.01 209.16 935.26 208.3 935.26 208.3C935.26 208.3 910.93 166.9 876.47 182.53C842.01 198.16 848.54 220.85 848.54 220.85L854.26 217.78Z" fill="#9E4F4A"/>
<path d="M910.75 596.52H1144" stroke="#62210F" stroke-width="1.41" stroke-linecap="round" stroke-linejoin="round" stroke-dasharray="16.87 16.87"/>
<path d="M1286.8 823.26H0.330078V829.71H1286.8V823.26Z" fill="#EDE4DD"/>
<path d="M910.75 220.11C880.64 224.78 871.75 220.35 858.04 212.95C852.77 210.11 848.54 215.57 848.54 215.57" stroke="#60361D" stroke-width="1.41" stroke-linecap="round" stroke-linejoin="round"/>
<path d="M850.76 206.32C850.76 206.32 855.31 202.76 862.98 205.52C870.65 208.28 878.88 220.6 911.98 217.76" stroke="#60361D" stroke-width="1.41" stroke-linecap="round" stroke-linejoin="round"/>
<path d="M855.2 199C855.2 199 867.78 191.29 879.65 201.47C891.52 211.65 914.07 215.35 914.07 215.35" stroke="#60361D" stroke-width="1.41" stroke-linecap="round" stroke-linejoin="round"/>
</svg>
