<svg width="26" height="29" viewBox="0 0 26 29" fill="none" xmlns="http://www.w3.org/2000/svg">
<path d="M11.7638 4.24426C12.1538 2.90881 13.8477 2.90881 14.2364 4.24426L15.6274 9.01766C15.7123 9.30837 15.8775 9.56167 16.0994 9.74136C16.3212 9.92105 16.5882 10.0179 16.8624 10.0182H21.363C22.6227 10.0182 23.1453 11.8162 22.1274 12.6427L18.4874 15.592C18.2651 15.7718 18.0996 16.0255 18.0146 16.3167C17.9296 16.608 17.9294 16.9217 18.0142 17.2131L19.4052 21.9865C19.7952 23.3219 18.4237 24.4341 17.4032 23.6076L13.7632 20.6583C13.5411 20.4785 13.2738 20.3816 12.9994 20.3816C12.725 20.3816 12.4577 20.4785 12.2357 20.6583L8.59566 23.6076C7.57646 24.4341 6.20626 23.3219 6.59496 21.9865L7.98596 17.2131C8.07069 16.9217 8.07054 16.608 7.98553 16.3167C7.90052 16.0255 7.73502 15.7718 7.51276 15.592L3.87406 12.6441C2.85616 11.8176 3.38006 10.0196 4.63846 10.0196H9.13776C9.41213 10.0197 9.67948 9.92295 9.90154 9.74324C10.1236 9.56353 10.289 9.31005 10.3741 9.01911L11.7651 4.24571L11.7638 4.24426Z" fill="#FFC38C"/>
</svg>
