<svg width="40" height="35" viewBox="0 0 40 35" fill="none" xmlns="http://www.w3.org/2000/svg">
<path d="M40 4.12642C38.5045 4.8473 36.9978 5.38175 35.3348 5.55575C36.9978 4.48686 38.3371 2.68466 38.9955 0.720882C37.3326 1.78977 35.6696 2.51065 33.8393 2.87109C32.1652 1.08132 30 0 27.6674 0C23.1696 0 19.4978 3.95242 19.4978 8.79972C19.4978 9.50817 19.4978 10.229 19.6652 10.7759C11.0714 10.7759 5.17857 5.38175 1.18304 0C0.345983 1.25533 0.01116 2.87109 0.01116 4.48686C0.01116 7.53196 1.51786 10.229 3.68304 11.8448C2.34375 11.6708 1.01563 11.3104 0.01116 10.7759C0.01116 10.7759 0.01116 10.7759 0.01116 10.9499C0.01116 15.2628 2.84598 18.8423 6.51786 19.5632C5.84821 19.7372 5.17857 19.9237 4.34152 19.9237C3.85045 19.9237 3.34821 19.9237 2.84598 19.7496C3.85045 23.3416 8.50447 27.468 12.1652 27.468C9.33036 29.7923 6.69643 31.8182 1.42857 31.8182C0.758929 31.8182 1.29464 31.8182 0 31.8182C3.66071 34.3288 8.00223 35 12.5 35C27.6674 35 35.8371 21.5394 35.8371 9.86861C35.8371 9.50817 35.8371 9.16016 35.8371 8.79972C37.5 7.53196 38.8393 5.92862 40 4.12642Z" fill="white"/>
</svg>
