<svg width="40" height="40" viewBox="0 0 40 40" fill="none" xmlns="http://www.w3.org/2000/svg">
<path d="M6.2207 7.5293C4.16016 7.5293 2.4707 9.21875 2.4707 11.2793V28.7793C2.4707 30.8398 4.16016 32.5293 6.2207 32.5293H33.7207C35.7715 32.5293 37.4707 30.8398 37.4707 28.7793V11.2793C37.4707 9.21875 35.7812 7.5293 33.7207 7.5293H6.2207ZM6.2207 10.0293H33.7207C34.4238 10.0293 34.9707 10.5762 34.9707 11.2793V28.7793C34.9707 29.4824 34.4238 30.0293 33.7207 30.0293H6.2207C5.51758 30.0293 4.9707 29.4824 4.9707 28.7793V11.2793C4.9707 10.5762 5.51758 10.0293 6.2207 10.0293ZM15 12.4805V27.5293L27.5 20L15 12.4805ZM17.5 16.8945L22.6562 20L17.5 23.1055V16.8945Z" fill="white"/>
</svg>
